<?xml version="1.0" encoding="utf-8"?>
<!-- Generator: Adobe Illustrator 26.0.3, SVG Export Plug-In . SVG Version: 6.00 Build 0)  -->
<svg version="1.1" id="Warstwa_1" xmlns="http://www.w3.org/2000/svg" xmlns:xlink="http://www.w3.org/1999/xlink" x="0px" y="0px"
	 viewBox="0 0 54 54" style="enable-background:new 0 0 54 54;" xml:space="preserve">
<style type="text/css">
	.st0{fill:#DD5454;}
	.st1{fill:#EC6563;}
	.st2{fill:#9B5D2A;}
	.st3{fill:#EACCAC;}
</style>
<g>
	<g>
		<path class="st0" d="M25.44,19.03c-4.05,0.37-7.69,1.78-10.87,4.34c-0.1,0.08-0.21,0.14-0.32,0.2c-1.58-5.35-3.15-10.7-4.74-16.04
			c-0.14-0.48-0.04-0.69,0.4-0.96c1.84-1.13,3.63-2.33,5.44-3.5c1.49-0.97,2.99-1.93,4.47-2.9C20.04,0.02,20.26,0,20.5,0
			c4.33,0,8.67,0,13,0c0.24,0,0.46,0.04,0.67,0.18c3.38,2.19,6.75,4.39,10.14,6.56c0.39,0.25,0.21,0.51,0.13,0.77
			c-1.11,3.76-2.22,7.52-3.33,11.28c-0.47,1.57-0.95,3.13-1.43,4.7c-1.03-0.61-1.95-1.39-3-1.97c-2.2-1.22-4.54-2-7.03-2.36
			c-0.38-0.06-0.76-0.1-1.15-0.15c0.42-1.64,0.85-3.28,1.33-4.9c0.5-1.66,0.97-3.33,1.5-4.98c0.12-0.36,0.15-0.59-0.38-0.58
			c-2.67,0.02-5.34,0.02-8.01,0c-0.4,0-0.48,0.11-0.37,0.49c0.43,1.44,0.83,2.89,1.25,4.34C24.37,15.26,24.91,17.14,25.44,19.03z"/>
		<g>
			<path class="st1" d="M33.68,0c-4.33,0-8.67,0-13,0c-0.17,0-0.33,0.01-0.49,0.07l2.57,8.95c0,0,0.01,0,0.01,0
				c-0.1-0.36-0.02-0.47,0.37-0.47c2.67,0.01,5.34,0.02,8.01,0c0.17,0,0.28,0.02,0.35,0.06l2.33-8.6C33.77,0,33.73,0,33.68,0z"/>
		</g>
	</g>
	<circle class="st2" cx="27" cy="36.2" r="17.8"/>
	<g>
		<path class="st3" d="M24.79,40.57c-0.08-0.15-0.16-0.26-0.36-0.25c-0.55,0.02-1.17-0.13-1.64,0.07c-0.41,0.17-0.5,0.82-0.76,1.23
			c-0.02,0.04-0.04,0.08-0.06,0.12c-0.59,1.12-1.18,2.24-1.8,3.41c0.17,0,0.27-0.02,0.36,0c0.75,0.14,1.25-0.12,1.48-0.86
			C22.09,44.05,22.26,44,22.5,44c0.77,0.01,1.55,0.02,2.32,0c0.3-0.01,0.51,0.06,0.6,0.36c0.21,0.68,0.67,0.93,1.35,0.78
			c0.03-0.01,0.06,0,0.09,0c0.34,0.04,0.32-0.1,0.19-0.34C26.3,43.4,25.54,41.98,24.79,40.57z M24.42,43.04c-0.56,0-1.12,0-1.73,0
			c0.27-0.66,0.71-1.18,0.97-1.91c0.34,0.64,0.65,1.19,0.93,1.75C24.67,43.03,24.53,43.04,24.42,43.04z"/>
		<path class="st3" d="M31.06,32.71c1.37,0,2.44-1.02,2.39-2.35c-0.05-1.4-0.97-2.27-2.43-2.28c-1.37-0.01-2.36,0.97-2.37,2.32
			C28.65,31.69,29.73,32.71,31.06,32.71z"/>
		<path class="st3" d="M18.51,40.32c-0.26,0-0.36,0.06-0.35,0.34c0.02,1.23,0.01,2.45,0.03,3.68c0.01,0.85,0.02,0.84,0.88,0.81
			c0.23-0.01,0.3-0.08,0.3-0.3c-0.01-0.71,0-1.43,0-2.14c0.01,0,0.02,0,0.03,0c0-0.16,0-0.32,0-0.48c0-0.35,0-0.7,0-1.05
			C19.39,40.3,19.39,40.31,18.51,40.32z"/>
		<path class="st3" d="M20.78,40.25c0.17,0.07,0.19-0.17,0.28-0.28c0.03-0.03,0.05-0.07,0.07-0.11c0.81-1.29,1.66-2.54,2.73-3.63
			c0.55-0.57,1.13-1.1,1.87-1.42c0.97-0.42,1.78-0.24,2.47,0.57c0.32,0.38,0.55,0.82,0.75,1.28c0.37,0.86,0.56,1.77,0.81,2.68
			c0.03-0.15,0.07-0.3,0.1-0.46c0.32-2.1,0.48-4.18-0.57-6.17c-0.46-0.87-1.4-1.37-2.36-1.14c-0.75,0.18-1.34,0.63-1.88,1.15
			c-0.94,0.89-1.64,1.97-2.29,3.08c-0.77,1.31-1.49,2.64-1.94,4.09C20.77,39.99,20.6,40.17,20.78,40.25z"/>
		<path class="st3" d="M34.31,40.32c-0.24-0.01-0.37,0.09-0.48,0.28c-0.57,0.97-1.15,1.93-1.73,2.89c-0.07,0.12-0.1,0.27-0.28,0.34
			c-0.44-0.75-0.88-1.51-1.32-2.26c-0.24-0.41-0.41-0.97-0.78-1.18c-0.37-0.21-0.94-0.04-1.42-0.07c-0.31-0.02-0.44,0.05-0.43,0.4
			c0.03,1.21,0.01,2.42,0.03,3.63c0.01,0.82,0.02,0.81,0.85,0.8c0.27,0,0.35-0.07,0.35-0.34c-0.01-0.99-0.01-1.98-0.01-3.05
			c0.22,0.12,0.26,0.27,0.33,0.39c0.44,0.74,0.93,1.45,1.3,2.22c0.31,0.65,0.74,0.89,1.43,0.79c0.24-0.03,0.4-0.07,0.52-0.3
			c0.34-0.61,0.7-1.21,1.07-1.8c0.26-0.43,0.54-0.85,0.81-1.28c0.07,0.87,0.07,1.7,0.07,2.53c0,0.89,0.01,0.88,0.9,0.85
			c0.23-0.01,0.3-0.07,0.3-0.3c0-1.42,0-2.83,0.02-4.25c0-0.24-0.08-0.3-0.3-0.29C35.13,40.33,34.72,40.34,34.31,40.32z"/>
	</g>
</g>
</svg>
