<?xml version="1.0" encoding="utf-8"?>
<!-- Generator: Adobe Illustrator 26.0.3, SVG Export Plug-In . SVG Version: 6.00 Build 0)  -->
<svg version="1.1" id="Warstwa_1" xmlns="http://www.w3.org/2000/svg" xmlns:xlink="http://www.w3.org/1999/xlink" x="0px" y="0px"
	 viewBox="0 0 54 54" style="enable-background:new 0 0 54 54;" xml:space="preserve">
<style type="text/css">
	.st0{fill:#B2881F;}
	.st1{fill:#FFFFFF;}
	.st2{font-family:'News706BT-BoldC';}
	.st3{font-size:21.0028px;}
</style>
<g>
	<path class="st0" d="M51.37,7.11c0-0.26-0.04-0.54-0.13-0.79c-0.39-1.06-1.13-1.57-2.33-1.59c-1.11-0.02-2.22-0.01-3.32-0.01
		c-1.16,0-2.31,0-3.47,0c-0.3,0-0.56-0.04-0.55-0.42c0.04-1.04,0.34-1.96,1.16-2.66c0.23-0.19,0.54-0.3,0.73-0.51
		c0.17-0.19,0.29-0.48,0.29-0.73c0-0.34-0.32-0.38-0.6-0.4C42.99,0,42.83,0,42.67,0C32.22,0,21.78,0,11.33,0
		c-0.24,0-0.48,0-0.71,0.04c-0.38,0.07-0.56,0.42-0.37,0.75c0.1,0.18,0.27,0.35,0.45,0.46c1.05,0.63,1.59,1.55,1.69,2.75
		c0.06,0.66,0,0.72-0.64,0.72c-2.17,0-4.34-0.02-6.5,0.02c-0.51,0.01-1.06,0.11-1.5,0.34C2.89,5.52,2.61,6.34,2.61,7.28
		c0.01,2.63-0.02,5.26,0.01,7.88c0.01,1.09,0.1,2.18,0.25,3.26c0.29,2.1,1.22,3.96,2.55,5.58c2.22,2.69,5.11,4.22,8.6,4.53
		c0.38,0.03,0.63,0.18,0.85,0.5c1.29,1.89,2.9,3.46,4.92,4.56c0.55,0.3,1.12,0.57,1.71,0.83h0.42c0,1.53,0.68,2.9,1.74,3.82v4.18
		h-3.73c-2.62,0-4.74,2.12-4.74,4.74v1.05h-2.37c-2.62,0-4.74,2.12-4.74,4.74V54h37.78v-1.05c0-2.62-2.12-4.74-4.74-4.74h-2.37
		v-1.05c0-2.62-2.12-4.74-4.74-4.74h-3.73v-4.18c1.07-0.93,1.74-2.3,1.74-3.82h0.41c0.07-0.03,0.14-0.06,0.21-0.09
		c2.53-1.08,4.6-2.73,6.17-4.99c0.35-0.51,0.74-0.81,1.4-0.86c2.32-0.2,4.41-1.07,6.24-2.5c3.07-2.4,4.7-5.59,4.83-9.47
		C51.44,13.38,51.37,10.24,51.37,7.11z M12.56,23.72c-2.61-1.07-4.4-2.75-5.11-5.41c-0.21-0.8-0.3-1.65-0.32-2.47
		c-0.04-1.98-0.02-3.95-0.01-5.93c0-0.68,0.02-0.69,0.69-0.69c1.25,0,2.5,0,3.75,0c0.87,0,0.87,0,0.87,0.89
		c0,2.96-0.02,5.92,0.01,8.87c0.01,1.37,0.11,2.75,0.16,4.12C12.6,23.27,12.58,23.45,12.56,23.72z M23.11,9.17
		c0.02-0.08,0.06-0.14,0.11-0.2C23.18,9.04,23.15,9.11,23.11,9.17z M46.76,17.23c-0.07,1.57-0.83,2.93-1.85,4.12
		c-0.93,1.08-2.08,1.81-3.49,2.35c-0.02-0.22-0.04-0.35-0.04-0.49c0.05-2.61,0.13-5.22,0.16-7.83c0.03-1.85,0-3.7,0.01-5.55
		c0-0.58,0.04-0.62,0.62-0.62c1.39,0,2.78,0.01,4.18,0c0.36,0,0.52,0.11,0.52,0.49C46.83,12.21,46.88,14.72,46.76,17.23z"/>
	<text transform="matrix(1 0 0 1 21.457 21.9087)" class="st1 st2 st3">1</text>
</g>
</svg>
