<?xml version="1.0" encoding="utf-8"?>
<!-- Generator: Adobe Illustrator 26.0.3, SVG Export Plug-In . SVG Version: 6.00 Build 0)  -->
<svg version="1.1" id="Warstwa_1" xmlns="http://www.w3.org/2000/svg" xmlns:xlink="http://www.w3.org/1999/xlink" x="0px" y="0px"
	 viewBox="0 0 400 400" style="enable-background:new 0 0 400 400;" xml:space="preserve">
<style type="text/css">
	.st0{fill:#336799;}
</style>
<path class="st0" d="M201.26,100.84c6.85,1.05,13.78,1.71,20.53,3.22c39.76,8.88,70.09,40.99,75.93,81.32
	c8.03,55.48-29.69,103.94-81.12,112.43c-54.42,8.97-105.7-27.43-114.16-81.7c-8.23-52.77,25.61-101.92,77.71-112.68
	c5.97-1.23,12.08-1.74,18.13-2.59C199.26,100.84,200.26,100.84,201.26,100.84z M261.69,238.42c-0.33-8.58-0.33-8.58-8.28-11.21
	c-4.41-1.46-9.09-2.41-13.18-4.5c-9.54-4.88-17.58-4.14-24.16,4.84c-0.29,0.39-0.79,0.62-1.12,0.99c-1.69,1.97-3.36,1.94-5.64,0.67
	c-13.91-7.75-25.72-17.68-34.14-31.42c-6.02-9.82-6.15-9.74,1.71-18.43c0.89-0.99,2.15-1.83,2.6-2.99c0.71-1.81,1.64-4.07,1.15-5.74
	c-2.73-9.23-5.82-18.36-8.91-27.48c-0.45-1.32-1.3-3.15-2.36-3.49c-5.08-1.62-10.46-3.03-15.37,0.17
	c-6.73,4.38-11.67,10.32-14.07,18.17c-3.46,11.33-0.78,22.07,3.5,32.49c5.25,12.78,13.39,23.77,22.78,33.75
	c13.66,14.54,28.67,27.44,47.85,34.21c11.75,4.15,23.8,5.74,35.07-1.33C255.89,252.86,262.35,247.88,261.69,238.42z"/>
</svg>
