<?xml version="1.0" encoding="utf-8"?>
<!-- Generator: Adobe Illustrator 26.0.3, SVG Export Plug-In . SVG Version: 6.00 Build 0)  -->
<svg version="1.1" id="Warstwa_1" xmlns="http://www.w3.org/2000/svg" xmlns:xlink="http://www.w3.org/1999/xlink" x="0px" y="0px"
	 viewBox="0 0 400 400" style="enable-background:new 0 0 400 400;" xml:space="preserve">
<style type="text/css">
	.st0{fill:#336799;}
	.st1{fill:#FFFFFF;stroke:#FFFFFF;stroke-width:7;stroke-miterlimit:10;}
</style>
<g>
	<path class="st0" d="M101.24,198.72c-0.59-53.86,44.93-100.84,102.81-98.57c49.16,1.93,95.13,41.88,94.7,99.79
		c-0.43,57.28-48.18,99.89-102.67,97.84C143.89,295.81,100.63,252.29,101.24,198.72z M200.29,152.96c-21.33,0-42.65-0.03-63.98,0.01
		c-8.55,0.02-10.92,2.2-10.95,10.51c-0.09,23.67-0.09,47.34,0,71.02c0.03,8.07,2.45,10.4,10.54,10.41
		c42.65,0.04,85.31,0.04,127.96,0c8.36-0.01,10.62-2.37,10.63-10.76c0.01-23.34,0.01-46.68,0-70.02c0-8.98-2.15-11.16-11.22-11.17
		C242.27,152.94,221.28,152.96,200.29,152.96z"/>
	<path class="st1" d="M200.29,152.96c20.99,0,41.99-0.02,62.98,0.01c9.07,0.01,11.22,2.19,11.22,11.17
		c0.01,23.34,0.01,46.68,0,70.02c-0.01,8.39-2.26,10.75-10.63,10.76c-42.65,0.04-85.31,0.04-127.96,0
		c-8.09-0.01-10.51-2.34-10.54-10.41c-0.09-23.67-0.09-47.34,0-71.02c0.03-8.32,2.4-10.5,10.95-10.51
		C157.63,152.93,178.96,152.96,200.29,152.96z M260.49,160.63c-40.63,0-80.43,0-120.26,0c0.14,0.32,0.18,0.7,0.39,0.86
		c18.8,14.35,37.58,28.73,56.53,42.88c1.23,0.92,4.41,0.82,5.69-0.14C221.93,190,240.85,175.55,260.49,160.63z M183.07,202.04
		c-14.73,11.77-29.1,23.25-44.13,35.26c40.57,0,80.18,0,120.7,0c-11.19-8.96-21.66-17.4-32.2-25.75c-3.63-2.88-7.44-7.74-11.14-7.72
		c-3.99,0.02-7.96,4.71-11.93,7.37c-0.41,0.28-0.85,0.54-1.2,0.89c-2.13,2.17-4.13,1.98-6.48,0.12
		C192.4,208.8,187.92,205.64,183.07,202.04z M266.53,233.47c0-23.29,0-45.46,0-68.42c-15.1,11.22-29.54,21.96-44.38,32.99
		C237.27,210.11,251.64,221.58,266.53,233.47z M177.1,197.54c-14.99-11.11-29.4-21.8-44.12-32.71c0,22.9,0,44.93,0,67.92
		C148,220.77,162.34,209.33,177.1,197.54z"/>
	<path class="st0" d="M260.49,160.63c-19.65,14.92-38.57,29.37-57.65,43.6c-1.28,0.96-4.45,1.06-5.69,0.14
		c-18.95-14.15-37.73-28.53-56.53-42.88c-0.21-0.16-0.25-0.54-0.39-0.86C180.07,160.63,219.86,160.63,260.49,160.63z"/>
	<path class="st0" d="M183.07,202.04c4.85,3.6,9.33,6.76,13.62,10.17c2.35,1.86,4.35,2.05,6.48-0.12c0.35-0.35,0.78-0.62,1.2-0.89
		c3.97-2.66,7.94-7.34,11.93-7.37c3.7-0.02,7.51,4.84,11.14,7.72c10.54,8.36,21.01,16.79,32.2,25.75c-40.51,0-80.13,0-120.7,0
		C153.97,225.29,168.34,213.81,183.07,202.04z"/>
	<path class="st0" d="M266.53,233.47c-14.9-11.89-29.27-23.36-44.38-35.43c14.84-11.03,29.28-21.77,44.38-32.99
		C266.53,188.01,266.53,210.19,266.53,233.47z"/>
	<path class="st0" d="M177.1,197.54c-14.76,11.78-29.1,23.23-44.12,35.21c0-22.99,0-45.02,0-67.92
		C147.7,175.74,162.11,186.43,177.1,197.54z"/>
</g>
</svg>
