<?xml version="1.0" encoding="utf-8"?>
<!-- Generator: Adobe Illustrator 26.0.3, SVG Export Plug-In . SVG Version: 6.00 Build 0)  -->
<svg version="1.1" id="Warstwa_1" xmlns="http://www.w3.org/2000/svg" xmlns:xlink="http://www.w3.org/1999/xlink" x="0px" y="0px"
	 viewBox="0 0 400 400" style="enable-background:new 0 0 400 400;" xml:space="preserve">
<style type="text/css">
	.st0{fill:#336799;}
</style>
<path class="st0" d="M201.24,101.53c6.35,1,12.81,1.55,19.04,3.06c42.94,10.4,69.31,37.75,77.03,80.78
	c9.13,50.93-23.92,100.32-76.61,112.64c-1.08,0.25-2.27,0.03-3.73,0.03c-0.13-1.47-0.35-2.75-0.35-4.03
	c-0.02-19.99,0.07-39.99-0.09-59.98c-0.03-3.85,0.96-5.49,5.06-5.21c4.48,0.31,9.01,0.27,13.48-0.05c1.46-0.1,3.86-1.35,4.06-2.41
	c1.54-8.12,2.65-16.33,4.05-25.59c-9.15,0-17.65,0-26.81,0c0.38-8.47,0.53-15.92,1.11-23.34c0.39-5.07,4.22-8.22,9.99-8.56
	c3.98-0.23,7.99-0.21,11.98-0.1c3.46,0.09,5.28-1.02,5.15-4.86c-0.2-5.82,0.18-11.68-0.21-17.48c-0.11-1.58-1.91-4.15-3.25-4.36
	c-11.17-1.82-22.39-3.44-33.58,0.09c-14.38,4.53-24.2,17.33-24.59,32.4c-0.18,6.99-0.29,14.01,0.03,20.99
	c0.19,4.12-1.41,5.23-5.18,5.07c-4.99-0.21-10,0.03-14.99-0.05c-3.21-0.05-4.97,0.92-4.86,4.57c0.19,6.49,0.14,13,0.02,19.49
	c-0.06,3.23,1.21,4.43,4.45,4.32c5.49-0.19,11,0.03,16.49-0.08c2.6-0.05,4.03,0.56,4.02,3.57c-0.09,21.33-0.07,42.65-0.11,63.98
	c0,0.46-0.31,0.91-0.73,2.06c-3.62-0.84-7.33-1.48-10.9-2.56c-43.37-13.21-71.82-54.55-69.94-99.88
	c1.79-43.06,34.47-85.53,85.72-93.06c3.74-0.55,7.49-0.96,11.24-1.44C199.24,101.53,200.24,101.53,201.24,101.53z"/>
</svg>
