<?xml version="1.0" encoding="utf-8"?>
<!-- Generator: Adobe Illustrator 26.0.3, SVG Export Plug-In . SVG Version: 6.00 Build 0)  -->
<svg version="1.1" id="Warstwa_1" xmlns="http://www.w3.org/2000/svg" xmlns:xlink="http://www.w3.org/1999/xlink" x="0px" y="0px"
	 viewBox="0 0 54 54" style="enable-background:new 0 0 54 54;" xml:space="preserve">
<style type="text/css">
	.st0{fill:#DD5454;}
	.st1{fill:#EC6563;}
	.st2{fill:#91918D;}
	.st3{fill:#FFFFFF;}
	.st4{font-family:'News706BT-BoldC';}
	.st5{font-size:20.7926px;}
</style>
<g>
	<g>
		<path class="st0" d="M25.44,19.03c-4.05,0.37-7.69,1.78-10.87,4.34c-0.1,0.08-0.21,0.14-0.32,0.2c-1.58-5.35-3.15-10.7-4.74-16.04
			c-0.14-0.48-0.04-0.69,0.4-0.96c1.84-1.13,3.63-2.33,5.44-3.5c1.49-0.97,2.99-1.93,4.47-2.9C20.04,0.02,20.26,0,20.5,0
			c4.33,0,8.67,0,13,0c0.24,0,0.46,0.04,0.67,0.18c3.38,2.19,6.75,4.39,10.14,6.56c0.39,0.25,0.21,0.51,0.13,0.77
			c-1.11,3.76-2.22,7.52-3.33,11.28c-0.47,1.57-0.95,3.13-1.43,4.7c-1.03-0.61-1.95-1.39-3-1.97c-2.2-1.22-4.54-2-7.03-2.36
			c-0.38-0.06-0.76-0.1-1.15-0.15c0.42-1.64,0.85-3.28,1.33-4.9c0.5-1.66,0.97-3.33,1.5-4.98c0.12-0.36,0.15-0.59-0.38-0.58
			c-2.67,0.02-5.34,0.02-8.01,0c-0.4,0-0.48,0.11-0.37,0.49c0.43,1.44,0.83,2.89,1.25,4.34C24.37,15.26,24.91,17.14,25.44,19.03z"/>
		<g>
			<path class="st1" d="M33.68,0c-4.33,0-8.67,0-13,0c-0.17,0-0.33,0.01-0.49,0.07l2.57,8.95c0,0,0.01,0,0.01,0
				c-0.1-0.36-0.02-0.47,0.37-0.47c2.67,0.01,5.34,0.02,8.01,0c0.17,0,0.28,0.02,0.35,0.06l2.33-8.6C33.77,0,33.73,0,33.68,0z"/>
		</g>
	</g>
	<circle class="st2" cx="27" cy="36.2" r="17.8"/>
	<text transform="matrix(1 0 0 1 21.5127 42.1309)" class="st3 st4 st5">2</text>
</g>
</svg>
