<?xml version="1.0" encoding="utf-8"?>
<!-- Generator: Adobe Illustrator 26.0.3, SVG Export Plug-In . SVG Version: 6.00 Build 0)  -->
<svg version="1.1" id="Warstwa_1" xmlns="http://www.w3.org/2000/svg" xmlns:xlink="http://www.w3.org/1999/xlink" x="0px" y="0px"
	 viewBox="0 0 54 54" style="enable-background:new 0 0 54 54;" xml:space="preserve">
<style type="text/css">
	.st0{fill:#025BB7;}
	.st1{fill:#116DBF;}
	.st2{fill:#91918D;}
	.st3{fill:#EACCAC;}
</style>
<g>
	<path class="st0" d="M25.46,18.83c-4.01,0.37-7.61,1.77-10.76,4.29c-0.1,0.08-0.21,0.13-0.32,0.2c-1.56-5.29-3.12-10.58-4.69-15.87
		c-0.14-0.47-0.04-0.68,0.4-0.95c1.82-1.12,3.59-2.3,5.38-3.46c1.48-0.96,2.96-1.91,4.43-2.87C20.11,0.02,20.33,0,20.57,0
		c4.29,0,8.58,0,12.87,0c0.24,0,0.45,0.04,0.66,0.18c3.34,2.17,6.68,4.34,10.03,6.49c0.39,0.25,0.21,0.5,0.13,0.77
		c-1.1,3.72-2.19,7.44-3.3,11.16c-0.46,1.55-0.94,3.1-1.41,4.65c-1.02-0.6-1.93-1.37-2.97-1.95c-2.18-1.21-4.5-1.98-6.95-2.34
		c-0.38-0.06-0.76-0.1-1.13-0.15c0.42-1.62,0.84-3.25,1.32-4.85c0.49-1.64,0.96-3.3,1.49-4.93c0.12-0.36,0.15-0.58-0.37-0.58
		c-2.64,0.02-5.28,0.02-7.92,0c-0.4,0-0.47,0.11-0.36,0.48c0.42,1.43,0.83,2.86,1.23,4.29C24.4,15.1,24.93,16.96,25.46,18.83z"/>
	<path class="st1" d="M33.61,0c-4.29,0-8.58,0-12.87,0c-0.17,0-0.33,0.01-0.49,0.07l2.54,8.86c0,0,0.01,0,0.01,0
		c-0.1-0.35-0.02-0.46,0.37-0.46c2.64,0.01,5.28,0.02,7.92,0c0.17,0,0.28,0.02,0.35,0.06l2.3-8.51C33.7,0,33.65,0,33.61,0z"/>
	<circle class="st2" cx="27" cy="36.03" r="17.97"/>
	<g>
		<path class="st3" d="M39.84,39.5c-0.02,0-0.04,0.01-0.06,0.02c-0.05-0.01-0.05,0.14-0.13,0.05l0,0c0.1-0.43,0.22-0.86,0.2-1.31
			c-0.05-1.14-0.47-2.17-1.02-3.13c-0.63-1.09-1.43-2.07-2.25-3.02c-0.61-0.71-1.41-1.05-2.36-0.99c-0.16-0.02-0.36,0.01-0.26-0.26
			c0.23-0.52,0.46-1.04,0.69-1.56c0.16,0.03,0.16-0.08,0.17-0.19c0.01-0.16,0.14-0.3,0.11-0.49c-0.14,0.06-0.15,0.23-0.29,0.27
			c-0.08-0.13,0.09-0.19,0.07-0.3c0,0,0,0,0,0c0.06-0.13,0.12-0.25,0.18-0.38c0.39-0.39,0.35-0.9,0.4-1.39
			c-0.24,0.32-0.47,0.65-0.47,1.08c-0.06,0.2-0.12,0.41-0.18,0.61c-0.15,0.32-0.31,0.64-0.42,0.97c-0.12,0.33-0.35,0.61-0.42,0.97
			c-0.11,0.24-0.22,0.48-0.33,0.72c-0.04-0.02-0.07-0.06-0.12-0.04c-0.02,0-0.03,0-0.04-0.01c-0.07-0.16-0.21,0-0.3-0.06
			c-0.28-0.11-0.58-0.17-0.88-0.18c-0.21-0.01-0.29-0.09-0.37-0.26c-0.24-0.51-0.75-0.74-1.3-0.59c-0.63,0.16-1.15,0.76-1.12,1.29
			c0.01,0.17,0.04,0.31-0.1,0.48c-0.13,0.16,0.29,0.18,0.21,0.4c0.09,0.13,0.29,0.04,0.36,0.19c0.3,0.3,0.61,0.6,0.68,1.06
			c0.01,0.07,0.03,0.17,0.14,0.15c0.09-0.01,0.13-0.09,0.14-0.17c0.01-0.06,0.01-0.12,0.01-0.18c0.02,0.02,0.03,0.04,0.05,0.05
			c0.04,0.13,0.15,0.16,0.26,0.14c0.24-0.04,0.31,0.1,0.36,0.29c0.06,0.27,0.15,0.54,0.22,0.81c0.02,0.06,0.05,0.16,0.09,0.18
			c0.1,0.03,0.1-0.11,0.16-0.15c0.02,0.02,0.04,0.04,0.06,0.06c-0.08,0.18-0.17,0.36-0.25,0.54c-0.51,0.97-1.01,1.93-1.52,2.9
			c-0.11-0.08-0.18-0.05-0.24,0.06c-0.33,0.2-0.63,0.46-1,0.6c-0.47,0.18-0.79,0.53-0.98,0.99c-0.12,0.11-0.07,0.26-0.09,0.4
			c-0.01,0.1-0.08,0.23,0.06,0.29c0.01,0,0.02,0.01,0.03,0.01c-0.18,0.01-0.37,0.03-0.54,0.02c-0.29-0.01-0.57-0.04-0.86,0.05
			c-0.58,0-1.17,0.02-1.75,0c-0.22-0.01-0.26,0.07-0.26,0.27c0.01,1.48,0.01,2.97-0.01,4.45c0,0.26,0.08,0.3,0.31,0.29
			c1.42-0.01,2.84-0.01,4.27,0c0.22,0,0.29-0.04,0.29-0.28c-0.01-1.49-0.01-2.99-0.01-4.48c0-0.08,0.05-0.18-0.04-0.25
			c-0.36-0.16-0.75-0.08-1.13-0.08c-0.04,0-0.08,0-0.12,0c0.05-0.02,0.09-0.05,0.13-0.08c0.38-0.28,0.78-0.54,1.01-0.97
			c0.06-0.12,0.17-0.2,0.29-0.26c0.02-0.01,0.04-0.03,0.06-0.04c0.02,0.01,0.05,0.02,0.06,0.06c0,0,0,0,0,0c0,0,0,0,0,0
			c-0.18,0.36-0.37,0.72-0.55,1.08c-0.03,0.06-0.16,0.17,0.05,0.17c0.07,0,0.13,0,0.2,0.01c0.07,0.03,0.11-0.05,0.18-0.05
			c0.27-0.56,0.53-1.13,0.8-1.69c0.06,0.09,0.11,0.2,0.23,0.05c0.41-0.19,0.82-0.37,1.23-0.56c0.38-0.18,0.78-0.32,1.11-0.59
			c0.65-0.53,1.06-1.23,1.34-2.01c0.05-0.02,0.1-0.04,0.15-0.07c0.07,0.08,0.14,0.17,0.2,0.26c0.18,0.27,0.35,0.56,0.69,0.67v0l0,0
			c0,0.02,0,0.04,0,0.06c-0.11,0.06-0.04,0.13-0.01,0.21c0.04,0.14,0.1,0.28,0.13,0.43c0.07,0.37,0.07,0.38-0.29,0.37
			c-0.78-0.02-1.5,0.17-2.18,0.55c-0.18,0.1-0.22,0.21-0.11,0.37c-0.02,0.04-0.04,0.09-0.06,0.13c-0.07-0.11-0.13-0.22-0.21-0.33
			c-0.05-0.07-0.1-0.17-0.21-0.13c-0.1,0.03-0.06,0.14-0.06,0.21c0,0.3,0,0.6,0,0.9c-0.05,0.43,0,0.85-0.01,1.28
			c0,0.11,0.05,0.15,0.13,0.2c-0.04,0.12-0.03,0.21,0.1,0.27c0.11,0.06,0.21,0.14,0.32,0.22c-0.04,0.02-0.07,0.03-0.11,0.05
			c-0.09-0.04-0.16-0.13-0.28-0.1c0,0.04,0,0.08,0.01,0.12c0.07,0.89,0.21,1.77,0.19,2.67c0,0.05,0,0.09,0.05,0.13
			c0.19,0.12,0.59-0.07,0.64-0.29c0.14-0.59,0.15-1.21,0.37-1.79c0.04-0.04,0.08-0.09,0.12-0.13c0.52,0.34,1.09,0.59,1.65,0.85
			c0.37,0.17,0.79,0.22,1.12,0.48c0.04,0.16,0.21,0.16,0.31,0.26c-0.05,0.2-0.1,0.41-0.16,0.61c-0.04,0.14-0.1,0.28-0.16,0.42
			c-0.09,0.21-0.24,0.33-0.46,0.39c-0.14,0.03-0.4,0.06-0.38,0.14c0.05,0.17,0.27,0.05,0.42,0.07c0.12,0.01,0.24-0.01,0.36,0
			c0.19,0.02,0.28-0.06,0.37-0.23c0.18-0.36,0.32-0.78,0.66-1.03c0.37-0.26,0.25-0.61-0.01-0.82c-0.09-0.07-0.16-0.31-0.35-0.11
			c-0.02,0-0.04,0-0.06,0c0.06-0.18,0.01-0.31-0.13-0.43c-0.1-0.09-0.19-0.19-0.28-0.29c0-0.05,0-0.09,0-0.14
			c0.28-0.4,0.56-0.8,0.93-1.13c0.08-0.07,0.11-0.14,0.1-0.23c0-0.04,0-0.09,0.01-0.13l0,0c0.01-0.01,0.03-0.02,0.05-0.02
			c0.03,0.03,0.05,0.05,0.08,0.08c0.01,1.59,0.03,3.18,0.03,4.77c0,0.21,0.1,0.22,0.26,0.22c0.68,0,1.35-0.01,2.03,0
			c0.22,0,0.29-0.05,0.29-0.28c-0.01-1.71,0-3.43,0-5.14C40.46,39.45,40.46,39.45,39.84,39.5z M36.65,37.94
			C36.65,37.94,36.65,37.94,36.65,37.94C36.65,37.94,36.65,37.94,36.65,37.94C36.65,37.94,36.65,37.94,36.65,37.94z M31.49,32.07
			C31.49,32.07,31.49,32.07,31.49,32.07C31.49,32.07,31.49,32.07,31.49,32.07C31.49,32.07,31.49,32.07,31.49,32.07z M36.52,40.92
			C36.52,40.92,36.52,40.92,36.52,40.92C36.52,40.92,36.52,40.92,36.52,40.92C36.52,40.92,36.52,40.92,36.52,40.92z M33.87,30.45
			C33.87,30.45,33.87,30.46,33.87,30.45C33.87,30.45,33.87,30.45,33.87,30.45C33.87,30.45,33.87,30.45,33.87,30.45z M31.81,35.16
			C31.81,35.16,31.81,35.16,31.81,35.16C31.81,35.16,31.81,35.16,31.81,35.16C31.81,35.16,31.8,35.16,31.81,35.16
			C31.8,35.16,31.81,35.16,31.81,35.16z M32.98,34.67c-0.23,0.49-0.45,0.99-0.48,1.55c-0.01,0.16-0.03,0.32-0.19,0.39
			c-0.44,0.18-0.81,0.49-1.27,0.63c0.3-0.39,0.45-0.85,0.66-1.29c0.03-0.05,0.02-0.12-0.02-0.17c-0.01,0-0.02,0-0.03,0
			c0,0,0.01,0,0.01-0.01c0.02-0.04,0.05-0.07,0.07-0.11c0.06-0.05,0.11-0.11,0.11-0.19c0.06-0.12,0.12-0.24,0.18-0.36
			c0.08-0.13,0.17-0.25,0.18-0.41c0.01,0,0.01-0.01,0.01-0.01c0.14-0.11,0.25-0.25,0.26-0.44c0,0,0,0,0-0.01
			c0.01,0,0.01-0.01,0.02-0.01c0,0,0.01,0.01,0.01,0.01c0.17,0.17,0.4,0.21,0.61,0.29C33.05,34.54,33.01,34.6,32.98,34.67z"/>
		<path class="st3" d="M24.67,39.14c0.17,0.2,0.38,0.35,0.62,0.46c0.2,0.1,0.37,0.24,0.53,0.39c0.1,0.1,0.2,0.19,0.3,0.29
			c0.06,0.06,0.13,0.12,0.21,0.07c0.1-0.06,0.01-0.14-0.01-0.21c-0.11-0.27-0.23-0.53-0.35-0.8c0.02-0.02,0.04-0.05,0.07-0.07
			c0.23,0.36,0.45,0.72,0.68,1.07c0.1,0.03,0.17,0.01,0.17-0.11c-0.05-0.05-0.1-0.1-0.13-0.16c-1.33-2.1-2.66-4.2-3.98-6.31
			c0.02-0.13-0.01-0.21-0.16-0.2c0.16-0.09,0.13-0.22,0.07-0.35v0c0.08-0.17,0.01-0.28-0.14-0.37c-0.02-0.01-0.04-0.01-0.06,0
			c-0.04-0.18,0.14-0.3,0.11-0.48c0.02-0.02,0.04-0.05,0.07-0.07c0.25-0.05,0.34,0.05,0.37,0.29c0.04,0.27,0.11,0.53,0.19,0.79
			c0.03,0.11,0.04,0.26,0.19,0.33c0.03-0.09,0.06-0.17,0.08-0.24c0.09-0.38,0-0.83,0.58-0.98c0.19-0.05,0.17,0,0.21,0.09
			c0.03,0.07,0.01,0.18,0.12,0.18c0.09,0,0.12-0.1,0.15-0.16c0.23-0.42,0.58-0.74,0.94-1.04c0.08,0,0.08-0.09,0.14-0.11
			c0.13,0.1,0.16,0.29,0.33,0.37c0.09-0.26,0.15-0.51,0.28-0.73c0.13,0,0.24-0.01,0.24-0.18c0-0.06,0.04-0.11,0.06-0.17
			c0.22-0.25,0.34-0.56,0.51-0.84c0.32-0.55,0.26-0.9-0.22-1.31c-0.05-0.04-0.14-0.07-0.07-0.16c0.24-0.27,0.48-0.55,0.8-0.72
			c0.12-0.06,0.27-0.05,0.34,0.09c0.09,0.18-0.1,0.17-0.19,0.23c0.32,0.26,0.32,0.26-0.02,0.73c0.03,0.03,0.08,0.04,0.11,0.02
			c0.26-0.2,0.55-0.22,0.86-0.23c0.16-0.01,0.31-0.07,0.41-0.21c0.46-0.61,0.17-1.54-0.57-1.74c-0.54-0.15-1.08-0.1-1.58,0.19
			c-0.47,0.27-0.78,0.71-1.11,1.13c-0.1,0.13-0.18,0.26-0.4,0.26c-0.67,0-0.94,0.22-1.11,0.87c-0.08,0.31-0.2,0.56-0.52,0.68
			c-0.31,0.01-0.61,0.03-0.92,0.04c0,0.03,0,0.07,0,0.1c0.33,0,0.66,0,0.99,0c0.04,0.02,0.09,0.04,0.13,0.06c0,0.02,0,0.05,0,0.07
			c0,0,0,0,0,0c0,0,0,0,0,0c-0.64-0.11-1.21,0.17-1.81,0.28c-0.13,0-0.26-0.05-0.37,0.06c-0.27,0.07-0.54,0.17-0.81,0.22
			c-1.34,0.2-2.43,0.87-3.41,1.76c-0.81,0.73-1.45,1.61-2.13,2.46c-0.49,0.61-0.75,1.3-0.84,2.06c-0.11,0.91,0.02,1.78,0.36,2.63
			c0.03,0.11,0.01,0.23,0,0.34c-0.02-0.07-0.04-0.15-0.06-0.22c0-0.1-0.05-0.14-0.15-0.13c-0.16,0.01-0.31,0.01-0.47,0.02
			c-0.11,0.11-0.09,0.26-0.09,0.4c0,1.63,0,3.26,0,4.89c0,0.21,0.02,0.42-0.02,0.63c0.03,0.07,0.1,0.04,0.16,0.05
			c0.11-0.04,0.22-0.02,0.33-0.02c0.68,0,1.35-0.01,2.03,0c0.16,0,0.24-0.04,0.23-0.22c-0.01-0.28,0.03-0.56,0.04-0.84
			c0.01,0.06,0.02,0.12,0.04,0.18c0.23,0.43,0.57,0.64,1.06,0.56c0.1-0.01,0.24,0.07,0.28-0.09c0.03-0.14-0.12-0.14-0.2-0.19
			c-0.35-0.2-0.67-0.43-0.77-0.84c-0.05-0.22-0.16-0.38-0.3-0.54c-0.04,0-0.08,0.01-0.09,0.04c0-0.07,0-0.14,0-0.21
			c0.01,0.02,0.04,0.03,0.08,0.03c0.07-0.07,0.13-0.14,0.22-0.2c0.76-0.46,1.52-0.93,2.28-1.4c0.1-0.06,0.26-0.09,0.24-0.27
			c-0.02-0.07-0.03-0.14-0.05-0.2c0.02,0.03,0.06,0.06,0.1,0.09c0.07,0.03,0.06,0.18,0.19,0.12c0.02-0.04,0.03-0.08,0.03-0.13
			c0.03,0.1,0.07,0.2,0.08,0.31c0.16,0.61,0.26,1.23,0.32,1.86c0.08,0.27,0.32,0.36,0.54,0.47c0.23,0.11,0.27,0.08,0.24-0.2
			c-0.11-0.52-0.1-1.04-0.03-1.56c0.09-0.73,0.13-1.46,0.11-2.2c-0.02-0.53-0.01-1.07,0.23-1.57c-0.09-0.07-0.13-0.09-0.18-0.02
			c0.03-0.07,0.04-0.14-0.02-0.22c-0.25-0.22-0.5-0.47-0.77-0.67c-0.39-0.3-0.8-0.57-1.34-0.48c-0.2,0.05-0.35,0.16-0.42,0.31
			c0.07-0.16,0.2-0.28,0.36-0.38c0.25-0.15-0.08-0.11-0.06-0.18c-0.11-0.07-0.22-0.1-0.34-0.13c0.05-0.01,0.11-0.03,0.16-0.06
			c0.34-0.48,0.68-0.97,1.03-1.45c0.04-0.17,0.06-0.34,0.05-0.51c0.01,0.05,0.03,0.1,0.06,0.15c0.07,0.64,0.22,1.26,0.39,1.88
			c0.07,0.25,0.22,0.44,0.45,0.57c1.02,0.57,2.05,1.11,3.15,1.5C24.31,38.89,24.52,38.97,24.67,39.14z M21.75,33.22
			c-0.02,0.04-0.04,0.07-0.05,0.11C21.71,33.29,21.73,33.25,21.75,33.22z M19.63,33.12c0.04-0.03,0.08-0.06,0.12-0.08
			C19.71,33.07,19.67,33.09,19.63,33.12z M19.98,34.11c-0.03-0.11-0.1-0.25-0.2-0.37C19.89,33.84,19.95,33.95,19.98,34.11z
			 M19.58,40.11c0,0.05,0.03,0.1,0.05,0.15c0.03,0.06,0.06,0.12,0.1,0.16C19.63,40.34,19.57,40.23,19.58,40.11z M19.77,39.59
			c-0.08,0.13-0.12,0.29-0.17,0.43c0,0.01,0,0.01-0.01,0.02c0.01-0.03,0.02-0.07,0.03-0.11c0.04-0.14,0.09-0.29,0.19-0.41
			c0.03-0.05,0.06-0.09,0.08-0.14c-0.01,0.02-0.01,0.04-0.02,0.05C19.84,39.5,19.8,39.54,19.77,39.59z M19.47,38.21
			c-0.12,0.05-0.23,0.03-0.33-0.02c0.04,0.02,0.09,0.03,0.14,0.03C19.35,38.24,19.41,38.23,19.47,38.21z M19.46,38.99
			c-0.02,0.01-0.05,0.01-0.08,0.02c-0.22,0.07-0.43,0.16-0.64,0.27c-0.27,0.14-0.54,0.24-0.86,0.12c-0.08-0.03-0.15-0.07-0.21-0.13
			c0.06,0.05,0.13,0.09,0.21,0.12c0.34,0.14,0.63,0,0.92-0.14C19.01,39.15,19.22,39.03,19.46,38.99z M18.01,38.44
			c0.09-0.02,0.17,0,0.21,0.1C18.16,38.45,18.09,38.43,18.01,38.44z M17.95,38.45c0.01,0,0.02-0.01,0.03-0.01
			c-0.05,0.01-0.1,0.04-0.15,0.08c-0.04,0.03-0.06,0.07-0.08,0.11C17.78,38.53,17.86,38.48,17.95,38.45z M18,38.44
			c0,0-0.01,0-0.01,0C17.99,38.44,18,38.44,18,38.44z M17.8,38.88c0.02,0.03,0.04,0.06,0.06,0.08c-0.05-0.05-0.09-0.1-0.1-0.18
			C17.77,38.81,17.78,38.84,17.8,38.88z M18.46,38.88c0.05-0.09,0.08-0.18,0.08-0.26c0,0.11-0.04,0.22-0.11,0.31
			c-0.08,0.11-0.19,0.19-0.33,0.15C18.24,39.1,18.37,39.03,18.46,38.88z M18.31,38.14c0.01,0,0.02,0.01,0.03,0.01
			c0.06,0.06,0.11,0.12,0.14,0.19C18.44,38.28,18.38,38.21,18.31,38.14z M18.08,36.69c-0.05-0.03-0.1-0.08-0.12-0.14
			c0.04,0.07,0.1,0.12,0.17,0.15C18.12,36.7,18.1,36.7,18.08,36.69z M17.82,38.06c-0.27,0.08-0.42,0.26-0.43,0.55
			c-0.01,0.17,0.03,0.32,0.1,0.45c-0.12-0.2-0.16-0.45-0.07-0.67C17.51,38.2,17.64,38.1,17.82,38.06z M17.3,35.76
			c0,0.11,0.1,0.15,0.18,0.2c-0.01-0.01-0.02-0.01-0.03-0.02c-0.1-0.05-0.18-0.05-0.24,0C17.24,35.88,17.27,35.82,17.3,35.76z
			 M16.59,37.2c0.04-0.11,0.08-0.21,0.14-0.31C16.68,36.99,16.64,37.09,16.59,37.2z M15.56,42.37c0.06,0.03,0.13-0.01,0.23-0.11
			c0,0.01-0.01,0.03-0.01,0.04C15.69,42.41,15.63,42.41,15.56,42.37z M16.2,39.81c0.01-0.1,0.03-0.19,0.04-0.29
			c0.01,0.08,0.07,0.15,0.14,0.21C16.28,39.71,16.23,39.75,16.2,39.81z M17.8,41.23c-0.04,0.1-0.1,0.2-0.19,0.27
			c-0.33,0.26-0.53,0.56-0.62,0.91c0-0.26-0.01-0.53-0.02-0.79c-0.09-0.48-0.05-0.97-0.03-1.45c0.01-0.08-0.01-0.13-0.06-0.17
			c0.05,0.03,0.09,0.05,0.13,0.08c0.48,0.25,0.98,0.43,1.53,0.38C18.2,40.59,17.96,40.85,17.8,41.23z M20.11,40.47
			c-0.03,0.08-0.05,0.15-0.07,0.24c-0.03-0.08-0.08-0.14-0.17-0.19c0.02,0.01,0.05,0.02,0.08,0.02
			C20.02,40.54,20.07,40.51,20.11,40.47z M19.92,39.23c-0.01-0.04-0.03-0.09-0.07-0.13c-0.05-0.05-0.1-0.09-0.15-0.1
			C19.84,39.02,19.91,39.1,19.92,39.23z M19.2,37.44c0.1-0.09,0.2-0.08,0.31-0.03c0.14,0.07,0.22,0.18,0.22,0.33
			c0,0.15-0.01,0.3-0.13,0.4c0.04-0.04,0.07-0.1,0.08-0.18c0-0.01-0.01-0.02-0.01-0.03c0.07-0.1,0.03-0.21,0.01-0.31
			c-0.05-0.16-0.18-0.24-0.35-0.2c-0.14,0.03-0.17,0.15-0.17,0.28c0,0.07,0.05,0.11,0.11,0.12c0.07,0.01,0.13-0.01,0.13-0.08
			c0-0.07-0.03-0.16,0.09-0.12c0.06,0.02,0.06,0.11,0.04,0.16c-0.01,0.03-0.03,0.05-0.05,0.08c-0.02,0-0.04,0.01-0.06,0.01
			c-0.11,0.01-0.23,0.01-0.27-0.12C19.09,37.63,19.1,37.52,19.2,37.44z M18.96,38.09c-0.16-0.1-0.2-0.28-0.18-0.46c0,0,0,0,0-0.01
			c0,0.04-0.01,0.08,0,0.12C18.79,37.88,18.86,38,18.96,38.09z M18.83,37.45c0-0.01,0.01-0.02,0.01-0.03
			C18.84,37.44,18.84,37.44,18.83,37.45z M19.32,33.4c0.05-0.05,0.1-0.09,0.16-0.14c-0.04,0.07-0.04,0.12-0.03,0.17
			c-0.02-0.01-0.04-0.02-0.05-0.02C19.36,33.4,19.34,33.4,19.32,33.4z M20,34.18c0,0.01,0,0.02,0,0.03C20,34.2,20,34.19,20,34.18z
			 M21.77,36.3c-0.12-0.08-0.13-0.22-0.16-0.34c-0.02-0.17-0.04-0.34-0.06-0.51c0.01,0.03,0.01,0.06,0.02,0.09
			c0.11,0.15,0.18,0.07,0.25-0.04c0.06-0.11,0.08-0.22,0.12-0.34c0.16-0.51,0.26-1.03,0.43-1.53c0,0,0,0,0,0
			c0.01,0.02,0.03,0.03,0.05,0.04c-0.08,0.03-0.02,0.09,0,0.14c0.02,0.01,0.04,0.03,0.06,0.04c0.01,0.05,0.03,0.11,0.05,0.16
			c0.46,0.97,0.93,1.94,1.39,2.91c0.54,1.27,0.59,1.35,0.84,1.4c-0.27-0.54-0.52-1.06-0.78-1.57c-0.35-0.74-0.69-1.48-1.04-2.22
			c0.01-0.01,0.01-0.02,0.02-0.02c0.3,0.47,0.59,0.94,0.88,1.41c0.63,1.01,1.28,2.02,1.91,3.03c0,0,0,0,0,0c0,0,0,0,0,0
			c-0.31-0.26-0.65-0.47-1.05-0.55c-0.12-0.02-0.23-0.08-0.33-0.14C23.47,37.65,22.67,36.9,21.77,36.3z"/>
		<path class="st3" d="M23.32,45.22c-0.18-0.02-0.36-0.02-0.54-0.06c-0.63-0.12-1.13-0.46-1.52-0.97c-0.15-0.15-0.36-0.21-0.55-0.3
			c-0.05-0.03-0.12-0.04-0.13,0.06c0.15,0.25,0.12,0.54,0.15,0.82c0.05,0.47,0.16,0.56,0.63,0.58c0.24,0.01,0.49-0.08,0.72,0.01
			c0.4,0.16,0.81,0.13,1.22,0.1c0.09,0,0.23,0.03,0.24-0.12C23.55,45.16,23.4,45.23,23.32,45.22z"/>
		<path class="st3" d="M33.16,44.04c-0.23,0.07-0.49-0.06-0.7,0.18c-0.47,0.54-0.99,1.01-1.77,0.99c-0.06,0-0.13,0-0.13,0.09
			c0,0.11,0.07,0.1,0.15,0.1c0.16,0.01,0.32,0.02,0.52,0.03c0.2-0.02,0.48,0.07,0.67-0.08c0.23-0.18,0.47-0.18,0.74-0.18
			c0.44,0,0.6-0.14,0.63-0.58c0.01-0.14-0.02-0.28-0.03-0.42C33.23,44.1,33.21,44.02,33.16,44.04z"/>
		<path class="st3" d="M20.05,28.29c0.31,0.67,0.58,1.37,0.86,2.06c0.03,0.07,0.03,0.17,0.18,0.13c-0.06-0.28-0.19-0.54-0.31-0.8
			c-0.41-0.81-0.58-1.72-1.03-2.51c0.01-0.1-0.05-0.17-0.17-0.29c0.03,0.21,0.01,0.35,0.1,0.48C19.71,27.71,19.91,27.99,20.05,28.29
			z"/>
		<path class="st3" d="M20.95,28.96c0.13,0.43,0.25,0.87,0.38,1.3c0.02,0.07,0.02,0.16,0.12,0.13c0.11-0.04,0.03-0.12,0.02-0.17
			c-0.02-0.11-0.06-0.21-0.09-0.32c-0.16-0.55-0.32-1.09-0.49-1.64c-0.02-0.05-0.02-0.12-0.08-0.12c-0.11,0.03-0.06,0.09-0.06,0.15
			C20.75,28.52,20.89,28.73,20.95,28.96z"/>
	</g>
</g>
</svg>
