<?xml version="1.0" encoding="utf-8"?>
<!-- Generator: Adobe Illustrator 26.0.3, SVG Export Plug-In . SVG Version: 6.00 Build 0)  -->
<svg version="1.1" id="Warstwa_1" xmlns="http://www.w3.org/2000/svg" xmlns:xlink="http://www.w3.org/1999/xlink" x="0px" y="0px"
	 viewBox="0 0 54 54" style="enable-background:new 0 0 54 54;" xml:space="preserve">
<style type="text/css">
	.st0{fill:#0C9AA8;}
	.st1{fill:#16C1C1;}
	.st2{fill:#91918D;}
	.st3{fill:#EACCAC;}
</style>
<g>
	<path class="st0" d="M25.46,18.83c-4.01,0.37-7.61,1.77-10.76,4.29c-0.1,0.08-0.21,0.13-0.32,0.2c-1.56-5.29-3.12-10.58-4.69-15.87
		c-0.14-0.47-0.04-0.68,0.4-0.95c1.82-1.12,3.59-2.3,5.38-3.46c1.48-0.96,2.96-1.91,4.43-2.87C20.11,0.02,20.33,0,20.57,0
		c4.29,0,8.58,0,12.87,0c0.24,0,0.45,0.04,0.66,0.18c3.34,2.17,6.68,4.34,10.03,6.49c0.39,0.25,0.21,0.5,0.13,0.77
		c-1.1,3.72-2.19,7.44-3.3,11.16c-0.46,1.55-0.94,3.1-1.41,4.65c-1.02-0.6-1.93-1.37-2.97-1.95c-2.18-1.21-4.5-1.98-6.95-2.34
		c-0.38-0.06-0.76-0.1-1.13-0.15c0.42-1.62,0.84-3.25,1.32-4.85c0.49-1.64,0.96-3.3,1.49-4.93c0.12-0.36,0.15-0.58-0.37-0.58
		c-2.64,0.02-5.28,0.02-7.92,0c-0.4,0-0.47,0.11-0.36,0.48c0.42,1.43,0.83,2.86,1.23,4.29C24.4,15.1,24.93,16.96,25.46,18.83z"/>
	<path class="st1" d="M33.61,0c-4.29,0-8.58,0-12.87,0c-0.17,0-0.33,0.01-0.49,0.07l2.54,8.86c0,0,0.01,0,0.01,0
		c-0.1-0.35-0.02-0.46,0.37-0.46c2.64,0.01,5.28,0.02,7.92,0c0.17,0,0.28,0.02,0.35,0.06l2.3-8.51C33.7,0,33.65,0,33.61,0z"/>
	<circle class="st2" cx="27" cy="36.03" r="17.97"/>
	<path class="st3" d="M41.72,37.63c0.02,0,0.03,0.01,0.03,0.03C41.72,37.67,41.72,37.65,41.72,37.63z"/>
	<g>
		<path class="st3" d="M31.64,30.37c0.39,0.03,0.75,0.15,1.06,0.38c0.58,0.42,1.16,0.84,1.71,1.29c0.97,0.8,1.21,1.69,0.83,2.89
			c-0.2,0.64-0.55,1.21-0.86,1.8c-0.7,0.89-1.53,1.6-2.59,2.02c-0.28,0.11-0.57,0.2-0.88,0.16c-0.55-0.06-1.04-0.34-1.3-0.79
			c-0.17-0.29,0.21-0.62,0.39-0.9c0.12-0.19,0.26-0.4,0.17-0.62c-0.13-0.34-0.02-0.62,0.13-0.91c0.12-0.23,0.16-0.47,0.2-0.73
			c0.12-0.75-0.09-1.56,0.44-2.24c-0.3,0.14-0.49,0.35-0.55,0.64c-0.22,0.94-0.19,1.93-0.63,2.82c-0.01,0.01-0.01,0.03,0,0.05
			c0.13,0.55-0.11,0.99-0.42,1.41c-0.22,0.29-0.25,0.6-0.11,0.94c0.31,0.72,0,1.32-0.48,1.8c-0.78,0.78-0.7,2.15,0.22,2.76
			c0.11,0.06,0.22,0.15,0.33,0.16c0.51,0.02,0.4,0.39,0.39,0.69c-0.01,0.35-0.32,0.27-0.5,0.26c-1.11-0.03-2.17-0.24-3.02-1.02
			c-0.48-0.57-0.86-1.2-0.84-1.96c0.01-0.46-0.09-0.85-0.33-1.25c-0.22-0.35-0.48-0.75-0.31-1.2c0.17-0.45,0.1-0.85-0.17-1.21
			c-0.31-0.41-0.5-0.84-0.41-1.37c0.02-0.1,0.01-0.24-0.05-0.33c-0.38-0.63-0.37-1.33-0.45-2.02c-0.05-0.37-0.11-0.76-0.46-1
			c-0.03-0.09-0.12-0.11-0.17-0.05c-0.05,0.05,0.04,0.09,0.08,0.13c0.21,0.39,0.27,0.81,0.27,1.24c-0.01,0.59,0.04,1.17,0.35,1.71
			c0.05,0.09,0.12,0.23,0.09,0.31c-0.22,0.62,0.15,1.06,0.43,1.53c0.09,0.15,0.15,0.29-0.01,0.47c-0.58,0.66-1.36,0.86-2.19,0.54
			c-0.4-0.16-0.76-0.38-1.13-0.61c-0.24-0.15-0.41-0.41-0.7-0.47c-0.49-0.62-0.97-1.25-1.3-1.98c-0.73-1.62-0.51-2.7,0.86-3.85
			c0.42-0.36,0.87-0.7,1.32-1.02c0.48-0.35,1.02-0.5,1.62-0.35c0.51,0.08,0.96,0.29,1.38,0.57c0.13,0.09,0.25,0.18,0.43,0.15
			c0.84-0.14,1.69-0.26,2.54-0.05c0.06,0.01,0.13-0.01,0.19-0.03c0.52-0.14,1.04-0.13,1.55,0c0.5,0.12,0.91,0.04,1.33-0.26
			C30.53,30.5,31.07,30.36,31.64,30.37z M25.44,38.23c0.92-0.17,1.83-0.19,2.78-0.01C27.7,37.57,26.24,37.58,25.44,38.23z
			 M25.65,39.08c0.83-0.15,1.67-0.12,2.58,0.02C27.44,38.5,26.33,38.5,25.65,39.08z M25.53,35.91c-0.21-0.31-0.48-0.47-0.73-0.65
			c-0.12-0.08-0.25-0.18-0.39-0.07c-0.09,0.07-0.08,0.2-0.06,0.31c0.02,0.17,0.08,0.34,0.27,0.34C24.9,35.85,25.17,36,25.53,35.91z
			 M28.34,35.9c0.34,0.1,0.6-0.06,0.86-0.05c0.19,0,0.28-0.14,0.31-0.3c0.02-0.12,0.06-0.26-0.06-0.35
			c-0.17-0.13-0.3,0.01-0.42,0.09C28.8,35.46,28.53,35.6,28.34,35.9z"/>
		<path class="st3" d="M26.19,23.76c0,0.75-0.02,1.49,0.01,2.24c0.01,0.35-0.15,0.43-0.44,0.46c-0.28,0.03-0.5,0.05-0.61-0.32
			c-0.21-0.72-0.47-1.43-0.82-2.12c0.15,0.87,0.3,1.75,0.46,2.62c0.05,0.26,0.1,0.46-0.27,0.5c-0.31,0.04-0.49,0.02-0.54-0.36
			c-0.19-1.42-0.41-2.83-0.64-4.24c-0.06-0.38-0.01-0.57,0.42-0.62c0.7-0.09,0.7-0.12,0.91,0.55c0.26,0.81,0.51,1.62,0.88,2.41
			c0-0.92-0.01-1.83,0-2.75c0-0.17-0.09-0.44,0.16-0.49c0.32-0.06,0.65-0.19,0.98-0.11c0.13,0.03,0.11,0.21,0.13,0.33
			c0.23,1.48,0.44,2.96,0.68,4.43c0.05,0.34-0.11,0.4-0.37,0.45c-0.27,0.05-0.4-0.01-0.44-0.31c-0.1-0.9-0.23-1.79-0.34-2.68
			C26.3,23.75,26.24,23.75,26.19,23.76z"/>
		<path class="st3" d="M18.76,28.17c-0.51-0.69-1-1.39-1.53-2.07c-0.22-0.28-0.24-0.45,0.03-0.7c0.56-0.53,0.54-0.55,1.09-0.01
			c0.98,0.95,1.95,1.92,2.95,2.85c0.26,0.24,0.21,0.37-0.01,0.59c-0.22,0.23-0.35,0.22-0.56-0.01c-0.54-0.56-1.1-1.1-1.65-1.65
			c-0.09-0.1-0.19-0.21-0.34-0.38c0.03,0.27,0.15,0.36,0.25,0.46c0.36,0.51,0.69,1.03,1.07,1.52c0.22,0.28,0.18,0.43-0.05,0.67
			c-0.24,0.24-0.41,0.33-0.71,0.09c-0.33-0.27-0.7-0.49-1.06-0.73c-0.13-0.09-0.25-0.2-0.45-0.08c0.55,0.51,1.09,1.03,1.65,1.52
			c0.23,0.2,0.18,0.32-0.01,0.48c-0.16,0.13-0.25,0.42-0.56,0.12c-1.09-1.09-2.21-2.16-3.32-3.23c-0.16-0.15-0.17-0.25-0.01-0.42
			c0.61-0.69,0.6-0.7,1.33-0.18c0.6,0.42,1.2,0.83,1.8,1.25c0.04,0.03,0.12,0.09,0.12,0.08C18.86,28.27,18.82,28.22,18.76,28.17z"/>
		<path class="st3" d="M35.18,24.5c0,0.84-0.68,1.76-1.46,1.99c-0.2,0.06-0.19,0.19-0.21,0.32c-0.11,0.55-0.22,1.09-0.31,1.64
			c-0.04,0.26-0.1,0.33-0.38,0.2c-0.42-0.2-0.6-0.43-0.43-0.91c0.14-0.39,0.2-0.8,0.29-1.21c0.04-0.16,0.05-0.32-0.14-0.4
			c-0.23-0.1-0.26,0.12-0.33,0.24c-0.24,0.4-0.47,0.79-0.68,1.21c-0.18,0.36-0.36,0.09-0.53,0.01c-0.17-0.08-0.39-0.14-0.21-0.44
			c0.78-1.35,1.55-2.71,2.32-4.07c0.07-0.12,0.11-0.28,0.32-0.16c0.48,0.29,0.99,0.51,1.42,0.87C35.07,23.97,35.22,24.21,35.18,24.5
			z M33.7,23.93c-0.11-0.01-0.14,0.04-0.17,0.1c-0.23,0.4-0.45,0.8-0.68,1.2c-0.04,0.07-0.08,0.15,0.02,0.2
			c0.22,0.13,0.43,0.35,0.69,0.26c0.46-0.15,0.54-0.63,0.72-1c0.1-0.21-0.01-0.4-0.19-0.53C33.95,24.07,33.81,24,33.7,23.93z"/>
		<path class="st3" d="M29.78,21.76c1.19,0.03,1.64,0.6,1.4,1.76c-0.17,0.82-0.33,1.65-0.51,2.47c-0.25,1.18-1.39,1.56-2.33,0.79
			c-0.37-0.3-0.41-0.72-0.33-1.13c0.19-1,0.39-2,0.62-2.98C28.8,21.98,29.14,21.75,29.78,21.76z M28.85,25.83
			c-0.02,0.28,0.07,0.47,0.36,0.53c0.27,0.06,0.48-0.03,0.54-0.32c0.21-0.99,0.43-1.98,0.63-2.97c0.05-0.27-0.05-0.47-0.35-0.52
			c-0.27-0.05-0.48,0.03-0.54,0.32C29.27,23.85,29.06,24.84,28.85,25.83z"/>
		<path class="st3" d="M33.09,48.52c0,0.62-0.38,0.98-1.13,1.16c-0.52,0.13-0.93-0.05-1.18-0.56c-0.2-0.42-0.35-0.85-0.52-1.28
			c-0.29-0.74-0.56-1.49-0.87-2.22c-0.16-0.39,0.14-0.37,0.33-0.47c0.22-0.12,0.36-0.09,0.46,0.17c0.37,1,0.77,1.99,1.15,2.98
			c0.04,0.1,0.08,0.21,0.12,0.31c0.11,0.23,0.24,0.43,0.54,0.31c0.31-0.12,0.35-0.33,0.23-0.62c-0.41-1.05-0.81-2.11-1.23-3.16
			c-0.11-0.28-0.18-0.46,0.21-0.6c0.4-0.15,0.45,0.05,0.55,0.33c0.38,1,0.77,1.99,1.16,2.98C33.01,48.08,33.1,48.32,33.09,48.52z"/>
		<path class="st3" d="M27.59,47.11c0.07,0.71,0.14,1.42,0.21,2.14c0.03,0.28,0.11,0.5,0.45,0.49c0.39-0.02,0.36-0.3,0.32-0.55
			c-0.05-0.32,0.15-0.75-0.4-0.87c-0.12-0.03-0.08-0.29-0.06-0.44c0.02-0.14,0.16-0.13,0.27-0.14c0.84-0.13,0.89-0.08,0.95,0.75
			c0.04,0.52,0.07,1.05,0.12,1.57c0.03,0.31-0.2,0.42-0.36,0.31c-0.26-0.17-0.39-0.01-0.57,0.06c-0.75,0.33-1.37,0.04-1.49-0.76
			c-0.16-1.05-0.27-2.11-0.27-3.18c0-0.55,0.35-0.92,0.93-1.04c0.31-0.06,0.63-0.07,0.95-0.04c0.42,0.04,0.5,0.22,0.35,0.6
			c-0.07,0.19-0.13,0.28-0.33,0.19c-0.01-0.01-0.03-0.01-0.05-0.01C27.74,46.06,27.55,46.23,27.59,47.11z"/>
		<path class="st3" d="M25.87,46.25c-0.05,1.3-0.11,2.6-0.16,3.91c-0.01,0.14,0.05,0.38-0.21,0.3c-0.19-0.06-0.53,0.08-0.55-0.3
			c-0.01-0.14-0.01-0.29,0.01-0.43c0.04-0.29-0.05-0.43-0.36-0.49c-0.32-0.06-0.39,0.1-0.49,0.35c-0.08,0.2,0.07,0.6-0.41,0.53
			c-0.57-0.08-0.58-0.07-0.4-0.62c0.41-1.27,0.84-2.53,1.23-3.81c0.12-0.4,0.28-0.47,0.66-0.39C25.9,45.47,25.9,45.44,25.87,46.25z
			 M25.15,46.5c-0.03-0.01-0.06-0.02-0.09-0.03c-0.18,0.59-0.35,1.18-0.53,1.76c-0.06,0.19-0.06,0.3,0.17,0.33
			c0.21,0.03,0.32-0.01,0.34-0.26C25.06,47.7,25.11,47.1,25.15,46.5z"/>
		<path class="st3" d="M21.41,22.74c0.21,0.07,0.22,0.29,0.32,0.44c0.11,0.16-0.01,0.22-0.13,0.29c-0.06,0.03-0.11,0.06-0.17,0.09
			c-0.28,0.17-0.8,0.25-0.8,0.5c0,0.36,0.31,0.71,0.48,1.07c0.07,0.16,0.17,0.16,0.3,0.08c0.14-0.08,0.29-0.13,0.42-0.23
			c0.28-0.21,0.41-0.11,0.57,0.17c0.18,0.31,0.01,0.37-0.21,0.48c-0.64,0.34-0.64,0.34-0.31,0.98c0.38,0.74,0.38,0.74,1.18,0.31
			c0.3-0.16,0.55-0.32,0.72,0.16c0.08,0.22,0.05,0.3-0.15,0.4c-0.51,0.26-1.02,0.52-1.52,0.8c-0.2,0.11-0.3,0.08-0.41-0.12
			c-0.71-1.37-1.42-2.74-2.14-4.11c-0.09-0.18-0.14-0.31,0.09-0.42c0.54-0.27,1.07-0.56,1.61-0.84
			C21.31,22.79,21.35,22.77,21.41,22.74z"/>
		<path class="st3" d="M36.34,47.03c0,0.13-0.07,0.16-0.13,0.21c-0.47,0.33-0.94,0.66-1.4,1c-0.18,0.14-0.27,0.08-0.38-0.08
			c-0.86-1.21-1.71-2.42-2.58-3.62c-0.12-0.16-0.12-0.26,0.05-0.38c0.46-0.31,0.92-0.63,1.36-0.97c0.2-0.15,0.29-0.09,0.4,0.09
			c0.11,0.18,0.29,0.33,0,0.5c-0.1,0.06-0.18,0.13-0.27,0.19c-0.61,0.44-0.61,0.44-0.17,1.06c0.36,0.5,0.36,0.5,0.87,0.14
			c0.2-0.14,0.34-0.3,0.57,0.02c0.23,0.32,0.07,0.43-0.17,0.57c-0.34,0.2-0.57,0.36-0.2,0.81c0.59,0.71,0.55,0.74,1.34,0.2
			c0.11-0.08,0.22-0.26,0.36-0.16C36.15,46.71,36.24,46.9,36.34,47.03z"/>
		<path class="st3" d="M38.82,27.23c-0.99,0.54-1.92,1.06-2.87,1.54c-0.56,0.28-0.94,0.75-1.37,1.18c-0.25,0.24-0.37,0.07-0.48-0.09
			c-0.1-0.16-0.54-0.26-0.18-0.53c1.28-0.96,1.86-2.44,2.72-3.7c0.09-0.12,0.11-0.51,0.38-0.27c0.21,0.18,0.68,0.34,0.3,0.81
			c-0.42,0.51-0.78,1.06-1.1,1.67c0.5-0.32,1.03-0.61,1.5-0.97c0.37-0.28,0.63-0.26,0.88,0.12C38.65,27.05,38.72,27.11,38.82,27.23z
			"/>
		<path class="st3" d="M22.28,49.06c0.02,0.38-0.26,0.58-0.56,0.44c-0.46-0.21-0.92-0.43-1.39-0.63c-0.23-0.1-0.26-0.2-0.16-0.43
			c0.61-1.31,1.21-2.63,1.81-3.94c0.1-0.21,0.19-0.29,0.43-0.17c0.47,0.23,0.95,0.45,1.43,0.65c0.23,0.1,0.28,0.21,0.16,0.43
			c-0.1,0.19-0.17,0.4-0.44,0.22c-0.03-0.02-0.06-0.02-0.09-0.04c-0.91-0.4-0.9-0.39-1.31,0.5c-0.14,0.31-0.05,0.42,0.22,0.53
			c0.19,0.08,0.48,0.1,0.53,0.34c0.03,0.14-0.09,0.34-0.19,0.47c-0.12,0.15-0.26-0.01-0.38-0.06c-0.63-0.26-0.63-0.27-0.9,0.34
			c-0.33,0.73-0.33,0.73,0.42,1.08C22.01,48.86,22.24,48.87,22.28,49.06z"/>
		<path class="st3" d="M41.59,36.24c-0.32,0.23-0.63,0.49-0.96,0.7c-0.27,0.17-0.36,0.34-0.23,0.66c0.16,0.37,0.26,0.77,0.42,1.28
			c-0.46-0.33-0.83-0.57-1.17-0.85c-0.2-0.16-0.34-0.15-0.53,0.01c-0.33,0.27-0.69,0.5-1.09,0.79c0.06-0.5,0.23-0.89,0.37-1.29
			c0.09-0.25,0.06-0.4-0.17-0.55c-0.36-0.23-0.7-0.5-1.17-0.84c0.56,0,0.99-0.02,1.42,0.01c0.29,0.02,0.42-0.1,0.5-0.37
			c0.12-0.41,0.22-0.82,0.44-1.24c0.15,0.45,0.3,0.85,0.41,1.27c0.07,0.27,0.21,0.35,0.47,0.34c0.42-0.02,0.85,0,1.27,0
			C41.58,36.18,41.58,36.21,41.59,36.24z"/>
		<path class="st3" d="M15.94,38.74c-0.34-0.23-0.69-0.45-1.01-0.71c-0.2-0.16-0.34-0.14-0.54,0.01c-0.33,0.27-0.69,0.51-1.1,0.8
			c0.06-0.51,0.25-0.91,0.38-1.32c0.08-0.24,0.04-0.38-0.16-0.52c-0.36-0.24-0.69-0.5-1.1-0.8c0.45-0.11,0.84-0.07,1.22-0.05
			c0.36,0.02,0.55-0.07,0.63-0.45c0.08-0.38,0.24-0.75,0.4-1.22c0.17,0.51,0.31,0.92,0.44,1.34c0.07,0.23,0.18,0.34,0.43,0.32
			c0.43-0.02,0.86-0.01,1.35-0.01c-0.31,0.37-0.67,0.58-1.02,0.81c-0.26,0.17-0.32,0.34-0.2,0.63c0.14,0.35,0.22,0.73,0.33,1.09
			C15.98,38.7,15.96,38.72,15.94,38.74z"/>
		<path class="st3" d="M19.34,48.3c-0.13-0.09-0.25-0.16-0.36-0.25c-0.35-0.27-0.92-0.49-1-0.82c-0.08-0.35,0.43-0.72,0.69-1.09
			c0.63-0.9,1.3-1.77,1.92-2.68c0.19-0.28,0.32-0.21,0.52-0.04c0.18,0.15,0.41,0.23,0.17,0.54c-0.69,0.91-1.33,1.87-2.03,2.77
			c-0.31,0.4-0.16,0.58,0.18,0.75c0.41,0.2,0.32,0.43,0.07,0.68C19.45,48.22,19.4,48.26,19.34,48.3z"/>
		<path class="st3" d="M16,38.68c0.04,0.04,0.06,0.07,0.01,0.11c-0.01,0-0.04-0.04-0.06-0.06C15.96,38.72,15.98,38.7,16,38.68z"/>
		<path class="st3" d="M23.05,32.94c-0.04-0.04-0.13-0.07-0.08-0.13c0.05-0.06,0.14-0.04,0.17,0.05
			C23.11,32.89,23.08,32.91,23.05,32.94z"/>
		<path class="st3" d="M29.5,40.14c0.49,0.48,0.76,1.03,0.92,1.64c0.03,0.11,0.1,0.21-0.04,0.29c-0.13,0.07-0.21-0.02-0.28-0.11
			c-0.36-0.42-0.76-0.8-1.21-1.15C29.13,40.6,29.33,40.41,29.5,40.14z"/>
		<path class="st3" d="M24.52,40.04c0.12,0.2,0.21,0.35,0.3,0.5c0.11,0.19,0.11,0.36-0.07,0.5c-0.34,0.27-0.62,0.58-0.9,0.9
			c-0.07,0.08-0.15,0.18-0.28,0.12c-0.17-0.08-0.08-0.22-0.05-0.33C23.69,41.09,23.99,40.51,24.52,40.04z"/>
		<path class="st3" d="M18.99,27.26c-0.11-0.1-0.22-0.2-0.25-0.46c0.15,0.17,0.24,0.27,0.34,0.38
			C19.05,27.2,19.02,27.23,18.99,27.26z"/>
		<path class="st3" d="M18.76,28.17c0.06,0.05,0.1,0.11,0.04,0.18c-0.01,0.01-0.08-0.05-0.12-0.08
			C18.7,28.23,18.73,28.2,18.76,28.17z"/>
	</g>
</g>
</svg>
