<?xml version="1.0" encoding="utf-8"?>
<!-- Generator: Adobe Illustrator 26.0.3, SVG Export Plug-In . SVG Version: 6.00 Build 0)  -->
<svg version="1.1" id="Warstwa_1" xmlns="http://www.w3.org/2000/svg" xmlns:xlink="http://www.w3.org/1999/xlink" x="0px" y="0px"
	 viewBox="0 0 54 54" style="enable-background:new 0 0 54 54;" xml:space="preserve">
<style type="text/css">
	.st0{fill:#B2881F;}
</style>
<path class="st0" d="M29.6,3.07l4.5,13.85c0.37,1.13,1.41,1.89,2.6,1.89h14.56c2.65,0,3.75,3.39,1.61,4.94l-11.78,8.56
	c-0.96,0.7-1.36,1.93-0.99,3.06l4.5,13.85c0.82,2.52-2.06,4.61-4.2,3.06l-11.78-8.56c-0.96-0.7-2.25-0.7-3.21,0l-11.78,8.56
	c-2.14,1.56-5.02-0.54-4.2-3.06l4.5-13.85c0.37-1.13-0.03-2.36-0.99-3.06L1.13,23.76c-2.14-1.56-1.04-4.94,1.61-4.94H17.3
	c1.18,0,2.23-0.76,2.6-1.89l4.5-13.85C25.22,0.56,28.78,0.56,29.6,3.07z"/>
</svg>
