<?xml version="1.0" encoding="utf-8"?>
<!-- Generator: Adobe Illustrator 26.0.3, SVG Export Plug-In . SVG Version: 6.00 Build 0)  -->
<svg version="1.1" id="Warstwa_1" xmlns="http://www.w3.org/2000/svg" xmlns:xlink="http://www.w3.org/1999/xlink" x="0px" y="0px"
	 viewBox="0 0 517.15 517" style="enable-background:new 0 0 517.15 517;" xml:space="preserve">
<style type="text/css">
	.st0{fill:#336799;}
	.st1{fill:#FFFFFF;}
	.st2{fill:#FFFFFF;stroke:#FFFFFF;stroke-width:2;stroke-miterlimit:10;}
</style>
<g>
	<g>
		<path class="st0" d="M258.57,517.07L258.57,517.07C115.77,517.07,0,401.31,0,258.5v0C0,115.69,115.77-0.07,258.57-0.07h0
			c142.81,0,258.57,115.77,258.57,258.57v0C517.15,401.31,401.38,517.07,258.57,517.07z"/>
		<g>
			<g>
				<rect x="257.57" y="482.17" class="st1" width="1" height="1"/>
				
					<rect x="256.57" y="482.17" transform="matrix(5.267893e-03 -1 1 5.267893e-03 -226.9431 737.1987)" class="st1" width="1" height="1"/>
				<polygon class="st1" points="256.57,483.17 253.56,483.13 253.59,482.11 256.58,482.16 				"/>
				
					<rect x="242.56" y="481.65" transform="matrix(0.0668 -0.9978 0.9978 0.0668 -254.2325 692.4656)" class="st1" width="1.04" height="1"/>
				
					<rect x="241.56" y="481.58" transform="matrix(0.0712 -0.9975 0.9975 0.0712 -256.0145 689.2031)" class="st1" width="1.04" height="1"/>
				<polygon class="st1" points="241.55,482.56 238.55,482.32 238.64,481.27 241.63,481.52 				"/>
				<polygon class="st1" points="228.58,481.27 227.59,481.14 227.75,479.98 228.73,480.12 				"/>
				<polygon class="st1" points="227.59,481.14 226.59,481.01 226.76,479.84 227.75,479.98 				"/>
				<polygon class="st1" points="226.59,481.01 223.61,480.58 223.8,479.38 226.76,479.84 				"/>
				<polygon class="st1" points="213.73,478.89 212.74,478.7 213.03,477.34 214,477.54 				"/>
				<polygon class="st1" points="212.74,478.7 211.76,478.5 212.05,477.12 213.03,477.34 				"/>
				<polygon class="st1" points="211.76,478.5 208.81,477.89 209.14,476.45 212.05,477.12 				"/>
				<polygon class="st1" points="199.05,475.56 198.08,475.3 198.54,473.66 199.49,473.94 				"/>
				<polygon class="st1" points="198.08,475.3 197.11,475.05 197.58,473.38 198.54,473.66 				"/>
				<polygon class="st1" points="197.11,475.05 194.21,474.24 194.72,472.5 197.58,473.38 				"/>
				<polygon class="st1" points="184.6,471.29 183.65,470.97 184.35,468.97 185.29,469.32 				"/>
				<polygon class="st1" points="183.65,470.97 182.69,470.65 183.42,468.62 184.35,468.97 				"/>
				<polygon class="st1" points="182.69,470.65 179.84,469.67 180.63,467.54 183.42,468.62 				"/>
				<polygon class="st1" points="170.43,466.12 169.5,465.74 170.56,463.28 171.46,463.69 				"/>
				<polygon class="st1" points="169.5,465.74 168.57,465.36 169.66,462.87 170.56,463.28 				"/>
				<polygon class="st1" points="168.57,465.36 165.79,464.18 166.95,461.61 169.66,462.87 				"/>
				<polygon class="st1" points="156.63,460 155.73,459.56 157.2,456.69 158.08,457.15 				"/>
				<polygon class="st1" points="155.73,459.56 154.82,459.11 156.33,456.22 157.2,456.69 				"/>
				<polygon class="st1" points="154.82,459.11 152.12,457.76 153.72,454.77 156.33,456.22 				"/>
				<polygon class="st1" points="143.23,453 142.36,452.5 144.35,449.18 145.19,449.7 				"/>
				<polygon class="st1" points="142.36,452.5 141.48,452 143.52,448.64 144.35,449.18 				"/>
				<polygon class="st1" points="141.48,452 138.87,450.47 141.02,447.03 143.52,448.64 				"/>
				<polygon class="st1" points="130.31,445.12 129.46,444.57 132.06,440.83 132.87,441.41 				"/>
				<polygon class="st1" points="129.46,444.57 128.62,444.01 131.27,440.24 132.06,440.83 				"/>
				<polygon class="st1" points="128.62,444.01 126.11,442.3 128.89,438.46 131.27,440.24 				"/>
				<polygon class="st1" points="117.91,436.39 117.11,435.78 120.38,431.68 121.14,432.32 				"/>
				<polygon class="st1" points="117.11,435.78 116.31,435.16 119.62,431.05 120.38,431.68 				"/>
				<polygon class="st1" points="116.31,435.16 113.91,433.3 117.37,429.12 119.62,431.05 				"/>
				<polygon class="st1" points="106.11,426.84 105.35,426.18 109.35,421.8 110.06,422.48 				"/>
				<polygon class="st1" points="105.35,426.18 104.59,425.51 108.64,421.12 109.35,421.8 				"/>
				<polygon class="st1" points="104.59,425.51 102.32,423.48 106.53,419.05 108.64,421.12 				"/>
				<polygon class="st1" points="94.97,416.5 94.25,415.78 99,411.24 99.67,411.96 				"/>
				<polygon class="st1" points="94.25,415.78 93.54,415.06 98.33,410.51 99,411.24 				"/>
				<polygon class="st1" points="93.54,415.06 91.42,412.88 96.36,408.31 98.33,410.51 				"/>
				<polygon class="st1" points="84.55,405.4 83.88,404.64 89.37,400.04 89.98,400.81 				"/>
				<polygon class="st1" points="83.88,404.64 83.21,403.87 88.75,399.27 89.37,400.04 				"/>
				<polygon class="st1" points="83.21,403.87 81.24,401.55 86.93,396.95 88.75,399.27 				"/>
				<polygon class="st1" points="74.89,393.61 74.28,392.79 80.49,388.26 81.06,389.06 				"/>
				<polygon class="st1" points="74.28,392.79 73.67,391.98 79.92,387.46 80.49,388.26 				"/>
				<polygon class="st1" points="73.67,391.98 71.86,389.52 78.24,385.04 79.92,387.46 				"/>
				<polygon class="st1" points="66.09,381.14 65.53,380.29 72.37,375.96 72.89,376.8 				"/>
				<polygon class="st1" points="65.53,380.29 64.97,379.44 71.86,375.13 72.37,375.96 				"/>
				<polygon class="st1" points="64.97,379.44 63.34,376.86 70.35,372.6 71.86,375.13 				"/>
				<polygon class="st1" points="58.13,368.11 57.63,367.22 65.11,363.16 65.56,364.03 				"/>
				<polygon class="st1" points="57.63,367.22 57.13,366.33 64.65,362.3 65.11,363.16 				"/>
				<polygon class="st1" points="57.13,366.33 55.68,363.64 63.3,359.68 64.65,362.3 				"/>
				<polygon class="st1" points="51.12,354.52 50.69,353.6 58.65,349.95 59.05,350.85 				"/>
				<polygon class="st1" points="50.69,353.6 50.26,352.68 58.25,349.06 58.65,349.95 				"/>
				<polygon class="st1" points="50.26,352.68 48.99,349.9 57.08,346.36 58.25,349.06 				"/>
				<polygon class="st1" points="45.08,340.48 44.71,339.52 53.05,336.36 53.4,337.28 				"/>
				<polygon class="st1" points="44.71,339.52 44.35,338.57 52.71,335.45 53.05,336.36 				"/>
				<polygon class="st1" points="44.35,338.57 43.29,335.7 51.71,332.68 52.71,335.45 				"/>
				<polygon class="st1" points="40.04,326.04 39.75,325.06 48.34,322.45 48.63,323.39 				"/>
				<polygon class="st1" points="39.75,325.06 39.45,324.08 48.06,321.51 48.34,322.45 				"/>
				<polygon class="st1" points="39.45,324.08 38.6,321.15 47.23,318.69 48.06,321.51 				"/>
				<polygon class="st1" points="36.05,311.27 35.82,310.28 44.52,308.27 44.75,309.22 				"/>
				<polygon class="st1" points="35.82,310.28 35.6,309.29 44.3,307.31 44.52,308.27 				"/>
				<polygon class="st1" points="35.6,309.29 34.95,306.3 43.67,304.44 44.3,307.31 				"/>
				<polygon class="st1" points="33.07,296.27 32.9,295.27 41.67,293.85 41.83,294.82 				"/>
				<polygon class="st1" points="32.9,295.27 32.74,294.26 41.51,292.88 41.67,293.85 				"/>
				<polygon class="st1" points="32.74,294.26 32.29,291.23 41.07,289.98 41.51,292.88 				"/>
				<polygon class="st1" points="31.15,281.1 31.06,280.09 39.71,279.28 39.82,280.25 				"/>
				<polygon class="st1" points="31.06,280.09 30.98,279.07 39.62,278.3 39.71,279.28 				"/>
				<polygon class="st1" points="30.98,279.07 30.75,276.02 39.35,275.37 39.62,278.3 				"/>
				<polygon class="st1" points="30.29,265.85 30.27,264.83 38.7,264.6 38.73,265.58 				"/>
				<polygon class="st1" points="30.27,264.83 30.25,263.81 38.66,263.62 38.7,264.6 				"/>
				<polygon class="st1" points="30.25,263.81 30.23,260.76 38.59,260.68 38.66,263.62 				"/>
				<polygon class="st1" points="30.45,250.58 30.51,249.57 38.63,249.88 38.61,250.86 				"/>
				<polygon class="st1" points="30.51,249.57 30.56,248.55 38.65,248.9 38.63,249.88 				"/>
				<polygon class="st1" points="30.56,248.55 30.76,245.5 38.76,245.95 38.65,248.9 				"/>
				<polygon class="st1" points="31.69,235.37 31.81,234.36 39.47,235.16 39.38,236.14 				"/>
				<polygon class="st1" points="31.81,234.36 31.94,233.35 39.56,234.19 39.47,235.16 				"/>
				<polygon class="st1" points="31.94,233.35 32.33,230.32 39.86,231.25 39.56,234.19 				"/>
				<polygon class="st1" points="33.94,220.28 34.13,219.28 41.29,220.53 41.14,221.5 				"/>
				<polygon class="st1" points="34.13,219.28 34.32,218.29 41.44,219.55 41.29,220.53 				"/>
				<polygon class="st1" points="34.32,218.29 34.93,215.3 41.93,216.64 41.44,219.55 				"/>
				<polygon class="st1" points="37.24,205.41 37.5,204.42 44.04,206.02 43.83,206.98 				"/>
				<polygon class="st1" points="37.5,204.42 37.76,203.44 44.26,205.06 44.04,206.02 				"/>
				<polygon class="st1" points="37.76,203.44 38.56,200.51 44.94,202.18 44.26,205.06 				"/>
				<polygon class="st1" points="41.53,190.8 41.85,189.84 47.77,191.71 47.49,192.66 				"/>
				<polygon class="st1" points="41.85,189.84 42.18,188.88 48.05,190.77 47.77,191.71 				"/>
				<polygon class="st1" points="42.18,188.88 43.18,186.01 48.92,187.94 48.05,190.77 				"/>
				<polygon class="st1" points="46.79,176.54 47.18,175.6 52.45,177.67 52.11,178.6 				"/>
				<polygon class="st1" points="47.18,175.6 47.57,174.67 52.8,176.75 52.45,177.67 				"/>
				<polygon class="st1" points="47.57,174.67 48.76,171.87 53.86,173.99 52.8,176.75 				"/>
				<polygon class="st1" points="53,162.68 53.44,161.78 58.08,163.97 57.68,164.87 				"/>
				<polygon class="st1" points="53.44,161.78 53.89,160.87 58.49,163.07 58.08,163.97 				"/>
				<polygon class="st1" points="53.89,160.87 55.26,158.17 59.73,160.38 58.49,163.07 				"/>
				<polygon class="st1" points="60.08,149.28 60.58,148.41 64.65,150.67 64.18,151.54 				"/>
				<polygon class="st1" points="60.58,148.41 61.09,147.53 65.12,149.8 64.65,150.67 				"/>
				<polygon class="st1" points="61.09,147.53 62.63,144.92 66.55,147.2 65.12,149.8 				"/>
				<polygon class="st1" points="68.03,136.39 68.59,135.55 72.11,137.83 71.59,138.67 				"/>
				<polygon class="st1" points="68.59,135.55 69.15,134.71 72.64,136.99 72.11,137.83 				"/>
				<polygon class="st1" points="69.15,134.71 70.86,132.22 74.24,134.49 72.64,136.99 				"/>
				<polygon class="st1" points="76.78,124.05 77.39,123.24 80.45,125.53 79.87,126.34 				"/>
				<polygon class="st1" points="77.39,123.24 78,122.44 81.04,124.74 80.45,125.53 				"/>
				<polygon class="st1" points="78,122.44 79.86,120.06 82.83,122.36 81.04,124.74 				"/>
				<polygon class="st1" points="86.29,112.3 86.96,111.54 89.63,113.83 89,114.6 				"/>
				<polygon class="st1" points="86.96,111.54 87.62,110.78 90.27,113.08 89.63,113.83 				"/>
				<polygon class="st1" points="87.62,110.78 89.64,108.53 92.21,110.82 90.27,113.08 				"/>
				<polygon class="st1" points="96.55,101.21 97.26,100.5 99.59,102.78 98.9,103.49 				"/>
				<polygon class="st1" points="97.26,100.5 97.97,99.78 100.28,102.07 99.59,102.78 				"/>
				<polygon class="st1" points="97.97,99.78 100.11,97.65 102.38,99.95 100.28,102.07 				"/>
				<polygon class="st1" points="107.47,90.77 108.22,90.1 110.32,92.45 109.58,93.12 				"/>
				<polygon class="st1" points="108.22,90.1 108.97,89.44 111.06,91.79 110.32,92.45 				"/>
				<polygon class="st1" points="108.97,89.44 111.25,87.46 113.29,89.83 111.06,91.79 				"/>
				<polygon class="st1" points="119.04,81.08 119.84,80.46 121.71,82.87 120.93,83.48 				"/>
				<polygon class="st1" points="119.84,80.46 120.63,79.85 122.5,82.26 121.71,82.87 				"/>
				<polygon class="st1" points="120.63,79.85 123.04,78.03 124.86,80.44 122.5,82.26 				"/>
				<polygon class="st1" points="131.21,72.15 132.04,71.58 133.75,74.1 132.93,74.65 				"/>
				<polygon class="st1" points="132.04,71.58 132.88,71.02 134.57,73.54 133.75,74.1 				"/>
				<polygon class="st1" points="132.88,71.02 135.39,69.34 137.06,71.91 134.57,73.54 				"/>
				<polygon class="st1" points="143.93,64.01 144.8,63.5 146.37,66.19 145.51,66.69 				"/>
				<polygon class="st1" points="144.8,63.5 145.66,62.99 147.23,65.69 146.37,66.19 				"/>
				<polygon class="st1" points="145.66,62.99 148.28,61.49 149.82,64.22 147.23,65.69 				"/>
				<polygon class="st1" points="157.16,56.74 158.06,56.28 159.48,59.14 158.59,59.58 				"/>
				<polygon class="st1" points="158.06,56.28 158.96,55.83 160.37,58.7 159.48,59.14 				"/>
				<polygon class="st1" points="158.96,55.83 161.67,54.5 163.06,57.42 160.37,58.7 				"/>
				<polygon class="st1" points="170.83,50.31 171.76,49.92 173.06,53.05 172.15,53.42 				"/>
				<polygon class="st1" points="171.76,49.92 172.69,49.52 173.98,52.67 173.06,53.05 				"/>
				<polygon class="st1" points="172.69,49.52 175.48,48.37 176.75,51.58 173.98,52.67 				"/>
				<polygon class="st1" points="184.91,44.8 185.86,44.47 187.02,47.9 186.08,48.21 				"/>
				<polygon class="st1" points="185.86,44.47 186.81,44.14 187.96,47.59 187.02,47.9 				"/>
				<polygon class="st1" points="186.81,44.14 189.68,43.18 190.8,46.68 187.96,47.59 				"/>
				<polygon class="st1" points="199.32,40.23 200.29,39.96 201.29,43.73 200.33,43.97 				"/>
				<polygon class="st1" points="200.29,39.96 201.26,39.69 202.25,43.49 201.29,43.73 				"/>
				<polygon class="st1" points="201.26,39.69 204.18,38.91 205.14,42.79 202.25,43.49 				"/>
				<polygon class="st1" points="214,36.6 214.99,36.39 215.81,40.57 214.83,40.75 				"/>
				<polygon class="st1" points="214.99,36.39 215.98,36.19 216.78,40.39 215.81,40.57 				"/>
				<polygon class="st1" points="215.98,36.19 218.95,35.6 219.71,39.89 216.78,40.39 				"/>
				<polygon class="st1" points="228.91,33.95 229.91,33.8 230.5,38.4 229.51,38.51 				"/>
				<polygon class="st1" points="229.91,33.8 230.92,33.66 231.48,38.3 230.5,38.4 				"/>
				<polygon class="st1" points="230.92,33.66 233.92,33.27 234.43,38 231.48,38.3 				"/>
				<polygon class="st1" points="243.98,32.26 244.99,32.18 245.29,37.26 244.3,37.3 				"/>
				<polygon class="st1" points="244.99,32.18 246,32.11 246.28,37.22 245.29,37.26 				"/>
				<polygon class="st1" points="246,32.11 249.03,31.92 249.24,37.12 246.28,37.22 				"/>
				<polygon class="st1" points="259.14,31.58 260.15,31.57 260.11,37.09 259.12,37.07 				"/>
				<polygon class="st1" points="260.15,31.57 261.16,31.56 261.1,37.12 260.11,37.09 				"/>
				<polygon class="st1" points="261.16,31.56 264.2,31.57 264.06,37.22 261.1,37.12 				"/>
				<polygon class="st1" points="274.33,31.88 275.34,31.94 274.9,37.91 273.92,37.83 				"/>
				<polygon class="st1" points="275.34,31.94 276.35,32 275.88,38 274.9,37.91 				"/>
				<polygon class="st1" points="276.35,32 279.38,32.21 278.83,38.29 275.88,38 				"/>
				<polygon class="st1" points="289.48,33.2 290.48,33.32 289.59,39.71 288.61,39.56 				"/>
				<polygon class="st1" points="290.48,33.32 291.49,33.45 290.56,39.86 289.59,39.71 				"/>
				<polygon class="st1" points="291.49,33.45 294.51,33.86 293.48,40.35 290.56,39.86 				"/>
				<polygon class="st1" points="304.52,35.53 305.52,35.72 304.1,42.48 303.14,42.26 				"/>
				<polygon class="st1" points="305.52,35.72 306.51,35.91 305.06,42.7 304.1,42.48 				"/>
				<polygon class="st1" points="306.51,35.91 309.5,36.53 307.93,43.38 305.06,42.7 				"/>
				<polygon class="st1" points="319.39,38.86 320.37,39.12 318.38,46.21 317.44,45.93 				"/>
				<polygon class="st1" points="320.37,39.12 321.36,39.38 319.32,46.5 318.38,46.21 				"/>
				<polygon class="st1" points="321.36,39.38 324.3,40.2 322.14,47.37 319.32,46.5 				"/>
				<polygon class="st1" points="334.01,43.23 334.97,43.56 332.38,50.86 331.45,50.53 				"/>
				<polygon class="st1" points="334.97,43.56 335.94,43.89 333.3,51.21 332.38,50.86 				"/>
				<polygon class="st1" points="335.94,43.89 338.81,44.91 336.05,52.26 333.3,51.21 				"/>
				<polygon class="st1" points="348.3,48.6 349.24,48.99 346.01,56.43 345.12,56.03 				"/>
				<polygon class="st1" points="349.24,48.99 350.18,49.38 346.91,56.83 346.01,56.43 				"/>
				<polygon class="st1" points="350.18,49.38 352.98,50.59 349.58,58.07 346.91,56.83 				"/>
				<polygon class="st1" points="362.2,54.92 363.11,55.38 359.24,62.88 358.38,62.42 				"/>
				<polygon class="st1" points="363.11,55.38 364.02,55.84 360.11,63.34 359.24,62.88 				"/>
				<polygon class="st1" points="364.02,55.84 366.73,57.25 362.7,64.74 360.11,63.34 				"/>
				<polygon class="st1" points="375.63,62.21 376.51,62.73 372.02,70.16 371.19,69.65 				"/>
				<polygon class="st1" points="376.51,62.73 377.39,63.25 372.86,70.68 372.02,70.16 				"/>
				<polygon class="st1" points="377.39,63.25 380,64.84 375.35,72.25 372.86,70.68 				"/>
				<polygon class="st1" points="388.56,70.38 389.4,70.96 384.28,78.28 383.48,77.71 				"/>
				<polygon class="st1" points="389.4,70.96 390.24,71.54 385.08,78.85 384.28,78.28 				"/>
				<polygon class="st1" points="390.24,71.54 392.74,73.3 387.45,80.58 385.08,78.85 				"/>
				<polygon class="st1" points="400.9,79.42 401.7,80.05 395.97,87.18 395.21,86.56 				"/>
				<polygon class="st1" points="401.7,80.05 402.5,80.69 396.73,87.8 395.97,87.18 				"/>
				<polygon class="st1" points="402.5,80.69 404.87,82.61 398.99,89.68 396.73,87.8 				"/>
				<polygon class="st1" points="412.61,89.27 413.36,89.95 407.05,96.82 406.33,96.16 				"/>
				<polygon class="st1" points="413.36,89.95 414.12,90.64 407.76,97.49 407.05,96.82 				"/>
				<polygon class="st1" points="414.12,90.64 416.36,92.72 409.89,99.51 407.76,97.49 				"/>
				<polygon class="st1" points="423.64,99.87 424.35,100.61 417.46,107.18 416.79,106.47 				"/>
				<polygon class="st1" points="424.35,100.61 425.06,101.34 418.13,107.89 417.46,107.18 				"/>
				<polygon class="st1" points="425.06,101.34 427.16,103.57 420.11,110.05 418.13,107.89 				"/>
				<polygon class="st1" points="433.95,111.2 434.61,111.98 427.15,118.2 426.53,117.44 				"/>
				<polygon class="st1" points="434.61,111.98 435.27,112.76 427.77,118.95 427.15,118.2 				"/>
				<polygon class="st1" points="435.27,112.76 437.22,115.12 429.61,121.24 427.77,118.95 				"/>
				<polygon class="st1" points="443.49,123.19 444.1,124.01 436.08,129.83 435.51,129.04 				"/>
				<polygon class="st1" points="444.1,124.01 444.7,124.83 436.65,130.63 436.08,129.83 				"/>
				<polygon class="st1" points="444.7,124.83 446.49,127.32 438.33,133.03 436.65,130.63 				"/>
				<polygon class="st1" points="452.21,135.8 452.76,136.66 444.23,142.02 443.71,141.19 				"/>
				<polygon class="st1" points="452.76,136.66 453.3,137.52 444.74,142.85 444.23,142.02 				"/>
				<polygon class="st1" points="453.3,137.52 454.92,140.13 446.26,145.36 444.74,142.85 				"/>
				<polygon class="st1" points="460.05,148.97 460.54,149.87 451.54,154.72 451.08,153.86 				"/>
				<polygon class="st1" points="460.54,149.87 461.03,150.77 452,155.58 451.54,154.72 				"/>
				<polygon class="st1" points="461.03,150.77 462.47,153.48 453.35,158.18 452,155.58 				"/>
				<polygon class="st1" points="467,162.65 467.43,163.58 457.99,167.87 457.59,166.98 				"/>
				<polygon class="st1" points="467.43,163.58 467.86,164.51 458.39,168.77 457.99,167.87 				"/>
				<polygon class="st1" points="467.86,164.51 469.11,167.31 459.56,171.45 458.39,168.77 				"/>
				<polygon class="st1" points="473.02,176.77 473.39,177.72 463.54,181.43 463.2,180.51 				"/>
				<polygon class="st1" points="473.39,177.72 473.75,178.68 463.87,182.34 463.54,181.43 				"/>
				<polygon class="st1" points="473.75,178.68 474.81,181.56 464.86,185.1 463.87,182.34 				"/>
				<polygon class="st1" points="478.06,191.26 478.35,192.24 468.17,195.31 467.89,194.37 				"/>
				<polygon class="st1" points="478.35,192.24 478.65,193.22 468.45,196.24 468.17,195.31 				"/>
				<polygon class="st1" points="478.65,193.22 479.5,196.17 469.26,199.05 468.45,196.24 				"/>
				<polygon class="st1" points="482.06,206.08 482.29,207.08 471.91,209.46 471.69,208.5 				"/>
				<polygon class="st1" points="482.29,207.08 482.52,208.08 472.12,210.41 471.91,209.46 				"/>
				<polygon class="st1" points="482.52,208.08 483.17,211.08 472.74,213.27 472.12,210.41 				"/>
				<polygon class="st1" points="485.06,221.14 485.22,222.15 474.68,223.83 474.53,222.86 				"/>
				<polygon class="st1" points="485.22,222.15 485.38,223.16 474.83,224.79 474.68,223.83 				"/>
				<polygon class="st1" points="485.38,223.16 485.83,226.2 475.26,227.69 474.83,224.79 				"/>
				<polygon class="st1" points="487.04,236.36 487.14,237.38 476.49,238.35 476.4,237.38 				"/>
				<polygon class="st1" points="487.14,237.38 487.23,238.4 476.57,239.33 476.49,238.35 				"/>
				<polygon class="st1" points="487.23,238.4 487.48,241.46 476.81,242.25 476.57,239.33 				"/>
				<polygon class="st1" points="488.01,251.68 488.04,252.7 477.32,252.97 477.3,252 				"/>
				<polygon class="st1" points="488.04,252.7 488.06,253.73 477.35,253.94 477.32,252.97 				"/>
				<polygon class="st1" points="488.06,253.73 488.08,256.79 477.4,256.87 477.35,253.94 				"/>
				<polygon class="st1" points="487.89,267.03 487.84,268.05 477.28,267.62 477.31,266.64 				"/>
				<polygon class="st1" points="487.84,268.05 487.79,269.07 477.24,268.59 477.28,267.62 				"/>
				<polygon class="st1" points="487.79,269.07 487.62,272.14 477.1,271.52 477.24,268.59 				"/>
				<polygon class="st1" points="486.75,282.33 486.64,283.35 476.26,282.23 476.36,281.26 				"/>
				<polygon class="st1" points="486.64,283.35 486.52,284.37 476.16,283.2 476.26,282.23 				"/>
				<polygon class="st1" points="486.52,284.37 486.14,287.41 475.83,286.12 476.16,283.2 				"/>
				<polygon class="st1" points="484.59,297.53 484.41,298.53 474.28,296.75 474.44,295.79 				"/>
				<polygon class="st1" points="484.41,298.53 484.23,299.54 474.11,297.71 474.28,296.75 				"/>
				<polygon class="st1" points="484.23,299.54 483.65,302.55 473.58,300.6 474.11,297.71 				"/>
				<polygon class="st1" points="481.42,312.54 481.18,313.53 471.32,311.1 471.55,310.15 				"/>
				<polygon class="st1" points="481.18,313.53 480.92,314.52 471.09,312.05 471.32,311.1 				"/>
				<polygon class="st1" points="480.92,314.52 480.14,317.49 470.37,314.89 471.09,312.05 				"/>
				<polygon class="st1" points="477.25,327.3 476.94,328.27 467.4,325.23 467.69,324.3 				"/>
				<polygon class="st1" points="476.94,328.27 476.62,329.24 467.11,326.16 467.4,325.23 				"/>
				<polygon class="st1" points="476.62,329.24 475.62,332.15 466.22,328.95 467.11,326.16 				"/>
				<polygon class="st1" points="472.03,341.71 471.64,342.66 462.62,339.09 462.97,338.18 				"/>
				<polygon class="st1" points="471.64,342.66 471.25,343.61 462.27,340.01 462.62,339.09 				"/>
				<polygon class="st1" points="471.25,343.61 470.07,346.43 461.19,342.73 462.27,340.01 				"/>
				<polygon class="st1" points="465.84,355.73 465.39,356.64 456.91,352.61 457.32,351.72 				"/>
				<polygon class="st1" points="465.39,356.64 464.94,357.56 456.5,353.5 456.91,352.61 				"/>
				<polygon class="st1" points="464.94,357.56 463.57,360.3 455.24,356.15 456.5,353.5 				"/>
				<polygon class="st1" points="458.71,369.27 458.19,370.15 450.33,365.75 450.79,364.88 				"/>
				<polygon class="st1" points="458.19,370.15 457.68,371.03 449.86,366.61 450.33,365.75 				"/>
				<polygon class="st1" points="457.68,371.03 456.11,373.66 448.44,369.18 449.86,366.61 				"/>
				<polygon class="st1" points="450.63,382.26 450.06,383.1 442.93,378.45 443.45,377.62 				"/>
				<polygon class="st1" points="450.06,383.1 449.49,383.94 442.41,379.28 442.93,378.45 				"/>
				<polygon class="st1" points="449.49,383.94 447.75,386.46 440.82,381.76 442.41,379.28 				"/>
				<polygon class="st1" points="441.71,394.66 441.09,395.46 434.69,390.65 435.27,389.86 				"/>
				<polygon class="st1" points="441.09,395.46 440.46,396.26 434.12,391.45 434.69,390.65 				"/>
				<polygon class="st1" points="440.46,396.26 438.55,398.64 432.37,393.82 434.12,391.45 				"/>
				<polygon class="st1" points="431.95,406.37 431.27,407.13 425.71,402.34 426.33,401.58 				"/>
				<polygon class="st1" points="431.27,407.13 430.59,407.88 425.09,403.1 425.71,402.34 				"/>
				<polygon class="st1" points="430.59,407.88 428.52,410.12 423.19,405.36 425.09,403.1 				"/>
				<polygon class="st1" points="421.43,417.39 420.7,418.1 415.96,413.43 416.64,412.71 				"/>
				<polygon class="st1" points="420.7,418.1 419.97,418.8 415.29,414.15 415.96,413.43 				"/>
				<polygon class="st1" points="419.97,418.8 417.77,420.9 413.24,416.28 415.29,414.15 				"/>
				<polygon class="st1" points="410.22,427.67 409.45,428.32 405.48,423.86 406.2,423.19 				"/>
				<polygon class="st1" points="409.45,428.32 408.67,428.98 404.76,424.53 405.48,423.86 				"/>
				<polygon class="st1" points="408.67,428.98 406.34,430.92 402.57,426.53 404.76,424.53 				"/>
				<polygon class="st1" points="398.36,437.16 397.55,437.76 394.31,433.59 395.08,432.97 				"/>
				<polygon class="st1" points="397.55,437.76 396.74,438.36 393.55,434.21 394.31,433.59 				"/>
				<polygon class="st1" points="396.74,438.36 394.28,440.14 391.23,436.06 393.55,434.21 				"/>
				<polygon class="st1" points="385.92,445.83 385.07,446.38 382.5,442.57 383.31,441.99 				"/>
				<polygon class="st1" points="385.07,446.38 384.22,446.92 381.69,443.14 382.5,442.57 				"/>
				<polygon class="st1" points="384.22,446.92 381.66,448.53 379.25,444.83 381.69,443.14 				"/>
				<polygon class="st1" points="372.95,453.64 372.07,454.13 370.1,450.75 370.95,450.23 				"/>
				<polygon class="st1" points="372.07,454.13 371.18,454.61 369.26,451.27 370.1,450.75 				"/>
				<polygon class="st1" points="371.18,454.61 368.52,456.05 366.7,452.79 369.26,451.27 				"/>
				<polygon class="st1" points="359.51,460.57 358.6,461.01 357.15,458.07 358.03,457.61 				"/>
				<polygon class="st1" points="358.6,461.01 357.69,461.43 356.27,458.52 357.15,458.07 				"/>
				<polygon class="st1" points="357.69,461.43 354.95,462.69 353.61,459.87 356.27,458.52 				"/>
				<polygon class="st1" points="345.68,466.62 344.74,466.99 343.7,464.48 344.61,464.08 				"/>
				<polygon class="st1" points="344.74,466.99 343.8,467.35 342.79,464.88 343.7,464.48 				"/>
				<polygon class="st1" points="343.8,467.35 340.98,468.42 340.05,466.04 342.79,464.88 				"/>
				<polygon class="st1" points="331.49,471.72 330.53,472.03 329.83,469.96 330.77,469.63 				"/>
				<polygon class="st1" points="330.53,472.03 329.57,472.34 328.89,470.29 329.83,469.96 				"/>
				<polygon class="st1" points="329.57,472.34 326.7,473.23 326.07,471.24 328.89,470.29 				"/>
				<polygon class="st1" points="317.03,475.93 316.05,476.18 315.59,474.42 316.55,474.15 				"/>
				<polygon class="st1" points="316.05,476.18 315.08,476.42 314.63,474.68 315.59,474.42 				"/>
				<polygon class="st1" points="315.08,476.42 312.15,477.12 311.74,475.45 314.63,474.68 				"/>
				<polygon class="st1" points="302.33,479.16 301.34,479.34 301.06,477.92 302.04,477.72 				"/>
				<polygon class="st1" points="301.34,479.34 300.35,479.51 300.09,478.12 301.06,477.92 				"/>
				<polygon class="st1" points="300.35,479.51 297.38,480.02 297.15,478.68 300.09,478.12 				"/>
				<polygon class="st1" points="287.46,481.45 286.46,481.57 286.32,480.37 287.3,480.23 				"/>
				<polygon class="st1" points="286.46,481.57 285.47,481.68 285.33,480.49 286.32,480.37 				"/>
				<polygon class="st1" points="285.47,481.68 282.48,482 282.36,480.85 285.33,480.49 				"/>
				
					<rect x="271.45" y="481.75" transform="matrix(0.9984 -0.0559 0.0559 0.9984 -26.5336 15.9557)" class="st1" width="1" height="1.07"/>
				
					<rect x="270.45" y="481.8" transform="matrix(0.9987 -0.0515 0.0515 0.9987 -24.4888 14.5992)" class="st1" width="1" height="1.07"/>
				<polygon class="st1" points="270.48,482.9 267.48,483.03 267.44,481.98 270.43,481.83 				"/>
			</g>
		</g>
		<g>
			<g>
				<rect x="257.57" y="482.17" class="st1" width="1" height="1"/>
				
					<rect x="256.57" y="482.17" transform="matrix(5.267893e-03 -1 1 5.267893e-03 -226.9431 737.1987)" class="st1" width="1" height="1"/>
				<polygon class="st1" points="256.57,483.17 253.56,483.13 253.59,482.11 256.58,482.16 				"/>
				
					<rect x="242.56" y="481.65" transform="matrix(0.0668 -0.9978 0.9978 0.0668 -254.2325 692.4656)" class="st1" width="1.04" height="1"/>
				
					<rect x="241.56" y="481.58" transform="matrix(0.0712 -0.9975 0.9975 0.0712 -256.0145 689.2031)" class="st1" width="1.04" height="1"/>
				<polygon class="st1" points="241.55,482.56 238.55,482.32 238.64,481.27 241.63,481.52 				"/>
				<polygon class="st1" points="228.58,481.27 227.59,481.14 227.75,479.98 228.73,480.12 				"/>
				<polygon class="st1" points="227.59,481.14 226.59,481.01 226.76,479.84 227.75,479.98 				"/>
				<polygon class="st1" points="226.59,481.01 223.61,480.58 223.8,479.38 226.76,479.84 				"/>
				<polygon class="st1" points="213.73,478.89 212.74,478.7 213.03,477.34 214,477.54 				"/>
				<polygon class="st1" points="212.74,478.7 211.76,478.5 212.05,477.12 213.03,477.34 				"/>
				<polygon class="st1" points="211.76,478.5 208.81,477.89 209.14,476.45 212.05,477.12 				"/>
				<polygon class="st1" points="199.05,475.56 198.08,475.3 198.54,473.66 199.49,473.94 				"/>
				<polygon class="st1" points="198.08,475.3 197.11,475.05 197.58,473.38 198.54,473.66 				"/>
				<polygon class="st1" points="197.11,475.05 194.21,474.24 194.72,472.5 197.58,473.38 				"/>
				<polygon class="st1" points="184.6,471.29 183.65,470.97 184.35,468.97 185.29,469.32 				"/>
				<polygon class="st1" points="183.65,470.97 182.69,470.65 183.42,468.62 184.35,468.97 				"/>
				<polygon class="st1" points="182.69,470.65 179.84,469.67 180.63,467.54 183.42,468.62 				"/>
				<polygon class="st1" points="170.43,466.12 169.5,465.74 170.56,463.28 171.46,463.69 				"/>
				<polygon class="st1" points="169.5,465.74 168.57,465.36 169.66,462.87 170.56,463.28 				"/>
				<polygon class="st1" points="168.57,465.36 165.79,464.18 166.95,461.61 169.66,462.87 				"/>
				<polygon class="st1" points="156.63,460 155.73,459.56 157.2,456.69 158.08,457.15 				"/>
				<polygon class="st1" points="155.73,459.56 154.82,459.11 156.33,456.22 157.2,456.69 				"/>
				<polygon class="st1" points="154.82,459.11 152.12,457.76 153.72,454.77 156.33,456.22 				"/>
				<polygon class="st1" points="143.23,453 142.36,452.5 144.35,449.18 145.19,449.7 				"/>
				<polygon class="st1" points="142.36,452.5 141.48,452 143.52,448.64 144.35,449.18 				"/>
				<polygon class="st1" points="141.48,452 138.87,450.47 141.02,447.03 143.52,448.64 				"/>
				<polygon class="st1" points="130.31,445.12 129.46,444.57 132.06,440.83 132.87,441.41 				"/>
				<polygon class="st1" points="129.46,444.57 128.62,444.01 131.27,440.24 132.06,440.83 				"/>
				<polygon class="st1" points="128.62,444.01 126.11,442.3 128.89,438.46 131.27,440.24 				"/>
				<polygon class="st1" points="117.91,436.39 117.11,435.78 120.38,431.68 121.14,432.32 				"/>
				<polygon class="st1" points="117.11,435.78 116.31,435.16 119.62,431.05 120.38,431.68 				"/>
				<polygon class="st1" points="116.31,435.16 113.91,433.3 117.37,429.12 119.62,431.05 				"/>
				<polygon class="st1" points="106.11,426.84 105.35,426.18 109.35,421.8 110.06,422.48 				"/>
				<polygon class="st1" points="105.35,426.18 104.59,425.51 108.64,421.12 109.35,421.8 				"/>
				<polygon class="st1" points="104.59,425.51 102.32,423.48 106.53,419.05 108.64,421.12 				"/>
				<polygon class="st1" points="94.97,416.5 94.25,415.78 99,411.24 99.67,411.96 				"/>
				<polygon class="st1" points="94.25,415.78 93.54,415.06 98.33,410.51 99,411.24 				"/>
				<polygon class="st1" points="93.54,415.06 91.42,412.88 96.36,408.31 98.33,410.51 				"/>
				<polygon class="st1" points="84.55,405.4 83.88,404.64 89.37,400.04 89.98,400.81 				"/>
				<polygon class="st1" points="83.88,404.64 83.21,403.87 88.75,399.27 89.37,400.04 				"/>
				<polygon class="st1" points="83.21,403.87 81.24,401.55 86.93,396.95 88.75,399.27 				"/>
				<polygon class="st1" points="74.89,393.61 74.28,392.79 80.49,388.26 81.06,389.06 				"/>
				<polygon class="st1" points="74.28,392.79 73.67,391.98 79.92,387.46 80.49,388.26 				"/>
				<polygon class="st1" points="73.67,391.98 71.86,389.52 78.24,385.04 79.92,387.46 				"/>
				<polygon class="st1" points="66.09,381.14 65.53,380.29 72.37,375.96 72.89,376.8 				"/>
				<polygon class="st1" points="65.53,380.29 64.97,379.44 71.86,375.13 72.37,375.96 				"/>
				<polygon class="st1" points="64.97,379.44 63.34,376.86 70.35,372.6 71.86,375.13 				"/>
				<polygon class="st1" points="58.13,368.11 57.63,367.22 65.11,363.16 65.56,364.03 				"/>
				<polygon class="st1" points="57.63,367.22 57.13,366.33 64.65,362.3 65.11,363.16 				"/>
				<polygon class="st1" points="57.13,366.33 55.68,363.64 63.3,359.68 64.65,362.3 				"/>
				<polygon class="st1" points="51.12,354.52 50.69,353.6 58.65,349.95 59.05,350.85 				"/>
				<polygon class="st1" points="50.69,353.6 50.26,352.68 58.25,349.06 58.65,349.95 				"/>
				<polygon class="st1" points="50.26,352.68 48.99,349.9 57.08,346.36 58.25,349.06 				"/>
				<polygon class="st1" points="45.08,340.48 44.71,339.52 53.05,336.36 53.4,337.28 				"/>
				<polygon class="st1" points="44.71,339.52 44.35,338.57 52.71,335.45 53.05,336.36 				"/>
				<polygon class="st1" points="44.35,338.57 43.29,335.7 51.71,332.68 52.71,335.45 				"/>
				<polygon class="st1" points="40.04,326.04 39.75,325.06 48.34,322.45 48.63,323.39 				"/>
				<polygon class="st1" points="39.75,325.06 39.45,324.08 48.06,321.51 48.34,322.45 				"/>
				<polygon class="st1" points="39.45,324.08 38.6,321.15 47.23,318.69 48.06,321.51 				"/>
				<polygon class="st1" points="36.05,311.27 35.82,310.28 44.52,308.27 44.75,309.22 				"/>
				<polygon class="st1" points="35.82,310.28 35.6,309.29 44.3,307.31 44.52,308.27 				"/>
				<polygon class="st1" points="35.6,309.29 34.95,306.3 43.67,304.44 44.3,307.31 				"/>
				<polygon class="st1" points="33.07,296.27 32.9,295.27 41.67,293.85 41.83,294.82 				"/>
				<polygon class="st1" points="32.9,295.27 32.74,294.26 41.51,292.88 41.67,293.85 				"/>
				<polygon class="st1" points="32.74,294.26 32.29,291.23 41.07,289.98 41.51,292.88 				"/>
				<polygon class="st1" points="31.15,281.1 31.06,280.09 39.71,279.28 39.82,280.25 				"/>
				<polygon class="st1" points="31.06,280.09 30.98,279.07 39.62,278.3 39.71,279.28 				"/>
				<polygon class="st1" points="30.98,279.07 30.75,276.02 39.35,275.37 39.62,278.3 				"/>
				<polygon class="st1" points="30.29,265.85 30.27,264.83 38.7,264.6 38.73,265.58 				"/>
				<polygon class="st1" points="30.27,264.83 30.25,263.81 38.66,263.62 38.7,264.6 				"/>
				<polygon class="st1" points="30.25,263.81 30.23,260.76 38.59,260.68 38.66,263.62 				"/>
				<polygon class="st1" points="30.45,250.58 30.51,249.57 38.63,249.88 38.61,250.86 				"/>
				<polygon class="st1" points="30.51,249.57 30.56,248.55 38.65,248.9 38.63,249.88 				"/>
				<polygon class="st1" points="30.56,248.55 30.76,245.5 38.76,245.95 38.65,248.9 				"/>
				<polygon class="st1" points="31.69,235.37 31.81,234.36 39.47,235.16 39.38,236.14 				"/>
				<polygon class="st1" points="31.81,234.36 31.94,233.35 39.56,234.19 39.47,235.16 				"/>
				<polygon class="st1" points="31.94,233.35 32.33,230.32 39.86,231.25 39.56,234.19 				"/>
				<polygon class="st1" points="33.94,220.28 34.13,219.28 41.29,220.53 41.14,221.5 				"/>
				<polygon class="st1" points="34.13,219.28 34.32,218.29 41.44,219.55 41.29,220.53 				"/>
				<polygon class="st1" points="34.32,218.29 34.93,215.3 41.93,216.64 41.44,219.55 				"/>
				<polygon class="st1" points="37.24,205.41 37.5,204.42 44.04,206.02 43.83,206.98 				"/>
				<polygon class="st1" points="37.5,204.42 37.76,203.44 44.26,205.06 44.04,206.02 				"/>
				<polygon class="st1" points="37.76,203.44 38.56,200.51 44.94,202.18 44.26,205.06 				"/>
				<polygon class="st1" points="41.53,190.8 41.85,189.84 47.77,191.71 47.49,192.66 				"/>
				<polygon class="st1" points="41.85,189.84 42.18,188.88 48.05,190.77 47.77,191.71 				"/>
				<polygon class="st1" points="42.18,188.88 43.18,186.01 48.92,187.94 48.05,190.77 				"/>
				<polygon class="st1" points="46.79,176.54 47.18,175.6 52.45,177.67 52.11,178.6 				"/>
				<polygon class="st1" points="47.18,175.6 47.57,174.67 52.8,176.75 52.45,177.67 				"/>
				<polygon class="st1" points="47.57,174.67 48.76,171.87 53.86,173.99 52.8,176.75 				"/>
				<polygon class="st1" points="53,162.68 53.44,161.78 58.08,163.97 57.68,164.87 				"/>
				<polygon class="st1" points="53.44,161.78 53.89,160.87 58.49,163.07 58.08,163.97 				"/>
				<polygon class="st1" points="53.89,160.87 55.26,158.17 59.73,160.38 58.49,163.07 				"/>
				<polygon class="st1" points="60.08,149.28 60.58,148.41 64.65,150.67 64.18,151.54 				"/>
				<polygon class="st1" points="60.58,148.41 61.09,147.53 65.12,149.8 64.65,150.67 				"/>
				<polygon class="st1" points="61.09,147.53 62.63,144.92 66.55,147.2 65.12,149.8 				"/>
				<polygon class="st1" points="68.03,136.39 68.59,135.55 72.11,137.83 71.59,138.67 				"/>
				<polygon class="st1" points="68.59,135.55 69.15,134.71 72.64,136.99 72.11,137.83 				"/>
				<polygon class="st1" points="69.15,134.71 70.86,132.22 74.24,134.49 72.64,136.99 				"/>
				<polygon class="st1" points="76.78,124.05 77.39,123.24 80.45,125.53 79.87,126.34 				"/>
				<polygon class="st1" points="77.39,123.24 78,122.44 81.04,124.74 80.45,125.53 				"/>
				<polygon class="st1" points="78,122.44 79.86,120.06 82.83,122.36 81.04,124.74 				"/>
				<polygon class="st1" points="86.29,112.3 86.96,111.54 89.63,113.83 89,114.6 				"/>
				<polygon class="st1" points="86.96,111.54 87.62,110.78 90.27,113.08 89.63,113.83 				"/>
				<polygon class="st1" points="87.62,110.78 89.64,108.53 92.21,110.82 90.27,113.08 				"/>
				<polygon class="st1" points="96.55,101.21 97.26,100.5 99.59,102.78 98.9,103.49 				"/>
				<polygon class="st1" points="97.26,100.5 97.97,99.78 100.28,102.07 99.59,102.78 				"/>
				<polygon class="st1" points="97.97,99.78 100.11,97.65 102.38,99.95 100.28,102.07 				"/>
				<polygon class="st1" points="107.47,90.77 108.22,90.1 110.32,92.45 109.58,93.12 				"/>
				<polygon class="st1" points="108.22,90.1 108.97,89.44 111.06,91.79 110.32,92.45 				"/>
				<polygon class="st1" points="108.97,89.44 111.25,87.46 113.29,89.83 111.06,91.79 				"/>
				<polygon class="st1" points="119.04,81.08 119.84,80.46 121.71,82.87 120.93,83.48 				"/>
				<polygon class="st1" points="119.84,80.46 120.63,79.85 122.5,82.26 121.71,82.87 				"/>
				<polygon class="st1" points="120.63,79.85 123.04,78.03 124.86,80.44 122.5,82.26 				"/>
				<polygon class="st1" points="131.21,72.15 132.04,71.58 133.75,74.1 132.93,74.65 				"/>
				<polygon class="st1" points="132.04,71.58 132.88,71.02 134.57,73.54 133.75,74.1 				"/>
				<polygon class="st1" points="132.88,71.02 135.39,69.34 137.06,71.91 134.57,73.54 				"/>
				<polygon class="st1" points="143.93,64.01 144.8,63.5 146.37,66.19 145.51,66.69 				"/>
				<polygon class="st1" points="144.8,63.5 145.66,62.99 147.23,65.69 146.37,66.19 				"/>
				<polygon class="st1" points="145.66,62.99 148.28,61.49 149.82,64.22 147.23,65.69 				"/>
				<polygon class="st1" points="157.16,56.74 158.06,56.28 159.48,59.14 158.59,59.58 				"/>
				<polygon class="st1" points="158.06,56.28 158.96,55.83 160.37,58.7 159.48,59.14 				"/>
				<polygon class="st1" points="158.96,55.83 161.67,54.5 163.06,57.42 160.37,58.7 				"/>
				<polygon class="st1" points="170.83,50.31 171.76,49.92 173.06,53.05 172.15,53.42 				"/>
				<polygon class="st1" points="171.76,49.92 172.69,49.52 173.98,52.67 173.06,53.05 				"/>
				<polygon class="st1" points="172.69,49.52 175.48,48.37 176.75,51.58 173.98,52.67 				"/>
				<polygon class="st1" points="184.91,44.8 185.86,44.47 187.02,47.9 186.08,48.21 				"/>
				<polygon class="st1" points="185.86,44.47 186.81,44.14 187.96,47.59 187.02,47.9 				"/>
				<polygon class="st1" points="186.81,44.14 189.68,43.18 190.8,46.68 187.96,47.59 				"/>
				<polygon class="st1" points="199.32,40.23 200.29,39.96 201.29,43.73 200.33,43.97 				"/>
				<polygon class="st1" points="200.29,39.96 201.26,39.69 202.25,43.49 201.29,43.73 				"/>
				<polygon class="st1" points="201.26,39.69 204.18,38.91 205.14,42.79 202.25,43.49 				"/>
				<polygon class="st1" points="214,36.6 214.99,36.39 215.81,40.57 214.83,40.75 				"/>
				<polygon class="st1" points="214.99,36.39 215.98,36.19 216.78,40.39 215.81,40.57 				"/>
				<polygon class="st1" points="215.98,36.19 218.95,35.6 219.71,39.89 216.78,40.39 				"/>
				<polygon class="st1" points="228.91,33.95 229.91,33.8 230.5,38.4 229.51,38.51 				"/>
				<polygon class="st1" points="229.91,33.8 230.92,33.66 231.48,38.3 230.5,38.4 				"/>
				<polygon class="st1" points="230.92,33.66 233.92,33.27 234.43,38 231.48,38.3 				"/>
				<polygon class="st1" points="243.98,32.26 244.99,32.18 245.29,37.26 244.3,37.3 				"/>
				<polygon class="st1" points="244.99,32.18 246,32.11 246.28,37.22 245.29,37.26 				"/>
				<polygon class="st1" points="246,32.11 249.03,31.92 249.24,37.12 246.28,37.22 				"/>
				<polygon class="st1" points="259.14,31.58 260.15,31.57 260.11,37.09 259.12,37.07 				"/>
				<polygon class="st1" points="260.15,31.57 261.16,31.56 261.1,37.12 260.11,37.09 				"/>
				<polygon class="st1" points="261.16,31.56 264.2,31.57 264.06,37.22 261.1,37.12 				"/>
				<polygon class="st1" points="274.33,31.88 275.34,31.94 274.9,37.91 273.92,37.83 				"/>
				<polygon class="st1" points="275.34,31.94 276.35,32 275.88,38 274.9,37.91 				"/>
				<polygon class="st1" points="276.35,32 279.38,32.21 278.83,38.29 275.88,38 				"/>
				<polygon class="st1" points="289.48,33.2 290.48,33.32 289.59,39.71 288.61,39.56 				"/>
				<polygon class="st1" points="290.48,33.32 291.49,33.45 290.56,39.86 289.59,39.71 				"/>
				<polygon class="st1" points="291.49,33.45 294.51,33.86 293.48,40.35 290.56,39.86 				"/>
				<polygon class="st1" points="304.52,35.53 305.52,35.72 304.1,42.48 303.14,42.26 				"/>
				<polygon class="st1" points="305.52,35.72 306.51,35.91 305.06,42.7 304.1,42.48 				"/>
				<polygon class="st1" points="306.51,35.91 309.5,36.53 307.93,43.38 305.06,42.7 				"/>
				<polygon class="st1" points="319.39,38.86 320.37,39.12 318.38,46.21 317.44,45.93 				"/>
				<polygon class="st1" points="320.37,39.12 321.36,39.38 319.32,46.5 318.38,46.21 				"/>
				<polygon class="st1" points="321.36,39.38 324.3,40.2 322.14,47.37 319.32,46.5 				"/>
				<polygon class="st1" points="334.01,43.23 334.97,43.56 332.38,50.86 331.45,50.53 				"/>
				<polygon class="st1" points="334.97,43.56 335.94,43.89 333.3,51.21 332.38,50.86 				"/>
				<polygon class="st1" points="335.94,43.89 338.81,44.91 336.05,52.26 333.3,51.21 				"/>
				<polygon class="st1" points="348.3,48.6 349.24,48.99 346.01,56.43 345.12,56.03 				"/>
				<polygon class="st1" points="349.24,48.99 350.18,49.38 346.91,56.83 346.01,56.43 				"/>
				<polygon class="st1" points="350.18,49.38 352.98,50.59 349.58,58.07 346.91,56.83 				"/>
				<polygon class="st1" points="362.2,54.92 363.11,55.38 359.24,62.88 358.38,62.42 				"/>
				<polygon class="st1" points="363.11,55.38 364.02,55.84 360.11,63.34 359.24,62.88 				"/>
				<polygon class="st1" points="364.02,55.84 366.73,57.25 362.7,64.74 360.11,63.34 				"/>
				<polygon class="st1" points="375.63,62.21 376.51,62.73 372.02,70.16 371.19,69.65 				"/>
				<polygon class="st1" points="376.51,62.73 377.39,63.25 372.86,70.68 372.02,70.16 				"/>
				<polygon class="st1" points="377.39,63.25 380,64.84 375.35,72.25 372.86,70.68 				"/>
				<polygon class="st1" points="388.56,70.38 389.4,70.96 384.28,78.28 383.48,77.71 				"/>
				<polygon class="st1" points="389.4,70.96 390.24,71.54 385.08,78.85 384.28,78.28 				"/>
				<polygon class="st1" points="390.24,71.54 392.74,73.3 387.45,80.58 385.08,78.85 				"/>
				<polygon class="st1" points="400.9,79.42 401.7,80.05 395.97,87.18 395.21,86.56 				"/>
				<polygon class="st1" points="401.7,80.05 402.5,80.69 396.73,87.8 395.97,87.18 				"/>
				<polygon class="st1" points="402.5,80.69 404.87,82.61 398.99,89.68 396.73,87.8 				"/>
				<polygon class="st1" points="412.61,89.27 413.36,89.95 407.05,96.82 406.33,96.16 				"/>
				<polygon class="st1" points="413.36,89.95 414.12,90.64 407.76,97.49 407.05,96.82 				"/>
				<polygon class="st1" points="414.12,90.64 416.36,92.72 409.89,99.51 407.76,97.49 				"/>
				<polygon class="st1" points="423.64,99.87 424.35,100.61 417.46,107.18 416.79,106.47 				"/>
				<polygon class="st1" points="424.35,100.61 425.06,101.34 418.13,107.89 417.46,107.18 				"/>
				<polygon class="st1" points="425.06,101.34 427.16,103.57 420.11,110.05 418.13,107.89 				"/>
				<polygon class="st1" points="433.95,111.2 434.61,111.98 427.15,118.2 426.53,117.44 				"/>
				<polygon class="st1" points="434.61,111.98 435.27,112.76 427.77,118.95 427.15,118.2 				"/>
				<polygon class="st1" points="435.27,112.76 437.22,115.12 429.61,121.24 427.77,118.95 				"/>
				<polygon class="st1" points="443.49,123.19 444.1,124.01 436.08,129.83 435.51,129.04 				"/>
				<polygon class="st1" points="444.1,124.01 444.7,124.83 436.65,130.63 436.08,129.83 				"/>
				<polygon class="st1" points="444.7,124.83 446.49,127.32 438.33,133.03 436.65,130.63 				"/>
				<polygon class="st1" points="452.21,135.8 452.76,136.66 444.23,142.02 443.71,141.19 				"/>
				<polygon class="st1" points="452.76,136.66 453.3,137.52 444.74,142.85 444.23,142.02 				"/>
				<polygon class="st1" points="453.3,137.52 454.92,140.13 446.26,145.36 444.74,142.85 				"/>
				<polygon class="st1" points="460.05,148.97 460.54,149.87 451.54,154.72 451.08,153.86 				"/>
				<polygon class="st1" points="460.54,149.87 461.03,150.77 452,155.58 451.54,154.72 				"/>
				<polygon class="st1" points="461.03,150.77 462.47,153.48 453.35,158.18 452,155.58 				"/>
				<polygon class="st1" points="467,162.65 467.43,163.58 457.99,167.87 457.59,166.98 				"/>
				<polygon class="st1" points="467.43,163.58 467.86,164.51 458.39,168.77 457.99,167.87 				"/>
				<polygon class="st1" points="467.86,164.51 469.11,167.31 459.56,171.45 458.39,168.77 				"/>
				<polygon class="st1" points="473.02,176.77 473.39,177.72 463.54,181.43 463.2,180.51 				"/>
				<polygon class="st1" points="473.39,177.72 473.75,178.68 463.87,182.34 463.54,181.43 				"/>
				<polygon class="st1" points="473.75,178.68 474.81,181.56 464.86,185.1 463.87,182.34 				"/>
				<polygon class="st1" points="478.06,191.26 478.35,192.24 468.17,195.31 467.89,194.37 				"/>
				<polygon class="st1" points="478.35,192.24 478.65,193.22 468.45,196.24 468.17,195.31 				"/>
				<polygon class="st1" points="478.65,193.22 479.5,196.17 469.26,199.05 468.45,196.24 				"/>
				<polygon class="st1" points="482.06,206.08 482.29,207.08 471.91,209.46 471.69,208.5 				"/>
				<polygon class="st1" points="482.29,207.08 482.52,208.08 472.12,210.41 471.91,209.46 				"/>
				<polygon class="st1" points="482.52,208.08 483.17,211.08 472.74,213.27 472.12,210.41 				"/>
				<polygon class="st1" points="485.06,221.14 485.22,222.15 474.68,223.83 474.53,222.86 				"/>
				<polygon class="st1" points="485.22,222.15 485.38,223.16 474.83,224.79 474.68,223.83 				"/>
				<polygon class="st1" points="485.38,223.16 485.83,226.2 475.26,227.69 474.83,224.79 				"/>
				<polygon class="st1" points="487.04,236.36 487.14,237.38 476.49,238.35 476.4,237.38 				"/>
				<polygon class="st1" points="487.14,237.38 487.23,238.4 476.57,239.33 476.49,238.35 				"/>
				<polygon class="st1" points="487.23,238.4 487.48,241.46 476.81,242.25 476.57,239.33 				"/>
				<polygon class="st1" points="488.01,251.68 488.04,252.7 477.32,252.97 477.3,252 				"/>
				<polygon class="st1" points="488.04,252.7 488.06,253.73 477.35,253.94 477.32,252.97 				"/>
				<polygon class="st1" points="488.06,253.73 488.08,256.79 477.4,256.87 477.35,253.94 				"/>
				<polygon class="st1" points="487.89,267.03 487.84,268.05 477.28,267.62 477.31,266.64 				"/>
				<polygon class="st1" points="487.84,268.05 487.79,269.07 477.24,268.59 477.28,267.62 				"/>
				<polygon class="st1" points="487.79,269.07 487.62,272.14 477.1,271.52 477.24,268.59 				"/>
				<polygon class="st1" points="486.75,282.33 486.64,283.35 476.26,282.23 476.36,281.26 				"/>
				<polygon class="st1" points="486.64,283.35 486.52,284.37 476.16,283.2 476.26,282.23 				"/>
				<polygon class="st1" points="486.52,284.37 486.14,287.41 475.83,286.12 476.16,283.2 				"/>
				<polygon class="st1" points="484.59,297.53 484.41,298.53 474.28,296.75 474.44,295.79 				"/>
				<polygon class="st1" points="484.41,298.53 484.23,299.54 474.11,297.71 474.28,296.75 				"/>
				<polygon class="st1" points="484.23,299.54 483.65,302.55 473.58,300.6 474.11,297.71 				"/>
				<polygon class="st1" points="481.42,312.54 481.18,313.53 471.32,311.1 471.55,310.15 				"/>
				<polygon class="st1" points="481.18,313.53 480.92,314.52 471.09,312.05 471.32,311.1 				"/>
				<polygon class="st1" points="480.92,314.52 480.14,317.49 470.37,314.89 471.09,312.05 				"/>
				<polygon class="st1" points="477.25,327.3 476.94,328.27 467.4,325.23 467.69,324.3 				"/>
				<polygon class="st1" points="476.94,328.27 476.62,329.24 467.11,326.16 467.4,325.23 				"/>
				<polygon class="st1" points="476.62,329.24 475.62,332.15 466.22,328.95 467.11,326.16 				"/>
				<polygon class="st1" points="472.03,341.71 471.64,342.66 462.62,339.09 462.97,338.18 				"/>
				<polygon class="st1" points="471.64,342.66 471.25,343.61 462.27,340.01 462.62,339.09 				"/>
				<polygon class="st1" points="471.25,343.61 470.07,346.43 461.19,342.73 462.27,340.01 				"/>
				<polygon class="st1" points="465.84,355.73 465.39,356.64 456.91,352.61 457.32,351.72 				"/>
				<polygon class="st1" points="465.39,356.64 464.94,357.56 456.5,353.5 456.91,352.61 				"/>
				<polygon class="st1" points="464.94,357.56 463.57,360.3 455.24,356.15 456.5,353.5 				"/>
				<polygon class="st1" points="458.71,369.27 458.19,370.15 450.33,365.75 450.79,364.88 				"/>
				<polygon class="st1" points="458.19,370.15 457.68,371.03 449.86,366.61 450.33,365.75 				"/>
				<polygon class="st1" points="457.68,371.03 456.11,373.66 448.44,369.18 449.86,366.61 				"/>
				<polygon class="st1" points="450.63,382.26 450.06,383.1 442.93,378.45 443.45,377.62 				"/>
				<polygon class="st1" points="450.06,383.1 449.49,383.94 442.41,379.28 442.93,378.45 				"/>
				<polygon class="st1" points="449.49,383.94 447.75,386.46 440.82,381.76 442.41,379.28 				"/>
				<polygon class="st1" points="441.71,394.66 441.09,395.46 434.69,390.65 435.27,389.86 				"/>
				<polygon class="st1" points="441.09,395.46 440.46,396.26 434.12,391.45 434.69,390.65 				"/>
				<polygon class="st1" points="440.46,396.26 438.55,398.64 432.37,393.82 434.12,391.45 				"/>
				<polygon class="st1" points="431.95,406.37 431.27,407.13 425.71,402.34 426.33,401.58 				"/>
				<polygon class="st1" points="431.27,407.13 430.59,407.88 425.09,403.1 425.71,402.34 				"/>
				<polygon class="st1" points="430.59,407.88 428.52,410.12 423.19,405.36 425.09,403.1 				"/>
				<polygon class="st1" points="421.43,417.39 420.7,418.1 415.96,413.43 416.64,412.71 				"/>
				<polygon class="st1" points="420.7,418.1 419.97,418.8 415.29,414.15 415.96,413.43 				"/>
				<polygon class="st1" points="419.97,418.8 417.77,420.9 413.24,416.28 415.29,414.15 				"/>
				<polygon class="st1" points="410.22,427.67 409.45,428.32 405.48,423.86 406.2,423.19 				"/>
				<polygon class="st1" points="409.45,428.32 408.67,428.98 404.76,424.53 405.48,423.86 				"/>
				<polygon class="st1" points="408.67,428.98 406.34,430.92 402.57,426.53 404.76,424.53 				"/>
				<polygon class="st1" points="398.36,437.16 397.55,437.76 394.31,433.59 395.08,432.97 				"/>
				<polygon class="st1" points="397.55,437.76 396.74,438.36 393.55,434.21 394.31,433.59 				"/>
				<polygon class="st1" points="396.74,438.36 394.28,440.14 391.23,436.06 393.55,434.21 				"/>
				<polygon class="st1" points="385.92,445.83 385.07,446.38 382.5,442.57 383.31,441.99 				"/>
				<polygon class="st1" points="385.07,446.38 384.22,446.92 381.69,443.14 382.5,442.57 				"/>
				<polygon class="st1" points="384.22,446.92 381.66,448.53 379.25,444.83 381.69,443.14 				"/>
				<polygon class="st1" points="372.95,453.64 372.07,454.13 370.1,450.75 370.95,450.23 				"/>
				<polygon class="st1" points="372.07,454.13 371.18,454.61 369.26,451.27 370.1,450.75 				"/>
				<polygon class="st1" points="371.18,454.61 368.52,456.05 366.7,452.79 369.26,451.27 				"/>
				<polygon class="st1" points="359.51,460.57 358.6,461.01 357.15,458.07 358.03,457.61 				"/>
				<polygon class="st1" points="358.6,461.01 357.69,461.43 356.27,458.52 357.15,458.07 				"/>
				<polygon class="st1" points="357.69,461.43 354.95,462.69 353.61,459.87 356.27,458.52 				"/>
				<polygon class="st1" points="345.68,466.62 344.74,466.99 343.7,464.48 344.61,464.08 				"/>
				<polygon class="st1" points="344.74,466.99 343.8,467.35 342.79,464.88 343.7,464.48 				"/>
				<polygon class="st1" points="343.8,467.35 340.98,468.42 340.05,466.04 342.79,464.88 				"/>
				<polygon class="st1" points="331.49,471.72 330.53,472.03 329.83,469.96 330.77,469.63 				"/>
				<polygon class="st1" points="330.53,472.03 329.57,472.34 328.89,470.29 329.83,469.96 				"/>
				<polygon class="st1" points="329.57,472.34 326.7,473.23 326.07,471.24 328.89,470.29 				"/>
				<polygon class="st1" points="317.03,475.93 316.05,476.18 315.59,474.42 316.55,474.15 				"/>
				<polygon class="st1" points="316.05,476.18 315.08,476.42 314.63,474.68 315.59,474.42 				"/>
				<polygon class="st1" points="315.08,476.42 312.15,477.12 311.74,475.45 314.63,474.68 				"/>
				<polygon class="st1" points="302.33,479.16 301.34,479.34 301.06,477.92 302.04,477.72 				"/>
				<polygon class="st1" points="301.34,479.34 300.35,479.51 300.09,478.12 301.06,477.92 				"/>
				<polygon class="st1" points="300.35,479.51 297.38,480.02 297.15,478.68 300.09,478.12 				"/>
				<polygon class="st1" points="287.46,481.45 286.46,481.57 286.32,480.37 287.3,480.23 				"/>
				<polygon class="st1" points="286.46,481.57 285.47,481.68 285.33,480.49 286.32,480.37 				"/>
				<polygon class="st1" points="285.47,481.68 282.48,482 282.36,480.85 285.33,480.49 				"/>
				
					<rect x="271.45" y="481.75" transform="matrix(0.9984 -0.0559 0.0559 0.9984 -26.5336 15.9557)" class="st1" width="1" height="1.07"/>
				
					<rect x="270.45" y="481.8" transform="matrix(0.9987 -0.0515 0.0515 0.9987 -24.4888 14.5992)" class="st1" width="1" height="1.07"/>
				<polygon class="st1" points="270.48,482.9 267.48,483.03 267.44,481.98 270.43,481.83 				"/>
			</g>
		</g>
	</g>
	<g>
		<path class="st2" d="M421.39,214.87c-3.55-4.64-6.23-10.36-7.85-15.99c-5.48-19.12-17.87-30.47-36.87-35.45
			c-3.65-0.96-7.67-2.81-10.15-5.5c-9.39-10.17-20.72-14.56-34.45-14.47c-4.22,0.03-9.31-1.48-12.54-4.09
			c-16.01-12.95-33.72-16.23-53.52-11.83c-4.23,0.94-9.39,0.99-13.3-0.58c-13.2-5.3-25.59-4.47-38.29,1.65
			c-4.79,2.31-10.05,3.36-15.36,3.09c-15.69-0.79-28.19,4.46-38.23,16.67c-2.74,3.33-7.03,6.33-11.15,7.42
			c-20.12,5.32-32.73,18.06-39.84,37.2c-1.41,3.78-3.94,7.82-7.12,10.16c-17.08,12.52-23.35,28.67-19.05,49.73
			c0.87,4.27,0.9,8.7,0.03,12.98c-4.9,24.13,3.16,42.38,24.16,55.27c2.81,1.72,5.61,5.73,6.2,8.97
			c6.64,36.9,28.41,56.49,65.71,58.56c0.25,0.01,0.49,0.04,0.74,0.07c2.28,0.28-2.79,2.77,3.6,4.66l-0.01,0.04h13.27
			c0.62-5.04,11.13-6.91,11.74-11.88c0.34-2.76-11.89-8.27-14.65-7.97c-7.96,0.87-15.41,2.08-22.65,1.27
			c-23.4-2.61-41.67-21.38-44.28-43.81c-2.93-25.1,9.76-45.84,33.77-55.2c4.63-1.81,11.22-2.84,8.66-9.84
			c-2.7-7.39-8.82-4.23-13.82-2.37c-17.8,6.64-30.34,18.76-37.48,36.4c-1.2,2.97-2.5,5.9-3.79,8.94
			c-16.8-9.52-22.63-24.6-17.65-41.78c1.29-4.46,1.58-9.99,0.17-14.33c-5.68-17.43,0.28-31.97,16.84-40.84
			c3.16-1.69,6.21-5.89,6.94-9.42c4.05-19.49,17.78-32.93,37.4-34.48c5.55-0.44,8.13-2.35,10.57-7.24
			c6.14-12.27,16.85-17.66,29.05-15.76c13.05,2.03,20.95,10.06,23.7,24.22c0.91,4.69,1.42,10.93,7.87,8.89
			c2.64-0.83,5.73-7.9,4.79-10.95c-2.9-9.44-7.64-18.31-11.76-27.64c8.5-5.28,16.6-4.84,27.14,0.59c3.82,1.97,9.58,2.89,13.48,1.53
			c20.09-7.02,37.09-3.12,51.89,12.31c2.21,2.3,6.91,3.99,9.97,3.41c15.58-2.95,24.27,0.29,33.43,12.84
			c1.83,2.51,5.43,4.92,8.42,5.21c20.72,1.99,34.55,15.26,34.76,34.09c0.21,18.05-13.05,31.72-33.1,34.66
			c-2.95,0.43-7.23,2.27-7.96,4.45c-0.74,2.19,2.51,5.5,3.42,8.51c1.64,5.42,2.75,11,4.25,16.46c1.01,3.66,2.31,7.24,3.48,10.85
			c3.15-2.41,8.33-4.33,9.05-7.32c1.67-6.98,1.18-14.47,1.4-18.5c11.9-11.1,22.23-20.74,32.72-30.54
			c8.61,15.95,9.71,33.28-0.09,50.17c-9.86,17-24.94,26.35-45.11,26.34c-7.36,0-14.72,0-22.9,0c-1.72-12.83-6.25-25.27-18.52-32.53
			c-3.52-2.08-11.07-3.02-13.02-0.95c-5.07,5.37,0.81,8.48,5.03,11.48c13.19,9.38,16.56,23.03,9.3,37.53
			c-8.86,17.71-23.98,24.65-43.07,25.38c-30.12,1.15-52.35,38.48-92.75,28.79l3.38,19.07c1.19,0,11.53,0.05,20.68,0.13
			c8.04,0.08,15.81-3.3,20.93-9.51c1.84-2.23,3.86-4.38,6.07-6.45c11.82-11.06,25.54-17.65,41.97-17.99
			c24.45-0.5,42.96-10.89,54.4-32.87c4.98-9.58,14.29-8.07,22.29-7.85c15.41,0.42,29.57-2.35,42.51-11.03
			C437.34,286.95,444.15,244.62,421.39,214.87z"/>
		<path class="st2" d="M230.6,271.43c-1.85,7.42-4.07,13.54-4.62,19.81c-0.24,2.76,2.91,5.82,4.52,8.74
			c1.87-2.33,5.02-4.47,5.39-7.01c2-13.85,9.26-23.49,21.27-30.33c13.33-7.59,21.77-19.27,24.89-34.21
			c0.72-3.45-1.67-7.55-2.63-11.34c-2.51,2.87-6.23,5.35-7.31,8.68c-5.67,17.49-16.38,29.6-34.75,33.36
			c-17.21,3.53-32.3-1.03-43.96-14.55c-3.03-3.52-4.54-8.33-7.49-11.94c-1.99-2.45-5.27-3.85-7.98-5.72
			c-0.56,3.49-2.61,7.6-1.45,10.37c7.8,18.65,22.4,29.08,42.11,32.61C222.53,270.6,226.53,270.92,230.6,271.43z"/>
		<path class="st2" d="M312.76,202.08c13.56,14.88,30.1,22.14,50.72,17.16c1.31-0.32,2.96-0.35,3.84-1.18
			c3.53-3.27,6.82-6.81,10.2-10.24c-4.5-0.02-9.26-1-13.46,0.12c-12.93,3.47-24.81,2.5-35.56-5.95c-6.06-4.76-11.05-9.58-7.54-18.79
			c1.03-2.69-2.41-7.07-3.8-10.68c-2.08,2.89-5.12,5.5-6.05,8.72c-2.61,9.03-7.94,14.41-17.08,16.89c-2.82,0.76-4.93,4.18-7.36,6.39
			c3.32,1.43,6.88,4.41,9.9,3.93C301.74,207.65,306.55,204.67,312.76,202.08z"/>
		<path class="st2" d="M137.91,235.38c0.71,0.85,2.63,3.14,4.55,5.44c1.93-2.27,5.22-4.34,5.58-6.83
			c3.45-23.94,16.62-37.62,40.86-40.8c2.38-0.31,4.34-3.78,6.5-5.79c-2.62-1.53-5.24-4.37-7.87-4.38
			C162.59,182.91,137.38,208.5,137.91,235.38z"/>
		<path class="st2" d="M212.09,340.87c8.25-2.71,16.72-4.94,24.62-8.43c2.3-1.01,3.01-5.62,4.46-8.58c-3-0.23-6.44-1.53-8.93-0.51
			c-24.13,9.89-35.17,7.79-53.97-10.28c-1.84-1.77-5.51-1.63-8.33-2.37c0.34,3-0.39,6.83,1.19,8.88
			C181.25,332.74,194.87,339.32,212.09,340.87z"/>
		<path class="st2" d="M227.93,217.77c0.72,0.95,2.53,3.35,4.34,5.74c2.12-2.07,5.75-3.91,6.1-6.26
			c2.65-17.33,12.17-27.04,29.65-29.5c2.32-0.33,4.16-4.02,6.22-6.15c-2.71-1.42-5.43-4.08-8.13-4.06
			C247.17,177.64,228.55,196.45,227.93,217.77z"/>
		<path class="st2" d="M280.5,281.9c1.09,3.59,2.53,10.2,5.26,16.23c0.94,2.07,5.14,2.66,7.85,3.93c0.55-2.63,2.35-5.83,1.46-7.81
			c-7.16-15.79-3.97-28.73,9.22-39.81c1.67-1.41,1.41-5.12,2.04-7.76c-2.98-0.01-6.8-1.21-8.82,0.18
			C286.51,254.47,281.38,265.51,280.5,281.9z"/>
	</g>
</g>
</svg>
