<?xml version="1.0" encoding="utf-8"?>
<!-- Generator: Adobe Illustrator 26.0.3, SVG Export Plug-In . SVG Version: 6.00 Build 0)  -->
<svg version="1.1" id="Warstwa_1" xmlns="http://www.w3.org/2000/svg" xmlns:xlink="http://www.w3.org/1999/xlink" x="0px" y="0px"
	 viewBox="0 0 517.15 517" style="enable-background:new 0 0 517.15 517;" xml:space="preserve">
<style type="text/css">
	.st0{fill:#336799;}
	.st1{fill:#FFFFFF;}
</style>
<g>
	<path class="st0" d="M258.57,517.07L258.57,517.07C115.77,517.07,0,401.31,0,258.5v0C0,115.69,115.77-0.07,258.57-0.07h0
		c142.81,0,258.57,115.77,258.57,258.57v0C517.15,401.31,401.38,517.07,258.57,517.07z"/>
	<g>
		<g>
			<rect x="257.57" y="482.17" class="st1" width="1" height="1"/>
			
				<rect x="256.57" y="482.17" transform="matrix(5.267893e-03 -1 1 5.267893e-03 -226.9431 737.1987)" class="st1" width="1" height="1"/>
			<polygon class="st1" points="256.57,483.17 253.56,483.13 253.59,482.11 256.58,482.16 			"/>
			
				<rect x="242.56" y="481.65" transform="matrix(0.0668 -0.9978 0.9978 0.0668 -254.2325 692.4656)" class="st1" width="1.04" height="1"/>
			
				<rect x="241.56" y="481.58" transform="matrix(0.0712 -0.9975 0.9975 0.0712 -256.0145 689.2031)" class="st1" width="1.04" height="1"/>
			<polygon class="st1" points="241.55,482.56 238.55,482.32 238.64,481.27 241.63,481.52 			"/>
			<polygon class="st1" points="228.58,481.27 227.59,481.14 227.75,479.98 228.73,480.12 			"/>
			<polygon class="st1" points="227.59,481.14 226.59,481.01 226.76,479.84 227.75,479.98 			"/>
			<polygon class="st1" points="226.59,481.01 223.61,480.58 223.8,479.38 226.76,479.84 			"/>
			<polygon class="st1" points="213.73,478.89 212.74,478.7 213.03,477.34 214,477.54 			"/>
			<polygon class="st1" points="212.74,478.7 211.76,478.5 212.05,477.12 213.03,477.34 			"/>
			<polygon class="st1" points="211.76,478.5 208.81,477.89 209.14,476.45 212.05,477.12 			"/>
			<polygon class="st1" points="199.05,475.56 198.08,475.3 198.54,473.66 199.49,473.94 			"/>
			<polygon class="st1" points="198.08,475.3 197.11,475.05 197.58,473.38 198.54,473.66 			"/>
			<polygon class="st1" points="197.11,475.05 194.21,474.24 194.72,472.5 197.58,473.38 			"/>
			<polygon class="st1" points="184.6,471.29 183.65,470.97 184.35,468.97 185.29,469.32 			"/>
			<polygon class="st1" points="183.65,470.97 182.69,470.65 183.42,468.62 184.35,468.97 			"/>
			<polygon class="st1" points="182.69,470.65 179.84,469.67 180.63,467.54 183.42,468.62 			"/>
			<polygon class="st1" points="170.43,466.12 169.5,465.74 170.56,463.28 171.46,463.69 			"/>
			<polygon class="st1" points="169.5,465.74 168.57,465.36 169.66,462.87 170.56,463.28 			"/>
			<polygon class="st1" points="168.57,465.36 165.79,464.18 166.95,461.61 169.66,462.87 			"/>
			<polygon class="st1" points="156.63,460 155.73,459.56 157.2,456.69 158.08,457.15 			"/>
			<polygon class="st1" points="155.73,459.56 154.82,459.11 156.33,456.22 157.2,456.69 			"/>
			<polygon class="st1" points="154.82,459.11 152.12,457.76 153.72,454.77 156.33,456.22 			"/>
			<polygon class="st1" points="143.23,453 142.36,452.5 144.35,449.18 145.19,449.7 			"/>
			<polygon class="st1" points="142.36,452.5 141.48,452 143.52,448.64 144.35,449.18 			"/>
			<polygon class="st1" points="141.48,452 138.87,450.47 141.02,447.03 143.52,448.64 			"/>
			<polygon class="st1" points="130.31,445.12 129.46,444.57 132.06,440.83 132.87,441.41 			"/>
			<polygon class="st1" points="129.46,444.57 128.62,444.01 131.27,440.24 132.06,440.83 			"/>
			<polygon class="st1" points="128.62,444.01 126.11,442.3 128.89,438.46 131.27,440.24 			"/>
			<polygon class="st1" points="117.91,436.39 117.11,435.78 120.38,431.68 121.14,432.32 			"/>
			<polygon class="st1" points="117.11,435.78 116.31,435.16 119.62,431.05 120.38,431.68 			"/>
			<polygon class="st1" points="116.31,435.16 113.91,433.3 117.37,429.12 119.62,431.05 			"/>
			<polygon class="st1" points="106.11,426.84 105.35,426.18 109.35,421.8 110.06,422.48 			"/>
			<polygon class="st1" points="105.35,426.18 104.59,425.51 108.64,421.12 109.35,421.8 			"/>
			<polygon class="st1" points="104.59,425.51 102.32,423.48 106.53,419.05 108.64,421.12 			"/>
			<polygon class="st1" points="94.97,416.5 94.25,415.78 99,411.24 99.67,411.96 			"/>
			<polygon class="st1" points="94.25,415.78 93.54,415.06 98.33,410.51 99,411.24 			"/>
			<polygon class="st1" points="93.54,415.06 91.42,412.88 96.36,408.31 98.33,410.51 			"/>
			<polygon class="st1" points="84.55,405.4 83.88,404.64 89.37,400.04 89.98,400.81 			"/>
			<polygon class="st1" points="83.88,404.64 83.21,403.87 88.75,399.27 89.37,400.04 			"/>
			<polygon class="st1" points="83.21,403.87 81.24,401.55 86.93,396.95 88.75,399.27 			"/>
			<polygon class="st1" points="74.89,393.61 74.28,392.79 80.49,388.26 81.06,389.06 			"/>
			<polygon class="st1" points="74.28,392.79 73.67,391.98 79.92,387.46 80.49,388.26 			"/>
			<polygon class="st1" points="73.67,391.98 71.86,389.52 78.24,385.04 79.92,387.46 			"/>
			<polygon class="st1" points="66.09,381.14 65.53,380.29 72.37,375.96 72.89,376.8 			"/>
			<polygon class="st1" points="65.53,380.29 64.97,379.44 71.86,375.13 72.37,375.96 			"/>
			<polygon class="st1" points="64.97,379.44 63.34,376.86 70.35,372.6 71.86,375.13 			"/>
			<polygon class="st1" points="58.13,368.11 57.63,367.22 65.11,363.16 65.56,364.03 			"/>
			<polygon class="st1" points="57.63,367.22 57.13,366.33 64.65,362.3 65.11,363.16 			"/>
			<polygon class="st1" points="57.13,366.33 55.68,363.64 63.3,359.68 64.65,362.3 			"/>
			<polygon class="st1" points="51.12,354.52 50.69,353.6 58.65,349.95 59.05,350.85 			"/>
			<polygon class="st1" points="50.69,353.6 50.26,352.68 58.25,349.06 58.65,349.95 			"/>
			<polygon class="st1" points="50.26,352.68 48.99,349.9 57.08,346.36 58.25,349.06 			"/>
			<polygon class="st1" points="45.08,340.48 44.71,339.52 53.05,336.36 53.4,337.28 			"/>
			<polygon class="st1" points="44.71,339.52 44.35,338.57 52.71,335.45 53.05,336.36 			"/>
			<polygon class="st1" points="44.35,338.57 43.29,335.7 51.71,332.68 52.71,335.45 			"/>
			<polygon class="st1" points="40.04,326.04 39.75,325.06 48.34,322.45 48.63,323.39 			"/>
			<polygon class="st1" points="39.75,325.06 39.45,324.08 48.06,321.51 48.34,322.45 			"/>
			<polygon class="st1" points="39.45,324.08 38.6,321.15 47.23,318.69 48.06,321.51 			"/>
			<polygon class="st1" points="36.05,311.27 35.82,310.28 44.52,308.27 44.75,309.22 			"/>
			<polygon class="st1" points="35.82,310.28 35.6,309.29 44.3,307.31 44.52,308.27 			"/>
			<polygon class="st1" points="35.6,309.29 34.95,306.3 43.67,304.44 44.3,307.31 			"/>
			<polygon class="st1" points="33.07,296.27 32.9,295.27 41.67,293.85 41.83,294.82 			"/>
			<polygon class="st1" points="32.9,295.27 32.74,294.26 41.51,292.88 41.67,293.85 			"/>
			<polygon class="st1" points="32.74,294.26 32.29,291.23 41.07,289.98 41.51,292.88 			"/>
			<polygon class="st1" points="31.15,281.1 31.06,280.09 39.71,279.28 39.82,280.25 			"/>
			<polygon class="st1" points="31.06,280.09 30.98,279.07 39.62,278.3 39.71,279.28 			"/>
			<polygon class="st1" points="30.98,279.07 30.75,276.02 39.35,275.37 39.62,278.3 			"/>
			<polygon class="st1" points="30.29,265.85 30.27,264.83 38.7,264.6 38.73,265.58 			"/>
			<polygon class="st1" points="30.27,264.83 30.25,263.81 38.66,263.62 38.7,264.6 			"/>
			<polygon class="st1" points="30.25,263.81 30.23,260.76 38.59,260.68 38.66,263.62 			"/>
			<polygon class="st1" points="30.45,250.58 30.51,249.57 38.63,249.88 38.61,250.86 			"/>
			<polygon class="st1" points="30.51,249.57 30.56,248.55 38.65,248.9 38.63,249.88 			"/>
			<polygon class="st1" points="30.56,248.55 30.76,245.5 38.76,245.95 38.65,248.9 			"/>
			<polygon class="st1" points="31.69,235.37 31.81,234.36 39.47,235.16 39.38,236.14 			"/>
			<polygon class="st1" points="31.81,234.36 31.94,233.35 39.56,234.19 39.47,235.16 			"/>
			<polygon class="st1" points="31.94,233.35 32.33,230.32 39.86,231.25 39.56,234.19 			"/>
			<polygon class="st1" points="33.94,220.28 34.13,219.28 41.29,220.53 41.14,221.5 			"/>
			<polygon class="st1" points="34.13,219.28 34.32,218.29 41.44,219.55 41.29,220.53 			"/>
			<polygon class="st1" points="34.32,218.29 34.93,215.3 41.93,216.64 41.44,219.55 			"/>
			<polygon class="st1" points="37.24,205.41 37.5,204.42 44.04,206.02 43.83,206.98 			"/>
			<polygon class="st1" points="37.5,204.42 37.76,203.44 44.26,205.06 44.04,206.02 			"/>
			<polygon class="st1" points="37.76,203.44 38.56,200.51 44.94,202.18 44.26,205.06 			"/>
			<polygon class="st1" points="41.53,190.8 41.85,189.84 47.77,191.71 47.49,192.66 			"/>
			<polygon class="st1" points="41.85,189.84 42.18,188.88 48.05,190.77 47.77,191.71 			"/>
			<polygon class="st1" points="42.18,188.88 43.18,186.01 48.92,187.94 48.05,190.77 			"/>
			<polygon class="st1" points="46.79,176.54 47.18,175.6 52.45,177.67 52.11,178.6 			"/>
			<polygon class="st1" points="47.18,175.6 47.57,174.67 52.8,176.75 52.45,177.67 			"/>
			<polygon class="st1" points="47.57,174.67 48.76,171.87 53.86,173.99 52.8,176.75 			"/>
			<polygon class="st1" points="53,162.68 53.44,161.78 58.08,163.97 57.68,164.87 			"/>
			<polygon class="st1" points="53.44,161.78 53.89,160.87 58.49,163.07 58.08,163.97 			"/>
			<polygon class="st1" points="53.89,160.87 55.26,158.17 59.73,160.38 58.49,163.07 			"/>
			<polygon class="st1" points="60.08,149.28 60.58,148.41 64.65,150.67 64.18,151.54 			"/>
			<polygon class="st1" points="60.58,148.41 61.09,147.53 65.12,149.8 64.65,150.67 			"/>
			<polygon class="st1" points="61.09,147.53 62.63,144.92 66.55,147.2 65.12,149.8 			"/>
			<polygon class="st1" points="68.03,136.39 68.59,135.55 72.11,137.83 71.59,138.67 			"/>
			<polygon class="st1" points="68.59,135.55 69.15,134.71 72.64,136.99 72.11,137.83 			"/>
			<polygon class="st1" points="69.15,134.71 70.86,132.22 74.24,134.49 72.64,136.99 			"/>
			<polygon class="st1" points="76.78,124.05 77.39,123.24 80.45,125.53 79.87,126.34 			"/>
			<polygon class="st1" points="77.39,123.24 78,122.44 81.04,124.74 80.45,125.53 			"/>
			<polygon class="st1" points="78,122.44 79.86,120.06 82.83,122.36 81.04,124.74 			"/>
			<polygon class="st1" points="86.29,112.3 86.96,111.54 89.63,113.83 89,114.6 			"/>
			<polygon class="st1" points="86.96,111.54 87.62,110.78 90.27,113.08 89.63,113.83 			"/>
			<polygon class="st1" points="87.62,110.78 89.64,108.53 92.21,110.82 90.27,113.08 			"/>
			<polygon class="st1" points="96.55,101.21 97.26,100.5 99.59,102.78 98.9,103.49 			"/>
			<polygon class="st1" points="97.26,100.5 97.97,99.78 100.28,102.07 99.59,102.78 			"/>
			<polygon class="st1" points="97.97,99.78 100.11,97.65 102.38,99.95 100.28,102.07 			"/>
			<polygon class="st1" points="107.47,90.77 108.22,90.1 110.32,92.45 109.58,93.12 			"/>
			<polygon class="st1" points="108.22,90.1 108.97,89.44 111.06,91.79 110.32,92.45 			"/>
			<polygon class="st1" points="108.97,89.44 111.25,87.46 113.29,89.83 111.06,91.79 			"/>
			<polygon class="st1" points="119.04,81.08 119.84,80.46 121.71,82.87 120.93,83.48 			"/>
			<polygon class="st1" points="119.84,80.46 120.63,79.85 122.5,82.26 121.71,82.87 			"/>
			<polygon class="st1" points="120.63,79.85 123.04,78.03 124.86,80.44 122.5,82.26 			"/>
			<polygon class="st1" points="131.21,72.15 132.04,71.58 133.75,74.1 132.93,74.65 			"/>
			<polygon class="st1" points="132.04,71.58 132.88,71.02 134.57,73.54 133.75,74.1 			"/>
			<polygon class="st1" points="132.88,71.02 135.39,69.34 137.06,71.91 134.57,73.54 			"/>
			<polygon class="st1" points="143.93,64.01 144.8,63.5 146.37,66.19 145.51,66.69 			"/>
			<polygon class="st1" points="144.8,63.5 145.66,62.99 147.23,65.69 146.37,66.19 			"/>
			<polygon class="st1" points="145.66,62.99 148.28,61.49 149.82,64.22 147.23,65.69 			"/>
			<polygon class="st1" points="157.16,56.74 158.06,56.28 159.48,59.14 158.59,59.58 			"/>
			<polygon class="st1" points="158.06,56.28 158.96,55.83 160.37,58.7 159.48,59.14 			"/>
			<polygon class="st1" points="158.96,55.83 161.67,54.5 163.06,57.42 160.37,58.7 			"/>
			<polygon class="st1" points="170.83,50.31 171.76,49.92 173.06,53.05 172.15,53.42 			"/>
			<polygon class="st1" points="171.76,49.92 172.69,49.52 173.98,52.67 173.06,53.05 			"/>
			<polygon class="st1" points="172.69,49.52 175.48,48.37 176.75,51.58 173.98,52.67 			"/>
			<polygon class="st1" points="184.91,44.8 185.86,44.47 187.02,47.9 186.08,48.21 			"/>
			<polygon class="st1" points="185.86,44.47 186.81,44.14 187.96,47.59 187.02,47.9 			"/>
			<polygon class="st1" points="186.81,44.14 189.68,43.18 190.8,46.68 187.96,47.59 			"/>
			<polygon class="st1" points="199.32,40.23 200.29,39.96 201.29,43.73 200.33,43.97 			"/>
			<polygon class="st1" points="200.29,39.96 201.26,39.69 202.25,43.49 201.29,43.73 			"/>
			<polygon class="st1" points="201.26,39.69 204.18,38.91 205.14,42.79 202.25,43.49 			"/>
			<polygon class="st1" points="214,36.6 214.99,36.39 215.81,40.57 214.83,40.75 			"/>
			<polygon class="st1" points="214.99,36.39 215.98,36.19 216.78,40.39 215.81,40.57 			"/>
			<polygon class="st1" points="215.98,36.19 218.95,35.6 219.71,39.89 216.78,40.39 			"/>
			<polygon class="st1" points="228.91,33.95 229.91,33.8 230.5,38.4 229.51,38.51 			"/>
			<polygon class="st1" points="229.91,33.8 230.92,33.66 231.48,38.3 230.5,38.4 			"/>
			<polygon class="st1" points="230.92,33.66 233.92,33.27 234.43,38 231.48,38.3 			"/>
			<polygon class="st1" points="243.98,32.26 244.99,32.18 245.29,37.26 244.3,37.3 			"/>
			<polygon class="st1" points="244.99,32.18 246,32.11 246.28,37.22 245.29,37.26 			"/>
			<polygon class="st1" points="246,32.11 249.03,31.92 249.24,37.12 246.28,37.22 			"/>
			<polygon class="st1" points="259.14,31.58 260.15,31.57 260.11,37.09 259.12,37.07 			"/>
			<polygon class="st1" points="260.15,31.57 261.16,31.56 261.1,37.12 260.11,37.09 			"/>
			<polygon class="st1" points="261.16,31.56 264.2,31.57 264.06,37.22 261.1,37.12 			"/>
			<polygon class="st1" points="274.33,31.88 275.34,31.94 274.9,37.91 273.92,37.83 			"/>
			<polygon class="st1" points="275.34,31.94 276.35,32 275.88,38 274.9,37.91 			"/>
			<polygon class="st1" points="276.35,32 279.38,32.21 278.83,38.29 275.88,38 			"/>
			<polygon class="st1" points="289.48,33.2 290.48,33.32 289.59,39.71 288.61,39.56 			"/>
			<polygon class="st1" points="290.48,33.32 291.49,33.45 290.56,39.86 289.59,39.71 			"/>
			<polygon class="st1" points="291.49,33.45 294.51,33.86 293.48,40.35 290.56,39.86 			"/>
			<polygon class="st1" points="304.52,35.53 305.52,35.72 304.1,42.48 303.14,42.26 			"/>
			<polygon class="st1" points="305.52,35.72 306.51,35.91 305.06,42.7 304.1,42.48 			"/>
			<polygon class="st1" points="306.51,35.91 309.5,36.53 307.93,43.38 305.06,42.7 			"/>
			<polygon class="st1" points="319.39,38.86 320.37,39.12 318.38,46.21 317.44,45.93 			"/>
			<polygon class="st1" points="320.37,39.12 321.36,39.38 319.32,46.5 318.38,46.21 			"/>
			<polygon class="st1" points="321.36,39.38 324.3,40.2 322.14,47.37 319.32,46.5 			"/>
			<polygon class="st1" points="334.01,43.23 334.97,43.56 332.38,50.86 331.45,50.53 			"/>
			<polygon class="st1" points="334.97,43.56 335.94,43.89 333.3,51.21 332.38,50.86 			"/>
			<polygon class="st1" points="335.94,43.89 338.81,44.91 336.05,52.26 333.3,51.21 			"/>
			<polygon class="st1" points="348.3,48.6 349.24,48.99 346.01,56.43 345.12,56.03 			"/>
			<polygon class="st1" points="349.24,48.99 350.18,49.38 346.91,56.83 346.01,56.43 			"/>
			<polygon class="st1" points="350.18,49.38 352.98,50.59 349.58,58.07 346.91,56.83 			"/>
			<polygon class="st1" points="362.2,54.92 363.11,55.38 359.24,62.88 358.38,62.42 			"/>
			<polygon class="st1" points="363.11,55.38 364.02,55.84 360.11,63.34 359.24,62.88 			"/>
			<polygon class="st1" points="364.02,55.84 366.73,57.25 362.7,64.74 360.11,63.34 			"/>
			<polygon class="st1" points="375.63,62.21 376.51,62.73 372.02,70.16 371.19,69.65 			"/>
			<polygon class="st1" points="376.51,62.73 377.39,63.25 372.86,70.68 372.02,70.16 			"/>
			<polygon class="st1" points="377.39,63.25 380,64.84 375.35,72.25 372.86,70.68 			"/>
			<polygon class="st1" points="388.56,70.38 389.4,70.96 384.28,78.28 383.48,77.71 			"/>
			<polygon class="st1" points="389.4,70.96 390.24,71.54 385.08,78.85 384.28,78.28 			"/>
			<polygon class="st1" points="390.24,71.54 392.74,73.3 387.45,80.58 385.08,78.85 			"/>
			<polygon class="st1" points="400.9,79.42 401.7,80.05 395.97,87.18 395.21,86.56 			"/>
			<polygon class="st1" points="401.7,80.05 402.5,80.69 396.73,87.8 395.97,87.18 			"/>
			<polygon class="st1" points="402.5,80.69 404.87,82.61 398.99,89.68 396.73,87.8 			"/>
			<polygon class="st1" points="412.61,89.27 413.36,89.95 407.05,96.82 406.33,96.16 			"/>
			<polygon class="st1" points="413.36,89.95 414.12,90.64 407.76,97.49 407.05,96.82 			"/>
			<polygon class="st1" points="414.12,90.64 416.36,92.72 409.89,99.51 407.76,97.49 			"/>
			<polygon class="st1" points="423.64,99.87 424.35,100.61 417.46,107.18 416.79,106.47 			"/>
			<polygon class="st1" points="424.35,100.61 425.06,101.34 418.13,107.89 417.46,107.18 			"/>
			<polygon class="st1" points="425.06,101.34 427.16,103.57 420.11,110.05 418.13,107.89 			"/>
			<polygon class="st1" points="433.95,111.2 434.61,111.98 427.15,118.2 426.53,117.44 			"/>
			<polygon class="st1" points="434.61,111.98 435.27,112.76 427.77,118.95 427.15,118.2 			"/>
			<polygon class="st1" points="435.27,112.76 437.22,115.12 429.61,121.24 427.77,118.95 			"/>
			<polygon class="st1" points="443.49,123.19 444.1,124.01 436.08,129.83 435.51,129.04 			"/>
			<polygon class="st1" points="444.1,124.01 444.7,124.83 436.65,130.63 436.08,129.83 			"/>
			<polygon class="st1" points="444.7,124.83 446.49,127.32 438.33,133.03 436.65,130.63 			"/>
			<polygon class="st1" points="452.21,135.8 452.76,136.66 444.23,142.02 443.71,141.19 			"/>
			<polygon class="st1" points="452.76,136.66 453.3,137.52 444.74,142.85 444.23,142.02 			"/>
			<polygon class="st1" points="453.3,137.52 454.92,140.13 446.26,145.36 444.74,142.85 			"/>
			<polygon class="st1" points="460.05,148.97 460.54,149.87 451.54,154.72 451.08,153.86 			"/>
			<polygon class="st1" points="460.54,149.87 461.03,150.77 452,155.58 451.54,154.72 			"/>
			<polygon class="st1" points="461.03,150.77 462.47,153.48 453.35,158.18 452,155.58 			"/>
			<polygon class="st1" points="467,162.65 467.43,163.58 457.99,167.87 457.59,166.98 			"/>
			<polygon class="st1" points="467.43,163.58 467.86,164.51 458.39,168.77 457.99,167.87 			"/>
			<polygon class="st1" points="467.86,164.51 469.11,167.31 459.56,171.45 458.39,168.77 			"/>
			<polygon class="st1" points="473.02,176.77 473.39,177.72 463.54,181.43 463.2,180.51 			"/>
			<polygon class="st1" points="473.39,177.72 473.75,178.68 463.87,182.34 463.54,181.43 			"/>
			<polygon class="st1" points="473.75,178.68 474.81,181.56 464.86,185.1 463.87,182.34 			"/>
			<polygon class="st1" points="478.06,191.26 478.35,192.24 468.17,195.31 467.89,194.37 			"/>
			<polygon class="st1" points="478.35,192.24 478.65,193.22 468.45,196.24 468.17,195.31 			"/>
			<polygon class="st1" points="478.65,193.22 479.5,196.17 469.26,199.05 468.45,196.24 			"/>
			<polygon class="st1" points="482.06,206.08 482.29,207.08 471.91,209.46 471.69,208.5 			"/>
			<polygon class="st1" points="482.29,207.08 482.52,208.08 472.12,210.41 471.91,209.46 			"/>
			<polygon class="st1" points="482.52,208.08 483.17,211.08 472.74,213.27 472.12,210.41 			"/>
			<polygon class="st1" points="485.06,221.14 485.22,222.15 474.68,223.83 474.53,222.86 			"/>
			<polygon class="st1" points="485.22,222.15 485.38,223.16 474.83,224.79 474.68,223.83 			"/>
			<polygon class="st1" points="485.38,223.16 485.83,226.2 475.26,227.69 474.83,224.79 			"/>
			<polygon class="st1" points="487.04,236.36 487.14,237.38 476.49,238.35 476.4,237.38 			"/>
			<polygon class="st1" points="487.14,237.38 487.23,238.4 476.57,239.33 476.49,238.35 			"/>
			<polygon class="st1" points="487.23,238.4 487.48,241.46 476.81,242.25 476.57,239.33 			"/>
			<polygon class="st1" points="488.01,251.68 488.04,252.7 477.32,252.97 477.3,252 			"/>
			<polygon class="st1" points="488.04,252.7 488.06,253.73 477.35,253.94 477.32,252.97 			"/>
			<polygon class="st1" points="488.06,253.73 488.08,256.79 477.4,256.87 477.35,253.94 			"/>
			<polygon class="st1" points="487.89,267.03 487.84,268.05 477.28,267.62 477.31,266.64 			"/>
			<polygon class="st1" points="487.84,268.05 487.79,269.07 477.24,268.59 477.28,267.62 			"/>
			<polygon class="st1" points="487.79,269.07 487.62,272.14 477.1,271.52 477.24,268.59 			"/>
			<polygon class="st1" points="486.75,282.33 486.64,283.35 476.26,282.23 476.36,281.26 			"/>
			<polygon class="st1" points="486.64,283.35 486.52,284.37 476.16,283.2 476.26,282.23 			"/>
			<polygon class="st1" points="486.52,284.37 486.14,287.41 475.83,286.12 476.16,283.2 			"/>
			<polygon class="st1" points="484.59,297.53 484.41,298.53 474.28,296.75 474.44,295.79 			"/>
			<polygon class="st1" points="484.41,298.53 484.23,299.54 474.11,297.71 474.28,296.75 			"/>
			<polygon class="st1" points="484.23,299.54 483.65,302.55 473.58,300.6 474.11,297.71 			"/>
			<polygon class="st1" points="481.42,312.54 481.18,313.53 471.32,311.1 471.55,310.15 			"/>
			<polygon class="st1" points="481.18,313.53 480.92,314.52 471.09,312.05 471.32,311.1 			"/>
			<polygon class="st1" points="480.92,314.52 480.14,317.49 470.37,314.89 471.09,312.05 			"/>
			<polygon class="st1" points="477.25,327.3 476.94,328.27 467.4,325.23 467.69,324.3 			"/>
			<polygon class="st1" points="476.94,328.27 476.62,329.24 467.11,326.16 467.4,325.23 			"/>
			<polygon class="st1" points="476.62,329.24 475.62,332.15 466.22,328.95 467.11,326.16 			"/>
			<polygon class="st1" points="472.03,341.71 471.64,342.66 462.62,339.09 462.97,338.18 			"/>
			<polygon class="st1" points="471.64,342.66 471.25,343.61 462.27,340.01 462.62,339.09 			"/>
			<polygon class="st1" points="471.25,343.61 470.07,346.43 461.19,342.73 462.27,340.01 			"/>
			<polygon class="st1" points="465.84,355.73 465.39,356.64 456.91,352.61 457.32,351.72 			"/>
			<polygon class="st1" points="465.39,356.64 464.94,357.56 456.5,353.5 456.91,352.61 			"/>
			<polygon class="st1" points="464.94,357.56 463.57,360.3 455.24,356.15 456.5,353.5 			"/>
			<polygon class="st1" points="458.71,369.27 458.19,370.15 450.33,365.75 450.79,364.88 			"/>
			<polygon class="st1" points="458.19,370.15 457.68,371.03 449.86,366.61 450.33,365.75 			"/>
			<polygon class="st1" points="457.68,371.03 456.11,373.66 448.44,369.18 449.86,366.61 			"/>
			<polygon class="st1" points="450.63,382.26 450.06,383.1 442.93,378.45 443.45,377.62 			"/>
			<polygon class="st1" points="450.06,383.1 449.49,383.94 442.41,379.28 442.93,378.45 			"/>
			<polygon class="st1" points="449.49,383.94 447.75,386.46 440.82,381.76 442.41,379.28 			"/>
			<polygon class="st1" points="441.71,394.66 441.09,395.46 434.69,390.65 435.27,389.86 			"/>
			<polygon class="st1" points="441.09,395.46 440.46,396.26 434.12,391.45 434.69,390.65 			"/>
			<polygon class="st1" points="440.46,396.26 438.55,398.64 432.37,393.82 434.12,391.45 			"/>
			<polygon class="st1" points="431.95,406.37 431.27,407.13 425.71,402.34 426.33,401.58 			"/>
			<polygon class="st1" points="431.27,407.13 430.59,407.88 425.09,403.1 425.71,402.34 			"/>
			<polygon class="st1" points="430.59,407.88 428.52,410.12 423.19,405.36 425.09,403.1 			"/>
			<polygon class="st1" points="421.43,417.39 420.7,418.1 415.96,413.43 416.64,412.71 			"/>
			<polygon class="st1" points="420.7,418.1 419.97,418.8 415.29,414.15 415.96,413.43 			"/>
			<polygon class="st1" points="419.97,418.8 417.77,420.9 413.24,416.28 415.29,414.15 			"/>
			<polygon class="st1" points="410.22,427.67 409.45,428.32 405.48,423.86 406.2,423.19 			"/>
			<polygon class="st1" points="409.45,428.32 408.67,428.98 404.76,424.53 405.48,423.86 			"/>
			<polygon class="st1" points="408.67,428.98 406.34,430.92 402.57,426.53 404.76,424.53 			"/>
			<polygon class="st1" points="398.36,437.16 397.55,437.76 394.31,433.59 395.08,432.97 			"/>
			<polygon class="st1" points="397.55,437.76 396.74,438.36 393.55,434.21 394.31,433.59 			"/>
			<polygon class="st1" points="396.74,438.36 394.28,440.14 391.23,436.06 393.55,434.21 			"/>
			<polygon class="st1" points="385.92,445.83 385.07,446.38 382.5,442.57 383.31,441.99 			"/>
			<polygon class="st1" points="385.07,446.38 384.22,446.92 381.69,443.14 382.5,442.57 			"/>
			<polygon class="st1" points="384.22,446.92 381.66,448.53 379.25,444.83 381.69,443.14 			"/>
			<polygon class="st1" points="372.95,453.64 372.07,454.13 370.1,450.75 370.95,450.23 			"/>
			<polygon class="st1" points="372.07,454.13 371.18,454.61 369.26,451.27 370.1,450.75 			"/>
			<polygon class="st1" points="371.18,454.61 368.52,456.05 366.7,452.79 369.26,451.27 			"/>
			<polygon class="st1" points="359.51,460.57 358.6,461.01 357.15,458.07 358.03,457.61 			"/>
			<polygon class="st1" points="358.6,461.01 357.69,461.43 356.27,458.52 357.15,458.07 			"/>
			<polygon class="st1" points="357.69,461.43 354.95,462.69 353.61,459.87 356.27,458.52 			"/>
			<polygon class="st1" points="345.68,466.62 344.74,466.99 343.7,464.48 344.61,464.08 			"/>
			<polygon class="st1" points="344.74,466.99 343.8,467.35 342.79,464.88 343.7,464.48 			"/>
			<polygon class="st1" points="343.8,467.35 340.98,468.42 340.05,466.04 342.79,464.88 			"/>
			<polygon class="st1" points="331.49,471.72 330.53,472.03 329.83,469.96 330.77,469.63 			"/>
			<polygon class="st1" points="330.53,472.03 329.57,472.34 328.89,470.29 329.83,469.96 			"/>
			<polygon class="st1" points="329.57,472.34 326.7,473.23 326.07,471.24 328.89,470.29 			"/>
			<polygon class="st1" points="317.03,475.93 316.05,476.18 315.59,474.42 316.55,474.15 			"/>
			<polygon class="st1" points="316.05,476.18 315.08,476.42 314.63,474.68 315.59,474.42 			"/>
			<polygon class="st1" points="315.08,476.42 312.15,477.12 311.74,475.45 314.63,474.68 			"/>
			<polygon class="st1" points="302.33,479.16 301.34,479.34 301.06,477.92 302.04,477.72 			"/>
			<polygon class="st1" points="301.34,479.34 300.35,479.51 300.09,478.12 301.06,477.92 			"/>
			<polygon class="st1" points="300.35,479.51 297.38,480.02 297.15,478.68 300.09,478.12 			"/>
			<polygon class="st1" points="287.46,481.45 286.46,481.57 286.32,480.37 287.3,480.23 			"/>
			<polygon class="st1" points="286.46,481.57 285.47,481.68 285.33,480.49 286.32,480.37 			"/>
			<polygon class="st1" points="285.47,481.68 282.48,482 282.36,480.85 285.33,480.49 			"/>
			
				<rect x="271.45" y="481.75" transform="matrix(0.9984 -0.0559 0.0559 0.9984 -26.5336 15.9557)" class="st1" width="1" height="1.07"/>
			
				<rect x="270.45" y="481.8" transform="matrix(0.9987 -0.0515 0.0515 0.9987 -24.4888 14.5992)" class="st1" width="1" height="1.07"/>
			<polygon class="st1" points="270.48,482.9 267.48,483.03 267.44,481.98 270.43,481.83 			"/>
		</g>
	</g>
	<g>
		<path class="st1" d="M258.9,370.9c-9.37,0-18.74,0.04-28.11-0.01c-8.38-0.04-12.3-3.89-12.39-12.36
			c-0.21-20.38-8.15-37.19-22.72-51.27c-28.5-27.54-35.92-69.93-18.72-105.4c16.96-34.96,55.01-55.47,93.53-50.41
			c39.37,5.17,71.08,34.8,77.91,73.96c5.44,31.16-3.1,58.63-25.61,80.97c-15.1,14.99-23.37,32.41-23.68,53.68
			c-0.1,6.87-4.11,10.73-11.05,10.81C278.34,370.98,268.62,370.89,258.9,370.9z M287.21,358.99c0.54-4.79,0.82-9.37,1.6-13.87
			c3.27-19,12.93-34.27,26.55-47.76c29.89-29.62,30.61-78.19,2.2-108.95c-29.19-31.59-77.04-34.85-109.57-7.45
			c-36.24,30.51-38.27,84.84-4.2,117.85c14.1,13.66,22.94,29.86,25.65,49.32c0.5,3.6,0.69,7.24,1.02,10.86
			C249.66,358.99,268.37,358.99,287.21,358.99z"/>
		<path class="st1" d="M259.1,375.9c9.9,0,19.81,0.06,29.71-0.03c4.21-0.04,7.75,1.06,7.76,5.83c0.02,4.68-3.37,6.06-7.64,6.06
			c-19.98-0.05-39.97-0.04-59.95,0c-4.2,0.01-7.62-1.15-7.7-5.95c-0.09-4.93,3.37-5.96,7.58-5.93
			C238.94,375.95,249.02,375.9,259.1,375.9z"/>
		<path class="st1" d="M259.15,393.95c8.83,0,17.66,0.04,26.48-0.02c4.09-0.03,7.14,1.28,7.08,5.86c-0.06,4.46-3.08,5.97-7.14,5.97
			c-17.83-0.01-35.67-0.02-53.5,0c-4.13,0-7.16-1.74-7.15-6.01c0-4.32,3.06-5.88,7.21-5.84
			C241.14,394.01,250.14,393.94,259.15,393.95z"/>
		<path class="st1" d="M374.93,343.46c-1.19,1.42-2.19,3.62-3.82,4.28c-1.65,0.67-4.66,0.58-5.79-0.5
			c-9.45-9.03-18.77-18.22-27.66-27.8c-1.16-1.25-0.51-5.69,0.88-7.29c1.09-1.26,5.63-1.54,6.88-0.37
			c9.54,8.94,18.67,18.31,27.84,27.63C374.03,340.19,374.19,341.59,374.93,343.46z"/>
		<path class="st1" d="M180.19,315.93c-1.38,2.22-2.13,4.05-3.41,5.36c-8.16,8.32-16.43,16.54-24.69,24.77
			c-2.7,2.69-5.83,3.81-8.83,0.84c-3.15-3.11-2.21-6.35,0.69-9.25c8.25-8.24,16.36-16.62,24.84-24.61c1.6-1.51,4.77-2.3,6.96-1.92
			C177.38,311.39,178.59,314.08,180.19,315.93z"/>
		<path class="st1" d="M198.89,157.11c-1.24,1.54-2.22,3.89-3.8,4.4c-1.85,0.61-4.97,0.41-6.25-0.8
			c-9.22-8.75-18.18-17.77-27.05-26.87c-2.45-2.51-2.46-6.04,0.51-7.8c1.91-1.14,6.06-1.38,7.43-0.11
			c9.31,8.64,18.18,17.76,27.09,26.81C197.73,153.65,198.01,155.18,198.89,157.11z"/>
		<path class="st1" d="M131.61,239.15c-5.83,0-11.67-0.01-17.5,0c-4.16,0.01-7.11-1.82-6.95-6.14c0.15-4,3.01-5.56,6.98-5.53
			c11.67,0.09,23.34,0.08,35.01,0c3.95-0.03,6.81,1.46,6.93,5.54c0.12,4.36-2.81,6.14-6.96,6.13
			C143.28,239.13,137.44,239.15,131.61,239.15z"/>
		<path class="st1" d="M253.15,119.73c0-6.01,0.05-12.01-0.02-18.02c-0.04-3.82,1.84-6.3,5.5-6.45c4.02-0.15,6.08,2.55,6.11,6.47
			c0.07,12.01,0.09,24.03-0.01,36.04c-0.03,3.88-2.03,6.55-6.15,6.4c-3.83-0.14-5.48-2.65-5.45-6.42
			C253.19,131.75,253.15,125.74,253.15,119.73z"/>
		<path class="st1" d="M385.51,233.38c5.83,0,11.65-0.01,17.48,0c4.09,0.01,7.16,1.74,7,6.11c-0.14,4.06-3.14,5.49-7.03,5.47
			c-11.65-0.06-23.3-0.07-34.96,0c-3.91,0.02-6.84-1.42-6.98-5.49c-0.15-4.42,2.93-6.07,7-6.08
			C373.86,233.36,379.68,233.38,385.51,233.38z"/>
		<path class="st1" d="M347.05,123.79c1.46,1.1,3.84,2,4.41,3.57c0.67,1.83,0.58,5.02-0.61,6.27c-8.86,9.33-17.93,18.49-27.36,27.24
			c-1.29,1.2-5.93,0.8-7.24-0.57c-1.33-1.39-1.62-5.95-0.39-7.28c8.76-9.42,18.02-18.39,27.19-27.42
			C343.86,124.81,345.22,124.59,347.05,123.79z"/>
		<path class="st1" d="M233.47,411.58c17.27,0,33.47,0,49.8,0c-1.67,5.95-6.41,9.73-12.99,9.96c-7.59,0.27-15.21,0.26-22.8,0
			C241.38,421.33,237.01,418.07,233.47,411.58z"/>
		<path class="st1" d="M209.64,266.73c11.16,9.96,22.32,19.93,33.48,29.89c3.46,3.09,8.64,3.4,12.08,0
			c17.59-17.36,35.18-34.72,52.77-52.09c2.54-2.51,5.08-5.02,7.62-7.52c7.84-7.74-4.25-19.82-12.08-12.08
			c-17.59,17.36-35.18,34.72-52.77,52.09c-2.54,2.51-5.08,5.02-7.62,7.52c4.03,0,8.06,0,12.08,0
			c-11.16-9.96-22.32-19.93-33.48-29.89C213.54,247.35,201.41,259.39,209.64,266.73L209.64,266.73z"/>
	</g>
</g>
</svg>
