<?xml version="1.0" encoding="utf-8"?>
<!-- Generator: Adobe Illustrator 26.0.3, SVG Export Plug-In . SVG Version: 6.00 Build 0)  -->
<svg version="1.1" id="Warstwa_1" xmlns="http://www.w3.org/2000/svg" xmlns:xlink="http://www.w3.org/1999/xlink" x="0px" y="0px"
	 viewBox="0 0 900 900" style="enable-background:new 0 0 900 900;" xml:space="preserve">
<style type="text/css">
	.st0{fill:#FFFFFF;}
	.st1{fill:#336799;}
</style>
<circle class="st0" cx="450" cy="450" r="450"/>
<path class="st1" d="M810.55,460.25L793.02,384c-0.34-1.49-0.97-2.87-1.87-4.13l-72.15-100.3c-0.84-1.17-1.88-2.16-3.08-2.94
	l-10.89-7.06c1.84-3.82,2.87-8.1,2.87-12.61c0-16.1-13.1-29.2-29.2-29.2c-8.9,0-16.88,4.01-22.24,10.31l-70.8-45.92
	c-1.27-0.83-2.67-1.39-4.22-1.68L463.02,169c-2.98-12.96-14.6-22.66-28.46-22.66c-15.67,0-28.48,12.4-29.17,27.9l-202.07,60.76
	c-4.92-9.2-14.62-15.47-25.76-15.47c-16.1,0-29.2,13.1-29.2,29.2c0,5.18,1.36,10.04,3.73,14.26l-59.27,55.23
	c-2.32,2.16-3.66,5.22-3.66,8.39v123.51c0,2.42,0.75,4.73,2.14,6.67l16.03,22.39c-7.2,5.32-11.89,13.87-11.89,23.5
	c0,16.1,13.1,29.2,29.2,29.2c6.19,0,11.93-1.94,16.66-5.24l14.92,20.85c2.15,3,5.63,4.79,9.31,4.79h94.63l40.67,56.94
	c2.15,3,5.63,4.79,9.31,4.79h104.01l115.27,135.61c2.24,2.63,5.42,4.05,8.69,4.05c1.56,0,3.14-0.32,4.65-0.99
	c4.67-2.06,7.38-6.85,6.74-11.92L536.05,634.4l40.27,12.59c1.28,0.4,2.61,0.57,3.97,0.51l72.01-3.51c1.93-0.09,3.81-0.67,5.48-1.7
	l73.66-45.6c2.64-1.62,4.53-4.29,5.19-7.31l11.67-53.34l59.54-65.5C810.38,467.76,811.39,463.92,810.55,460.25z M424.61,581.08
	c-3.45-27.62-7.47-54.44-11.54-80.62l72.57-22.68c0.32,0.47,0.66,0.92,1.01,1.36c-9.09,15-17.93,29.46-26.56,43.58
	C448.62,541.49,436.81,560.8,424.61,581.08z M130.2,474.01l-19.44-27.15V343.25l92.16,116.13c-18.04,8.43-36.53,17.06-55.17,25.46
	C143.49,479.33,137.3,475.38,130.2,474.01z M651.82,268.36l-23.49,15.9c-9.96-19.02-20.29-38.48-31.22-58.52
	c-0.1-0.2-0.19-0.41-0.29-0.61l52.79,34.24C649.87,262.53,650.63,265.56,651.82,268.36z M656.65,536.63
	c-1.7-9.74-6.94-18.27-14.33-24.23l25.9-59.43c7.31,4.77,16.02,7.55,25.38,7.55c3.26,0,6.45-0.34,9.52-0.98
	c2.64,6.34,5.25,12.67,7.83,18.96c6.14,14.93,12.48,30.28,19.14,45.51c-0.2,0.25-0.41,0.5-0.59,0.76L656.65,536.63z M337.75,497.38
	c-12.89,0-23.38,10.49-23.38,23.38c0,0.16,0.02,0.32,0.02,0.48l-40.16,12.55L218,462.93c24.28-11.34,49.23-22.9,74.31-33.74
	l0.24-0.11c3.68-1.84,7.07-3.69,10.35-5.48c3.14-1.71,6.39-3.48,9.83-5.21c4.89-1.85,9.47-3.99,13.91-6.06
	c4.54-2.12,8.83-4.12,13.46-5.86l0.33-0.14c3.03-1.4,6.02-2.84,8.97-4.3c9.9,12.2,24.98,20.03,41.87,20.11
	c2.88,19.62,5.89,38.81,8.85,57.61c0.73,4.65,1.46,9.31,2.2,14l-45.08,14.09C353.04,501.55,345.87,497.38,337.75,497.38z
	 M196.77,270.7c13,7.52,26.03,15.03,38.77,22.38c34.19,19.72,69.16,39.9,103.74,60.27c-1.3,4.64-2,9.52-2,14.57
	c0,9.45,2.44,18.34,6.7,26.09c-2.45,1.21-4.93,2.4-7.41,3.55c-4.91,1.85-9.52,4-13.98,6.08c-4.54,2.12-8.83,4.12-13.46,5.86
	l-0.46,0.2c-3.68,1.84-7.07,3.69-10.35,5.48c-3.17,1.73-6.45,3.52-9.93,5.26c-25.17,10.87-50.16,22.46-74.48,33.81l-27.91-177.56
	C190.01,275.47,193.68,273.41,196.77,270.7z M403.6,304.73c-0.75,3.31-1.49,6.59-2.24,9.86c-3.2-0.59-6.49-0.91-9.86-0.91
	c-21.42,0-39.98,12.49-48.79,30.56c-30.64-18.03-61.54-35.91-91.94-53.45l155.18,3.56C405.16,297.84,404.38,301.3,403.6,304.73z
	 M409.59,478.27c-2.92-18.59-5.9-37.56-8.75-56.93c25.47-4.44,44.91-26.7,44.91-53.42c0-23.18-14.62-43.01-35.13-50.75
	c0.79-3.45,1.57-6.89,2.34-10.32c0.66-2.93,1.33-5.88,2.01-8.84l114.7,57.8c-8.43,28.66-16.85,57.15-25.2,85.38
	c-12.7,0.22-22.97,10.6-22.97,23.36c0,1.48,0.15,2.93,0.42,4.33l-70.36,21.99C410.91,486.65,410.25,482.45,409.59,478.27z
	 M650.14,347.46c1.06,2.57,2.11,4.96,3.14,7.27c1.22,2.74,2.36,5.32,3.53,8.23l0.32,0.65c1.68,2.86,3.31,5.73,4.92,8.61l2.54,5.28
	c-10.7,8.55-17.58,21.69-17.58,36.42c0,1.12,0.05,2.22,0.13,3.32l-120.91,37.79c-2.42-5.4-6.81-9.73-12.27-12.04
	c8.52-28.8,17.11-57.89,25.71-87.13l85.13-57.62c8.11,15.56,15.99,30.85,23.75,45.91L650.14,347.46z M582.5,215.83
	c0.89,1.99,1.71,4.04,2.52,6.06c1.16,2.89,2.25,5.63,3.54,8.21l0.08,0.15c11.1,20.34,21.59,40.11,31.69,59.42l-76.41,51.72
	c12.38-42.17,24.73-84.55,36.81-126.71L582.5,215.83z M494.15,485.29c3.22,1.67,6.87,2.63,10.74,2.63
	c12.89,0,23.38-10.49,23.38-23.38c0-0.03,0-0.06,0-0.09l120.56-37.68c2.19,7.6,6.25,14.42,11.67,19.9l-26.41,60.6
	c-5.11-2.38-10.8-3.72-16.8-3.72c-22.05,0-39.99,17.94-39.99,39.99c0,2.02,0.15,4,0.44,5.94l-136.21,22.17
	c9.13-15.07,18.04-29.66,26.76-43.93C476.7,513.96,485.3,499.88,494.15,485.29z M532.43,346.44L417.2,288.37
	c1.61-6.92,3.29-13.89,5.1-20.88c2.89-12.05,5.42-23.81,7.86-35.18c2.02-9.4,3.99-18.52,6.1-27.62c9.99-0.57,18.65-6.19,23.47-14.34
	l112.17,20.33C558.95,255.84,545.7,301.28,532.43,346.44z M426.64,203.64c-2.03,8.79-3.92,17.59-5.87,26.65
	c-2.43,11.31-4.95,23.01-7.79,34.87c-1.69,6.57-3.28,13.13-4.81,19.63l-174.73-4.01c-10.09-5.82-20.29-11.71-30.51-17.62
	c1.13-1.97,2.03-4.08,2.67-6.3l206.91-62.21C416.2,198.9,421.08,202.07,426.64,203.64z M176.46,277.9l26.01,165.45l-90.23-113.7
	l56.86-52.98C171.44,277.39,173.91,277.81,176.46,277.9z M764.93,380.42l-31.25,9.77c-8.13-13.68-23.05-22.87-40.08-22.87
	c-7.4,0-14.4,1.74-20.62,4.83c-2.4-4.38-4.85-8.74-7.39-13.08c-1.19-2.95-2.38-5.63-3.54-8.23c-1.22-2.74-2.36-5.32-3.53-8.23
	l-0.19-0.42c-8.33-16.17-16.8-32.61-25.53-49.35l24.18-16.37c5.35,5.95,13.1,9.71,21.72,9.71c3.39,0,6.64-0.59,9.67-1.65l14.2,9.21
	L764.93,380.42z M153.58,506.67c0.18-1.3,0.28-2.63,0.28-3.99c0-3.27-0.55-6.42-1.55-9.36c19.19-8.65,38.19-17.53,56.7-26.18
	c0.02-0.01,0.03-0.02,0.05-0.02l50.44,63.57h-88.73L153.58,506.67z M315.39,592.4l-35.74-50.04l0.43-0.34l36.51-11.41
	c3.73,7.97,11.8,13.52,21.17,13.52c12.89,0,23.38-10.49,23.38-23.38c0-1.35-0.14-2.66-0.36-3.95l43.03-13.45
	c4.48,28.85,8.88,58.48,12.51,89.05H315.39z M527.41,609.07c-3.74-1.17-7.77-0.37-10.77,2.15c-3,2.52-4.5,6.34-4.01,10.22
	l11.18,88.19l-96.2-113.18c-0.2-0.23-0.41-0.45-0.62-0.66c2.69-4.5,5.37-8.95,8.02-13.35l145.31-23.66
	c4.08,9.84,11.97,17.71,21.83,21.76l-19.71,45.22l-1.39,0.07L527.41,609.07z M648.65,622.53l-55.51,2.71l18.37-42.14
	c1.89,0.27,3.81,0.42,5.77,0.42c21.13,0,38.47-16.47,39.88-37.25L726.42,535l-9.97,45.55L648.65,622.53z M737.16,516.18
	c-5.99-13.84-11.73-27.76-17.32-41.34c-2.49-6.05-5-12.14-7.54-18.25c16.41-7.22,27.9-23.62,27.9-42.67
	c0-5.22-0.88-10.24-2.47-14.94l33.11-10.35l1.58,2.2l15.88,69.09L737.16,516.18z"/>
</svg>
